<svg width="10" height="9" viewBox="0 0 10 9" fill="none" xmlns="http://www.w3.org/2000/svg">
<path d="M9.99717 1.20969C9.99047 1.1441 9.9592 1.08313 9.90922 1.03819C9.85925 0.993252 9.79401 0.967441 9.72573 0.965594V0.964844H3.84715C3.77742 0.964977 3.71023 0.990108 3.65863 1.03536C3.60703 1.0806 3.5747 1.14274 3.56792 1.20969H3.56503V2.61823H6.04749C6.17793 2.61823 6.28382 2.71428 6.29671 2.83681H6.29927V5.97055H7.5225L8.24339 6.66597C8.27706 6.71441 8.32598 6.75112 8.38293 6.77069C8.43987 6.79026 8.50183 6.79165 8.55966 6.77465C8.61749 6.75765 8.66812 6.72316 8.70408 6.67628C8.74004 6.6294 8.75943 6.57261 8.75939 6.51428V5.97055H9.72584V5.96969C9.78947 5.9681 9.85066 5.94574 9.89944 5.90628C9.94821 5.86681 9.98168 5.81257 9.99439 5.75239H10.0001V1.20969H9.99717Z" fill="#41CDBA"/>
<path d="M5.49336 3.15283H0.24489V3.15348C0.183932 3.15515 0.125696 3.1782 0.0810874 3.21832C0.0364792 3.25844 0.00855894 3.31287 0.00255554 3.37142H0V7.42745H0.00511113C0.0165088 7.48115 0.0464108 7.52955 0.0899491 7.56476C0.133487 7.59998 0.188098 7.61993 0.24489 7.62138V7.62203H1.10767V8.10755C1.10772 8.15958 1.12508 8.21022 1.1572 8.25201C1.18932 8.29381 1.23449 8.32455 1.28608 8.33971C1.33766 8.35487 1.39293 8.35365 1.44375 8.33623C1.49456 8.31881 1.53823 8.28611 1.56834 8.24295L2.2119 7.62203H5.49336C5.61514 7.62203 5.7168 7.53841 5.74003 7.42745H5.74503V3.37142H5.74247C5.73651 3.31164 5.7077 3.25614 5.66164 3.21573C5.61559 3.17532 5.5556 3.1529 5.49336 3.15283Z" fill="#41CDBA"/>
</svg>
