<svg width="46" height="46" viewBox="0 0 46 46" fill="none" xmlns="http://www.w3.org/2000/svg">
<circle cx="23" cy="23" r="23" fill="white"/>
<path d="M32.0983 22.4164C32.0913 21.7051 32.0889 20.9884 32.0866 20.2744H30.1919C30.1848 20.9858 30.1802 21.6998 30.1755 22.4164C29.5377 22.4191 28.9045 22.4244 28.2714 22.4323V24.5638C28.9045 24.5717 29.5423 24.577 30.1755 24.5849C30.1825 25.2963 30.1825 26.0103 30.1872 26.7217H32.0842C32.0866 26.0103 32.0913 25.2963 32.0959 24.5796C32.7338 24.5717 33.3669 24.5691 34 24.5612V22.4296C33.3692 22.4244 32.7314 22.4244 32.0983 22.4164ZM19.6703 22.427C19.668 23.278 19.6703 24.1317 19.6727 24.9827C20.9436 25.0301 22.2169 25.0091 23.4878 25.0301C22.9274 28.1998 19.0935 29.2273 17.0651 27.1564C14.9782 25.341 15.0766 21.3599 17.2457 19.6736C18.7628 18.3141 20.9178 18.6487 22.4349 19.8265C23.0306 19.2073 23.5886 18.5433 24.1256 17.8583C22.8641 16.728 21.3164 15.9217 19.6703 16.006C16.2327 15.8769 13.0741 19.26 13.0178 23.1252C12.7974 26.2843 14.6452 29.3801 17.2527 30.4973C19.8509 31.6223 23.183 30.8556 24.8432 28.2314C25.9382 26.5741 26.1751 24.44 26.0461 22.4349C23.9193 22.4164 21.7948 22.4191 19.6703 22.427Z" fill="#C93535"/>
</svg>
