<svg width="28" height="28" viewBox="0 0 28 28" fill="none" xmlns="http://www.w3.org/2000/svg">
<circle cx="14" cy="14" r="14" fill="#F1F1F1"/>
<path d="M19.6416 12.7054C19.6366 12.1837 19.6349 11.6582 19.6333 11.1345H18.2799C18.2749 11.6562 18.2715 12.1798 18.2682 12.7054C17.8126 12.7073 17.3604 12.7112 16.9081 12.717V14.2801C17.3604 14.2859 17.816 14.2898 18.2682 14.2956C18.2732 14.8173 18.2732 15.3409 18.2766 15.8626H19.6316C19.6333 15.3409 19.6366 14.8173 19.64 14.2917C20.0955 14.2859 20.5478 14.284 21 14.2782V12.7151C20.5494 12.7112 20.0939 12.7112 19.6416 12.7054ZM10.7645 12.7131C10.7628 13.3372 10.7645 13.9632 10.7662 14.5873C11.674 14.6221 12.5835 14.6066 13.4913 14.6221C13.091 16.9465 10.3525 17.7 8.90366 16.1814C7.41297 14.8501 7.48332 11.9306 9.03263 10.694C10.1163 9.69701 11.6556 9.9424 12.7392 10.8061C13.1647 10.352 13.5633 9.86511 13.9469 9.36275C13.0458 8.53385 11.9403 7.94261 10.7645 8.00444C8.30906 7.90976 6.05293 10.3907 6.01273 13.2251C5.85529 15.5418 7.17513 17.8121 9.03765 18.6313C10.8935 19.4564 13.2735 18.8941 14.4594 16.9697C15.2416 15.7544 15.4108 14.1893 15.3186 12.7189C13.7995 12.7054 12.282 12.7073 10.7645 12.7131Z" fill="black"/>
</svg>
