<svg width="28" height="28" viewBox="0 0 28 28" fill="none" xmlns="http://www.w3.org/2000/svg">
<circle cx="14" cy="14" r="14" fill="#F1F1F1"/>
<path d="M10.6667 8.44444C10.6667 9.21144 10.1933 9.87154 9.33266 9.87154C8.52266 9.87154 8 9.24899 8 8.48199C8 7.69477 8.50666 7 9.33333 7C10.16 7 10.6507 7.65722 10.6667 8.44444ZM8 19.9999V10.6111H10.6667V19.9999H8Z" fill="black"/>
<path d="M12 13.8206C12 12.7048 11.966 11.7724 11.932 10.9671H14.328L14.4467 12.2115H14.4973C14.8347 11.6258 15.6614 10.7671 17.0454 10.7671C18.7334 10.7671 20 11.9913 20 14.6252V20H17.3334V15.0448C17.3334 13.8936 16.9287 13.0154 16 13.0154C15.292 13.0154 14.9373 13.6365 14.7513 14.1485C14.6833 14.332 14.6667 14.5876 14.6667 14.844V20H12V13.8206Z" fill="black"/>
</svg>
