<svg width="9" height="7" viewBox="0 0 9 7" fill="none" xmlns="http://www.w3.org/2000/svg">
<path d="M7.76842 6.56H0.863158C0.634234 6.56 0.414687 6.47361 0.252813 6.31983C0.0909396 6.16605 0 5.95748 0 5.74V0.78433C0.00968145 0.573094 0.104878 0.373575 0.265714 0.227427C0.42655 0.0812796 0.640594 -0.000199768 0.863158 3.67819e-07H7.76842C7.99734 3.67819e-07 8.21689 0.0863929 8.37877 0.240173C8.54064 0.393953 8.63158 0.602523 8.63158 0.82V5.74C8.63158 5.95748 8.54064 6.16605 8.37877 6.31983C8.21689 6.47361 7.99734 6.56 7.76842 6.56ZM0.863158 1.58588V5.74H7.76842V1.58588L4.31579 3.772L0.863158 1.58588ZM1.20842 0.82L4.31579 2.788L7.42316 0.82H1.20842Z" fill="#F1EBEB"/>
</svg>
