<svg width="6" height="8" viewBox="0 0 6 8" fill="none" xmlns="http://www.w3.org/2000/svg">
<path d="M0.562382 2.10469C0.457831 1.41607 0.943363 0.797527 1.68507 0.570909C1.81669 0.530666 1.95871 0.542122 2.08218 0.602942C2.20565 0.663761 2.30128 0.769369 2.3496 0.898246L2.58771 1.53321C2.62604 1.63536 2.63298 1.74664 2.60762 1.85275C2.58226 1.95887 2.52577 2.05499 2.44539 2.12877L1.73707 2.77742C1.70216 2.80946 1.67614 2.85001 1.66156 2.89509C1.64698 2.94018 1.64433 2.98828 1.65387 3.0347L1.66044 3.06316L1.67741 3.13432C1.7655 3.48008 1.89972 3.8124 2.07645 4.12235C2.26898 4.45172 2.5079 4.75166 2.78587 5.01295L2.80776 5.03266C2.84312 5.06405 2.88601 5.08574 2.93225 5.09562C2.97849 5.1055 3.0265 5.10323 3.0716 5.08904L3.98738 4.80057C4.09146 4.76789 4.20292 4.76705 4.30747 4.79817C4.41203 4.82928 4.5049 4.89092 4.57418 4.97518L5.00771 5.50122C5.18835 5.72018 5.16645 6.04204 4.95899 6.23527C4.39135 6.76459 3.61078 6.87297 3.06777 6.4367C2.40216 5.8998 1.84105 5.24499 1.41247 4.50498C0.980416 3.76553 0.691818 2.95118 0.561835 2.10469H0.562382ZM2.22808 3.07082L2.81488 2.5322C2.97572 2.38469 3.08881 2.19249 3.13962 1.98025C3.19044 1.76801 3.17666 1.54543 3.10007 1.34108L2.8625 0.706114C2.76525 0.446788 2.57279 0.234299 2.32432 0.111947C2.07585 -0.010406 1.79008 -0.0334153 1.52523 0.0476075C0.603983 0.329512 -0.135536 1.15552 0.0210164 2.18734C0.130494 2.9077 0.382839 3.82403 0.939531 4.78086C1.40191 5.57879 2.00719 6.28481 2.72511 6.86367C3.53962 7.51779 4.62673 7.29446 5.33286 6.6365C5.75215 6.24567 5.79485 5.59647 5.43084 5.15418L4.99731 4.62759C4.85862 4.45926 4.67282 4.33619 4.46372 4.27416C4.25462 4.21213 4.03176 4.21398 3.82371 4.27945L3.06339 4.51866C2.86708 4.31626 2.69513 4.09158 2.55104 3.84921C2.41185 3.60418 2.30338 3.34293 2.22808 3.07137V3.07082Z" fill="#F1EBEB"/>
</svg>
