<svg width="9" height="9" viewBox="0 0 9 9" fill="none" xmlns="http://www.w3.org/2000/svg">
<path d="M6.83333 6.54175H7.27083C7.46404 6.54117 7.64917 6.46416 7.78579 6.32754C7.92241 6.19092 7.99942 6.00579 8 5.81258V2.89591C7.99942 2.70271 7.92241 2.51757 7.78579 2.38095C7.64917 2.24433 7.46404 2.16733 7.27083 2.16675H1.72917C1.53596 2.16733 1.35083 2.24433 1.21421 2.38095C1.07758 2.51757 1.00058 2.70271 1 2.89591V5.81258C1.00058 6.00579 1.07758 6.19092 1.21421 6.32754C1.35083 6.46416 1.53596 6.54117 1.72917 6.54175H2.16667" stroke="#F1EBEB" stroke-width="0.5" stroke-linejoin="round"/>
<path d="M6.39 4.20825H2.61C2.36515 4.20825 2.16666 4.40674 2.16666 4.65159V7.55659C2.16666 7.80143 2.36515 7.99992 2.61 7.99992H6.39C6.63484 7.99992 6.83333 7.80143 6.83333 7.55659V4.65159C6.83333 4.40674 6.63484 4.20825 6.39 4.20825Z" stroke="#F1EBEB" stroke-width="0.5" stroke-linejoin="round"/>
<path d="M6.83333 2.16667V1.72917C6.83275 1.53596 6.75575 1.35083 6.61913 1.21421C6.4825 1.07758 6.29737 1.00058 6.10416 1H2.89583C2.70262 1.00058 2.51749 1.07758 2.38087 1.21421C2.24425 1.35083 2.16724 1.53596 2.16666 1.72917V2.16667" stroke="#F1EBEB" stroke-width="0.5" stroke-linejoin="round"/>
<path d="M6.97916 3.625C7.22079 3.625 7.41666 3.42912 7.41666 3.1875C7.41666 2.94588 7.22079 2.75 6.97916 2.75C6.73754 2.75 6.54166 2.94588 6.54166 3.1875C6.54166 3.42912 6.73754 3.625 6.97916 3.625Z" fill="#F1EBEB"/>
</svg>
