<svg width="28" height="28" viewBox="0 0 28 28" fill="none" xmlns="http://www.w3.org/2000/svg">
<circle cx="14" cy="14" r="14" fill="#F1F1F1"/>
<path d="M18.7713 10.7382C18.7765 10.8574 18.7785 10.9781 18.7785 11.0972C18.7785 14.7683 16.3022 19 11.7741 19C10.383 19 9.08978 18.5402 8 17.7515C8.64459 17.8395 9.29823 17.7832 9.92355 17.5861C10.5489 17.3889 11.1336 17.0546 11.6443 16.6024C11.1307 16.5914 10.6329 16.3997 10.2206 16.054C9.80834 15.7083 9.50211 15.2258 9.34478 14.6742C9.71395 14.752 10.0939 14.7357 10.4567 14.6263C9.89953 14.4989 9.39852 14.158 9.03862 13.6615C8.67871 13.165 8.48205 12.5434 8.48196 11.9021V11.8675C8.82382 12.082 9.20617 12.2013 9.59717 12.2155C9.07535 11.8231 8.70596 11.2208 8.5644 10.5316C8.42284 9.84238 8.51978 9.11821 8.83543 8.50689C9.45356 9.36504 10.2248 10.0669 11.099 10.5669C11.9733 11.0669 12.931 11.3539 13.91 11.4092C13.8676 11.2014 13.8464 10.9889 13.8467 10.7758C13.8467 10.4112 13.9104 10.0502 14.0341 9.71335C14.1578 9.37653 14.3391 9.0705 14.5677 8.81274C14.7962 8.55498 15.0676 8.35053 15.3662 8.21108C15.6648 8.07163 15.9849 7.99991 16.308 8C16.6449 7.99938 16.9782 8.07684 17.2874 8.22756C17.5966 8.37829 17.875 8.59907 18.1054 8.87621C18.6566 8.75313 19.1852 8.52525 19.6687 8.20232C19.4848 8.84546 19.1001 9.39135 18.5861 9.73843C19.0741 9.67317 19.5507 9.52587 20 9.30143C19.6699 9.85941 19.2537 10.346 18.7713 10.7382Z" fill="black"/>
</svg>
