<svg width="18" height="17" viewBox="0 0 18 17" fill="none" xmlns="http://www.w3.org/2000/svg">
<path d="M15.6667 4.00033H13.1667V2.33366C13.1667 1.40866 12.425 0.666992 11.5 0.666992H6.49999C5.57499 0.666992 4.83332 1.40866 4.83332 2.33366V4.00033H2.33332C1.40832 4.00033 0.666656 4.74199 0.666656 5.66699V14.8337C0.666656 15.7587 1.40832 16.5003 2.33332 16.5003H15.6667C16.5917 16.5003 17.3333 15.7587 17.3333 14.8337V5.66699C17.3333 4.74199 16.5917 4.00033 15.6667 4.00033ZM6.49999 2.33366H11.5V4.00033H6.49999V2.33366ZM15.6667 14.8337H2.33332V13.167H15.6667V14.8337ZM15.6667 10.667H2.33332V5.66699H4.83332V7.33366H6.49999V5.66699H11.5V7.33366H13.1667V5.66699H15.6667V10.667Z" fill="#2C4776"/>
</svg>
