<svg width="18" height="21" viewBox="0 0 18 21" fill="none" xmlns="http://www.w3.org/2000/svg">
<path d="M9.20361 0.20211C8.70077 0.284767 8.23745 0.559689 7.93575 0.956799C7.80824 1.1257 7.65739 1.43656 7.60172 1.65039C7.56041 1.80492 7.55503 1.86781 7.55323 2.10859C7.55144 2.42305 7.57478 2.56141 7.67355 2.82734C7.7831 3.11844 7.97525 3.39156 8.21949 3.6018L8.33263 3.69883V4.35828V5.01953H8.40446H8.47629V5.43281V5.8461H8.40446C8.33981 5.8461 8.33263 5.84969 8.33263 5.89102V5.93594H6.77563H5.21684L5.13603 5.83352C4.76249 5.36274 4.02979 5.41305 3.71731 5.93055C3.40125 6.45164 3.71911 7.12727 4.33149 7.22969C4.62421 7.28 4.9762 7.14164 5.13962 6.91344L5.19529 6.83438H6.76486C8.30389 6.83438 8.33263 6.83438 8.33263 6.86852C8.33263 6.89727 8.34699 6.90445 8.40087 6.90984L8.46732 6.91524L8.4727 10.5359C8.47629 13.0516 8.4727 14.2393 8.45834 14.4262C8.42242 14.9221 8.3452 15.2815 7.98244 16.6543C7.92856 16.8609 7.86571 17.1413 7.84416 17.2742C7.82261 17.4072 7.80465 17.5186 7.80285 17.5204C7.80285 17.5222 7.74359 17.5006 7.67355 17.4719C7.60172 17.4431 7.46164 17.4 7.35928 17.3748C6.77743 17.2311 5.90644 16.8609 5.31382 16.5034C4.81457 16.2051 4.44104 15.9104 4.04954 15.5097C3.7658 15.2204 3.61495 15.0371 3.421 14.7496C3.05285 14.198 2.84274 13.6895 2.70266 13.0048C2.69548 12.9707 2.70625 12.9671 2.95228 12.9473C3.09416 12.9366 3.23782 12.9168 3.27194 12.9024C3.39406 12.8521 3.44435 12.6976 3.41022 12.4784C3.36892 12.1963 3.14444 11.6626 2.86429 11.172C2.63442 10.7713 2.25191 10.2305 2.19983 10.2305C2.16391 10.2305 2.00767 10.4138 1.86939 10.6168C1.50843 11.1487 1.23187 11.7398 1.0469 12.3777C0.957104 12.6904 0.976859 12.8 1.13489 12.8827C1.20673 12.9204 1.42402 12.9617 1.54973 12.9617C1.61079 12.9617 1.67185 12.9689 1.68442 12.9779C1.69879 12.9869 1.72393 13.0803 1.74368 13.1971C2.03281 14.9221 3.05465 16.6777 4.48055 17.9013C5.51315 18.7872 6.70739 19.4466 8.19614 19.9516C8.67743 20.1133 8.80673 20.169 8.97913 20.284C9.11921 20.3774 9.22336 20.487 9.30418 20.6272C9.37422 20.753 9.43707 20.8015 9.50711 20.7889C9.57894 20.7745 9.59331 20.7584 9.67592 20.62C9.79983 20.4116 10.0135 20.2391 10.2973 20.1187C10.3565 20.0935 10.5774 20.0163 10.784 19.948C12.8743 19.2526 14.4924 18.1906 15.6363 16.7585C16.4983 15.6786 17.0802 14.3417 17.249 13.0516L17.2598 12.9689L17.5202 12.9491C17.9045 12.9186 17.9727 12.8719 17.9907 12.6401C18.0014 12.4766 17.9655 12.3274 17.838 12.0004C17.671 11.5763 17.4591 11.1792 17.1592 10.7246C16.9814 10.4587 16.8395 10.2736 16.7857 10.2413C16.7569 10.2251 16.7408 10.2341 16.6815 10.3023C16.2864 10.748 15.8249 11.6464 15.6255 12.358C15.5393 12.6652 15.5573 12.809 15.6938 12.8809C15.7674 12.9186 15.9829 12.9617 16.0978 12.9617C16.1517 12.9617 16.22 12.9671 16.2523 12.9725L16.3098 12.9851L16.299 13.0785C16.2828 13.2259 16.1751 13.6338 16.0996 13.8332C15.9398 14.2645 15.6363 14.7945 15.3364 15.1629C15.173 15.3659 14.8192 15.7253 14.6181 15.8942C14.205 16.241 13.7686 16.5231 13.2263 16.7891C12.8061 16.9957 12.4756 17.1287 12.0464 17.267C11.6639 17.3874 11.2257 17.533 11.1844 17.5509C11.1557 17.5635 11.1521 17.5545 11.1521 17.4898C11.1521 17.2976 11.0892 16.9652 10.8989 16.1673C10.7013 15.3318 10.6313 14.9491 10.5954 14.5142C10.5846 14.383 10.5774 12.8665 10.5774 10.6024V6.90625H10.6223C10.6547 6.90625 10.6672 6.89727 10.6672 6.87031C10.6672 6.83438 10.6798 6.83438 12.1865 6.83438H13.7058L13.8189 6.95656C14.2876 7.46149 15.0922 7.26742 15.2897 6.60258C15.428 6.13359 15.1012 5.6125 14.6091 5.52086C14.3074 5.46336 13.9608 5.59633 13.774 5.83711L13.6986 5.93594H12.1829H10.6672V5.89102C10.6672 5.85508 10.6582 5.8461 10.6223 5.8461H10.5774V5.43281V5.01953H10.6223H10.6672V4.3493V3.68086L10.7857 3.57484C11.8237 2.64586 11.5669 0.958595 10.2973 0.363829C10.0566 0.248829 9.84113 0.20211 9.54482 0.194923C9.40654 0.19133 9.25389 0.194923 9.20361 0.20211ZM9.80701 0.94961C10.1339 1.03406 10.4374 1.28383 10.5828 1.5893C10.6888 1.81211 10.7121 1.91453 10.7103 2.15352C10.7049 2.48953 10.5918 2.75906 10.3529 2.99805C10.2129 3.1382 10.0818 3.22266 9.8986 3.29094C9.73698 3.35203 9.37242 3.3682 9.19463 3.32149C8.84265 3.23164 8.55352 2.99805 8.39548 2.67461C8.30389 2.48953 8.27157 2.34578 8.27157 2.12656C8.27157 1.78875 8.3865 1.51562 8.62894 1.27125C8.75106 1.14906 8.80314 1.11133 8.94501 1.04305C9.03839 0.998125 9.15871 0.953203 9.21259 0.942423C9.26647 0.931641 9.32752 0.919064 9.34728 0.91547C9.41552 0.899298 9.69028 0.92086 9.80701 0.94961Z" fill="white"/>
</svg>
