<svg width="226" height="91" viewBox="0 0 226 91" fill="none" xmlns="http://www.w3.org/2000/svg">
<line x1="4.00024" y1="90" x2="226" y2="90" stroke="#121212" stroke-width="2"/>
<path d="M76.9589 10.2102V9.34091L80.7941 3.27273H81.4248V4.61932H80.9986L78.1009 9.20455V9.27273H83.2657V10.2102H76.9589ZM81.0668 12V9.94602V9.54119V3.27273H82.0725V12H81.0668ZM85.2025 12.0682C84.9923 12.0682 84.8119 11.9929 84.6613 11.8423C84.5107 11.6918 84.4354 11.5114 84.4354 11.3011C84.4354 11.0909 84.5107 10.9105 84.6613 10.7599C84.8119 10.6094 84.9923 10.5341 85.2025 10.5341C85.4127 10.5341 85.5931 10.6094 85.7437 10.7599C85.8942 10.9105 85.9695 11.0909 85.9695 11.3011C85.9695 11.4403 85.934 11.5682 85.863 11.6847C85.7948 11.8011 85.7025 11.8949 85.586 11.9659C85.4724 12.0341 85.3445 12.0682 85.2025 12.0682ZM89.7824 3.27273V12H88.7256V4.38068H88.6744L86.5437 5.79545V4.72159L88.7256 3.27273H89.7824ZM95.1389 12.1193C94.4969 12.1193 93.95 11.9446 93.4983 11.5952C93.0466 11.2429 92.7014 10.733 92.4628 10.0653C92.2241 9.39489 92.1048 8.58523 92.1048 7.63636C92.1048 6.69318 92.2241 5.88778 92.4628 5.22017C92.7043 4.54972 93.0508 4.03835 93.5026 3.68608C93.9571 3.33097 94.5026 3.15341 95.1389 3.15341C95.7753 3.15341 96.3193 3.33097 96.771 3.68608C97.2256 4.03835 97.5722 4.54972 97.8108 5.22017C98.0523 5.88778 98.173 6.69318 98.173 7.63636C98.173 8.58523 98.0537 9.39489 97.8151 10.0653C97.5764 10.733 97.2312 11.2429 96.7795 11.5952C96.3278 11.9446 95.781 12.1193 95.1389 12.1193ZM95.1389 11.1818C95.7753 11.1818 96.2696 10.875 96.6219 10.2614C96.9741 9.64773 97.1503 8.77273 97.1503 7.63636C97.1503 6.88068 97.0693 6.23722 96.9074 5.70597C96.7483 5.17472 96.5182 4.76989 96.217 4.49148C95.9187 4.21307 95.5594 4.07386 95.1389 4.07386C94.5082 4.07386 94.0153 4.38494 93.6602 5.0071C93.3051 5.62642 93.1276 6.50284 93.1276 7.63636C93.1276 8.39205 93.2071 9.03409 93.3662 9.5625C93.5253 10.0909 93.754 10.4929 94.0523 10.7685C94.3534 11.044 94.7156 11.1818 95.1389 11.1818ZM100.238 12.0682C100.027 12.0682 99.847 11.9929 99.6964 11.8423C99.5459 11.6918 99.4706 11.5114 99.4706 11.3011C99.4706 11.0909 99.5459 10.9105 99.6964 10.7599C99.847 10.6094 100.027 10.5341 100.238 10.5341C100.448 10.5341 100.628 10.6094 100.779 10.7599C100.929 10.9105 101.005 11.0909 101.005 11.3011C101.005 11.4403 100.969 11.5682 100.898 11.6847C100.83 11.8011 100.738 11.8949 100.621 11.9659C100.508 12.0341 100.38 12.0682 100.238 12.0682ZM102.792 12V11.233L105.673 8.07955C106.011 7.71023 106.289 7.3892 106.508 7.11648C106.727 6.84091 106.889 6.58239 106.994 6.34091C107.102 6.09659 107.156 5.84091 107.156 5.57386C107.156 5.26705 107.082 5.00142 106.934 4.77699C106.789 4.55256 106.591 4.37926 106.338 4.2571C106.085 4.13494 105.801 4.07386 105.486 4.07386C105.15 4.07386 104.858 4.14347 104.608 4.28267C104.361 4.41903 104.169 4.6108 104.032 4.85795C103.899 5.10511 103.832 5.39489 103.832 5.72727H102.826C102.826 5.21591 102.944 4.76705 103.18 4.38068C103.416 3.99432 103.737 3.69318 104.143 3.47727C104.552 3.26136 105.011 3.15341 105.52 3.15341C106.031 3.15341 106.484 3.26136 106.879 3.47727C107.274 3.69318 107.584 3.98437 107.808 4.35085C108.032 4.71733 108.145 5.125 108.145 5.57386C108.145 5.89489 108.086 6.20881 107.97 6.51562C107.856 6.8196 107.657 7.15909 107.373 7.53409C107.092 7.90625 106.701 8.3608 106.201 8.89773L104.241 10.9943V11.0625H108.298V12H102.792ZM110.058 12V11.233L112.939 8.07955C113.277 7.71023 113.555 7.3892 113.774 7.11648C113.993 6.84091 114.155 6.58239 114.26 6.34091C114.368 6.09659 114.422 5.84091 114.422 5.57386C114.422 5.26705 114.348 5.00142 114.2 4.77699C114.055 4.55256 113.856 4.37926 113.603 4.2571C113.351 4.13494 113.066 4.07386 112.751 4.07386C112.416 4.07386 112.123 4.14347 111.873 4.28267C111.626 4.41903 111.434 4.6108 111.298 4.85795C111.164 5.10511 111.098 5.39489 111.098 5.72727H110.092C110.092 5.21591 110.21 4.76705 110.446 4.38068C110.682 3.99432 111.003 3.69318 111.409 3.47727C111.818 3.26136 112.277 3.15341 112.785 3.15341C113.297 3.15341 113.75 3.26136 114.145 3.47727C114.539 3.69318 114.849 3.98437 115.074 4.35085C115.298 4.71733 115.41 5.125 115.41 5.57386C115.41 5.89489 115.352 6.20881 115.236 6.51562C115.122 6.8196 114.923 7.15909 114.639 7.53409C114.358 7.90625 113.967 8.3608 113.467 8.89773L111.507 10.9943V11.0625H115.564V12H110.058ZM137.574 12V11.233L140.454 8.07955C140.792 7.71023 141.071 7.3892 141.289 7.11648C141.508 6.84091 141.67 6.58239 141.775 6.34091C141.883 6.09659 141.937 5.84091 141.937 5.57386C141.937 5.26705 141.863 5.00142 141.716 4.77699C141.571 4.55256 141.372 4.37926 141.119 4.2571C140.866 4.13494 140.582 4.07386 140.267 4.07386C139.932 4.07386 139.639 4.14347 139.389 4.28267C139.142 4.41903 138.95 4.6108 138.814 4.85795C138.68 5.10511 138.613 5.39489 138.613 5.72727H137.608C137.608 5.21591 137.726 4.76705 137.961 4.38068C138.197 3.99432 138.518 3.69318 138.924 3.47727C139.334 3.26136 139.792 3.15341 140.301 3.15341C140.812 3.15341 141.265 3.26136 141.66 3.47727C142.055 3.69318 142.365 3.98437 142.589 4.35085C142.814 4.71733 142.926 5.125 142.926 5.57386C142.926 5.89489 142.868 6.20881 142.751 6.51562C142.637 6.8196 142.439 7.15909 142.155 7.53409C141.873 7.90625 141.483 8.3608 140.983 8.89773L139.022 10.9943V11.0625H143.079V12H137.574ZM147.686 12.1193C147.044 12.1193 146.497 11.9446 146.045 11.5952C145.593 11.2429 145.248 10.733 145.01 10.0653C144.771 9.39489 144.652 8.58523 144.652 7.63636C144.652 6.69318 144.771 5.88778 145.01 5.22017C145.251 4.54972 145.598 4.03835 146.049 3.68608C146.504 3.33097 147.049 3.15341 147.686 3.15341C148.322 3.15341 148.866 3.33097 149.318 3.68608C149.772 4.03835 150.119 4.54972 150.358 5.22017C150.599 5.88778 150.72 6.69318 150.72 7.63636C150.72 8.58523 150.601 9.39489 150.362 10.0653C150.123 10.733 149.778 11.2429 149.326 11.5952C148.875 11.9446 148.328 12.1193 147.686 12.1193ZM147.686 11.1818C148.322 11.1818 148.816 10.875 149.169 10.2614C149.521 9.64773 149.697 8.77273 149.697 7.63636C149.697 6.88068 149.616 6.23722 149.454 5.70597C149.295 5.17472 149.065 4.76989 148.764 4.49148C148.466 4.21307 148.106 4.07386 147.686 4.07386C147.055 4.07386 146.562 4.38494 146.207 5.0071C145.852 5.62642 145.674 6.50284 145.674 7.63636C145.674 8.39205 145.754 9.03409 145.913 9.5625C146.072 10.0909 146.301 10.4929 146.599 10.7685C146.9 11.044 147.262 11.1818 147.686 11.1818ZM153.089 10.8835C152.879 10.8835 152.699 10.8082 152.548 10.6577C152.397 10.5071 152.322 10.3267 152.322 10.1165C152.322 9.90625 152.397 9.72585 152.548 9.57528C152.699 9.42472 152.879 9.34943 153.089 9.34943C153.299 9.34943 153.48 9.42472 153.63 9.57528C153.781 9.72585 153.856 9.90625 153.856 10.1165C153.856 10.2557 153.821 10.3835 153.75 10.5C153.682 10.6165 153.589 10.7102 153.473 10.7812C153.359 10.8494 153.231 10.8835 153.089 10.8835ZM153.089 6.46875C152.879 6.46875 152.699 6.39347 152.548 6.2429C152.397 6.09233 152.322 5.91193 152.322 5.7017C152.322 5.49148 152.397 5.31108 152.548 5.16051C152.699 5.00994 152.879 4.93466 153.089 4.93466C153.299 4.93466 153.48 5.00994 153.63 5.16051C153.781 5.31108 153.856 5.49148 153.856 5.7017C153.856 5.84091 153.821 5.96875 153.75 6.08523C153.682 6.2017 153.589 6.29545 153.473 6.36648C153.359 6.43466 153.231 6.46875 153.089 6.46875ZM158.49 12.1193C157.848 12.1193 157.302 11.9446 156.85 11.5952C156.398 11.2429 156.053 10.733 155.814 10.0653C155.576 9.39489 155.456 8.58523 155.456 7.63636C155.456 6.69318 155.576 5.88778 155.814 5.22017C156.056 4.54972 156.402 4.03835 156.854 3.68608C157.309 3.33097 157.854 3.15341 158.49 3.15341C159.127 3.15341 159.671 3.33097 160.123 3.68608C160.577 4.03835 160.924 4.54972 161.162 5.22017C161.404 5.88778 161.525 6.69318 161.525 7.63636C161.525 8.58523 161.405 9.39489 161.167 10.0653C160.928 10.733 160.583 11.2429 160.131 11.5952C159.679 11.9446 159.133 12.1193 158.49 12.1193ZM158.49 11.1818C159.127 11.1818 159.621 10.875 159.973 10.2614C160.326 9.64773 160.502 8.77273 160.502 7.63636C160.502 6.88068 160.421 6.23722 160.259 5.70597C160.1 5.17472 159.87 4.76989 159.569 4.49148C159.27 4.21307 158.911 4.07386 158.49 4.07386C157.86 4.07386 157.367 4.38494 157.012 5.0071C156.657 5.62642 156.479 6.50284 156.479 7.63636C156.479 8.39205 156.559 9.03409 156.718 9.5625C156.877 10.0909 157.106 10.4929 157.404 10.7685C157.705 11.044 158.067 11.1818 158.49 11.1818ZM165.99 12.1193C165.348 12.1193 164.802 11.9446 164.35 11.5952C163.898 11.2429 163.553 10.733 163.314 10.0653C163.076 9.39489 162.956 8.58523 162.956 7.63636C162.956 6.69318 163.076 5.88778 163.314 5.22017C163.556 4.54972 163.902 4.03835 164.354 3.68608C164.809 3.33097 165.354 3.15341 165.99 3.15341C166.627 3.15341 167.171 3.33097 167.623 3.68608C168.077 4.03835 168.424 4.54972 168.662 5.22017C168.904 5.88778 169.025 6.69318 169.025 7.63636C169.025 8.58523 168.905 9.39489 168.667 10.0653C168.428 10.733 168.083 11.2429 167.631 11.5952C167.179 11.9446 166.633 12.1193 165.99 12.1193ZM165.99 11.1818C166.627 11.1818 167.121 10.875 167.473 10.2614C167.826 9.64773 168.002 8.77273 168.002 7.63636C168.002 6.88068 167.921 6.23722 167.759 5.70597C167.6 5.17472 167.37 4.76989 167.069 4.49148C166.77 4.21307 166.411 4.07386 165.99 4.07386C165.36 4.07386 164.867 4.38494 164.512 5.0071C164.157 5.62642 163.979 6.50284 163.979 7.63636C163.979 8.39205 164.059 9.03409 164.218 9.5625C164.377 10.0909 164.606 10.4929 164.904 10.7685C165.205 11.044 165.567 11.1818 165.99 11.1818Z" fill="black"/>
<path d="M105.264 70V61.2727H108.315C108.923 61.2727 109.425 61.3778 109.819 61.5881C110.214 61.7955 110.508 62.0753 110.702 62.4276C110.895 62.777 110.991 63.1648 110.991 63.5909C110.991 63.9659 110.925 64.2756 110.791 64.5199C110.66 64.7642 110.487 64.9574 110.271 65.0994C110.058 65.2415 109.827 65.3466 109.577 65.4148V65.5C109.844 65.517 110.112 65.6108 110.382 65.7812C110.652 65.9517 110.878 66.196 111.06 66.5142C111.241 66.8324 111.332 67.2216 111.332 67.6818C111.332 68.1193 111.233 68.5128 111.034 68.8622C110.835 69.2116 110.521 69.4886 110.092 69.6932C109.663 69.8977 109.105 70 108.418 70H105.264ZM106.321 69.0625H108.418C109.108 69.0625 109.598 68.929 109.888 68.6619C110.18 68.392 110.327 68.0653 110.327 67.6818C110.327 67.3864 110.251 67.1136 110.101 66.8636C109.95 66.6108 109.736 66.4091 109.457 66.2585C109.179 66.1051 108.849 66.0284 108.469 66.0284H106.321V69.0625ZM106.321 65.108H108.281C108.599 65.108 108.886 65.0455 109.142 64.9205C109.4 64.7955 109.605 64.6193 109.756 64.392C109.909 64.1648 109.986 63.8977 109.986 63.5909C109.986 63.2074 109.852 62.8821 109.585 62.6151C109.318 62.3452 108.895 62.2102 108.315 62.2102H106.321V65.108ZM120.432 65.6364C120.432 66.5568 120.266 67.3523 119.934 68.0227C119.601 68.6932 119.145 69.2102 118.566 69.5739C117.986 69.9375 117.324 70.1193 116.58 70.1193C115.836 70.1193 115.174 69.9375 114.594 69.5739C114.015 69.2102 113.559 68.6932 113.226 68.0227C112.894 67.3523 112.728 66.5568 112.728 65.6364C112.728 64.7159 112.894 63.9205 113.226 63.25C113.559 62.5795 114.015 62.0625 114.594 61.6989C115.174 61.3352 115.836 61.1534 116.58 61.1534C117.324 61.1534 117.986 61.3352 118.566 61.6989C119.145 62.0625 119.601 62.5795 119.934 63.25C120.266 63.9205 120.432 64.7159 120.432 65.6364ZM119.41 65.6364C119.41 64.8807 119.283 64.2429 119.03 63.723C118.78 63.2031 118.441 62.8097 118.012 62.5426C117.586 62.2756 117.109 62.142 116.58 62.142C116.052 62.142 115.573 62.2756 115.144 62.5426C114.718 62.8097 114.378 63.2031 114.126 63.723C113.876 64.2429 113.751 64.8807 113.751 65.6364C113.751 66.392 113.876 67.0298 114.126 67.5497C114.378 68.0696 114.718 68.4631 115.144 68.7301C115.573 68.9972 116.052 69.1307 116.58 69.1307C117.109 69.1307 117.586 68.9972 118.012 68.7301C118.441 68.4631 118.78 68.0696 119.03 67.5497C119.283 67.0298 119.41 66.392 119.41 65.6364ZM125.005 70.1193C124.442 70.1193 123.941 70.0227 123.501 69.8295C123.063 69.6364 122.715 69.3679 122.457 69.0241C122.201 68.6776 122.062 68.2756 122.039 67.8182H123.113C123.136 68.0994 123.232 68.3423 123.403 68.5469C123.573 68.7486 123.796 68.9048 124.072 69.0156C124.347 69.1264 124.653 69.1818 124.988 69.1818C125.363 69.1818 125.695 69.1165 125.985 68.9858C126.275 68.8551 126.502 68.6733 126.667 68.4403C126.832 68.2074 126.914 67.9375 126.914 67.6307C126.914 67.3097 126.834 67.027 126.675 66.7827C126.516 66.5355 126.283 66.3423 125.976 66.2031C125.67 66.0639 125.295 65.9943 124.851 65.9943H124.153V65.0568H124.851C125.198 65.0568 125.502 64.9943 125.763 64.8693C126.028 64.7443 126.234 64.5682 126.381 64.3409C126.532 64.1136 126.607 63.8466 126.607 63.5398C126.607 63.2443 126.542 62.9872 126.411 62.7685C126.28 62.5497 126.096 62.3793 125.857 62.2571C125.621 62.1349 125.343 62.0739 125.022 62.0739C124.721 62.0739 124.437 62.1293 124.17 62.2401C123.905 62.348 123.69 62.5057 123.522 62.7131C123.354 62.9176 123.263 63.1648 123.249 63.4545H122.226C122.243 62.9972 122.381 62.5966 122.64 62.2528C122.898 61.9062 123.236 61.6364 123.654 61.4432C124.074 61.25 124.536 61.1534 125.039 61.1534C125.579 61.1534 126.042 61.2628 126.428 61.4815C126.815 61.6974 127.111 61.983 127.319 62.3381C127.526 62.6932 127.63 63.0767 127.63 63.4886C127.63 63.9801 127.501 64.3991 127.242 64.7457C126.986 65.0923 126.638 65.3324 126.198 65.4659V65.5341C126.749 65.625 127.18 65.8594 127.489 66.2372C127.799 66.6122 127.954 67.0767 127.954 67.6307C127.954 68.1051 127.824 68.5312 127.566 68.9091C127.31 69.2841 126.961 69.5795 126.518 69.7955C126.074 70.0114 125.57 70.1193 125.005 70.1193Z" fill="black"/>
<path d="M116.297 44.9999L112.023 56.9999H108.898L104.625 44.9999H107.64L110.398 53.914H110.523L113.289 44.9999H116.297ZM127.738 48.1718L125.16 48.4531C125.087 48.1926 124.959 47.9479 124.777 47.7187C124.6 47.4895 124.36 47.3046 124.058 47.164C123.756 47.0234 123.386 46.9531 122.949 46.9531C122.36 46.9531 121.866 47.0807 121.465 47.3359C121.069 47.5911 120.873 47.9218 120.879 48.3281C120.873 48.677 121.001 48.9609 121.261 49.1796C121.527 49.3984 121.965 49.5781 122.574 49.7187L124.621 50.1562C125.756 50.401 126.6 50.789 127.152 51.3203C127.709 51.8515 127.991 52.5468 127.996 53.4062C127.991 54.1614 127.769 54.8281 127.332 55.4062C126.899 55.9791 126.298 56.427 125.527 56.7499C124.756 57.0729 123.871 57.2343 122.871 57.2343C121.402 57.2343 120.22 56.927 119.324 56.3124C118.428 55.6926 117.894 54.8307 117.722 53.7265L120.48 53.4609C120.605 54.0025 120.871 54.4114 121.277 54.6874C121.683 54.9635 122.212 55.1015 122.863 55.1015C123.535 55.1015 124.074 54.9635 124.48 54.6874C124.892 54.4114 125.097 54.0703 125.097 53.664C125.097 53.3203 124.965 53.0364 124.699 52.8124C124.439 52.5885 124.032 52.4166 123.48 52.2968L121.433 51.8671C120.282 51.6275 119.431 51.2239 118.879 50.6562C118.327 50.0833 118.053 49.3593 118.058 48.4843C118.053 47.7447 118.254 47.1041 118.66 46.5624C119.071 46.0156 119.642 45.5937 120.371 45.2968C121.105 44.9947 121.952 44.8437 122.91 44.8437C124.316 44.8437 125.423 45.1432 126.23 45.7421C127.043 46.3411 127.545 47.151 127.738 48.1718Z" fill="#121212"/>
<rect x="186" y="33" width="40" height="38" rx="6" fill="#D9D9D9"/>
<path d="M206.03 37L205.579 37.6364C205.579 37.6364 204.697 38.8813 203.811 40.3834C203.368 41.1345 202.922 41.9497 202.581 42.7226C202.24 43.4954 201.987 44.2074 201.987 44.8758C201.987 47.1669 203.803 49.0367 206.03 49.0367C208.256 49.0367 210.073 47.1669 210.073 44.8758C210.073 44.2075 209.82 43.4954 209.478 42.7227C209.137 41.9499 208.693 41.1345 208.251 40.3834C207.365 38.8813 206.48 37.6365 206.48 37.6365L206.03 37.0001L206.03 37ZM206.03 39.0121C206.319 39.4328 206.665 39.9078 207.297 40.9795C207.725 41.7062 208.152 42.4906 208.464 43.1975C208.776 43.9046 208.958 44.5536 208.958 44.8758C208.958 45.737 208.611 46.5103 208.053 47.0582C208.158 46.7911 208.212 46.5056 208.212 46.2174C208.212 44.9776 206.031 41.8981 206.031 41.8981C206.031 41.8981 203.849 44.9776 203.849 46.2174C203.849 46.5157 203.906 46.8 204.009 47.0604C203.449 46.5124 203.101 45.7382 203.101 44.8758C203.101 44.5537 203.286 43.9046 203.598 43.1976C203.91 42.4907 204.336 41.7062 204.765 40.9796C205.397 39.908 205.741 39.433 206.03 39.0122L206.03 39.0121ZM194.227 40.8451L194.031 41.6046C194.031 41.6046 193.644 43.0945 193.345 44.8243C193.196 45.6892 193.068 46.6161 193.021 47.4637C192.974 48.3113 192.989 49.0677 193.223 49.6908C194.028 51.8272 196.377 52.8959 198.453 52.0682C200.529 51.2404 201.567 48.8201 200.763 46.6839C200.529 46.0607 200.042 45.4941 199.452 44.9004C198.863 44.3068 198.161 43.7108 197.484 43.1752C196.131 42.1041 194.871 41.2708 194.871 41.2708L194.227 40.845L194.227 40.8451ZM217.772 40.8451L217.127 41.2708C217.127 41.2708 215.868 42.104 214.514 43.1752C213.838 43.7109 213.136 44.3068 212.546 44.9005C211.957 45.4942 211.472 46.0608 211.238 46.684C210.433 48.8202 211.47 51.2404 213.545 52.0683C215.621 52.896 217.973 51.8272 218.777 49.6908C219.012 49.0678 219.025 48.3113 218.978 47.4638C218.931 46.6162 218.803 45.6893 218.653 44.8243C218.355 43.0945 217.967 41.6047 217.967 41.6047L217.772 40.845L217.772 40.8451ZM217.066 42.7204C217.188 43.2199 217.343 43.7913 217.556 45.026C217.7 45.863 217.822 46.7535 217.865 47.5288C217.908 48.3041 217.85 48.976 217.737 49.2764C217.435 50.0791 216.84 50.6708 216.128 50.9743C216.319 50.7646 216.469 50.5189 216.57 50.2507C217.005 49.0946 216.052 45.4121 216.052 45.4121C216.052 45.4121 212.937 47.4724 212.501 48.6284C212.4 48.8968 212.35 49.1829 212.354 49.4709C212.026 48.7523 211.974 47.9019 212.276 47.0985C212.389 46.7981 212.786 46.2638 213.326 45.7207C213.865 45.1774 214.539 44.6033 215.194 44.085C216.16 43.3198 216.65 43.0046 217.066 42.7204H217.066ZM194.935 42.7226C195.352 43.0075 195.84 43.3208 196.805 44.085C197.46 44.6033 198.134 45.1775 198.673 45.7207C199.212 46.2638 199.609 46.7981 199.722 47.0985C200.025 47.9015 199.973 48.7517 199.645 49.4701C199.649 49.1904 199.602 48.9053 199.497 48.6285C199.062 47.4725 195.947 45.4122 195.947 45.4122C195.947 45.4122 194.994 49.0947 195.429 50.2507C195.53 50.519 195.68 50.7647 195.872 50.9745C195.159 50.6711 194.564 50.0793 194.262 49.2764C194.149 48.9759 194.091 48.304 194.134 47.5287C194.177 46.7534 194.3 45.8629 194.445 45.0259C194.658 43.7923 194.813 43.2227 194.935 42.7226L194.935 42.7226ZM205.927 50.2356C203.323 50.2356 201.197 51.9834 200.717 54.3291C199.352 54.8566 198.133 55.5402 197.275 56.4331C196.35 57.3961 195.777 58.5717 195.777 59.841C195.777 61.7351 197.028 63.3755 198.886 64.5061C200.745 65.6367 203.251 66.3096 206.004 66.3096C208.757 66.3096 211.252 65.6375 213.101 64.5061C214.951 63.3748 216.193 61.7327 216.193 59.8411C216.193 58.5602 215.612 57.3742 214.673 56.4042C213.802 55.5035 212.562 54.8158 211.172 54.2911C210.673 51.9588 208.517 50.2356 205.927 50.2356L205.927 50.2356ZM205.927 51.3826C208.14 51.3826 209.902 52.8829 210.173 54.7549L210.223 55.1021L210.548 55.2145C211.946 55.699 213.1 56.4035 213.883 57.213C214.667 58.0225 215.078 58.9134 215.078 59.8414C215.078 60.7578 214.671 61.6446 213.914 62.4305C214.132 61.9636 214.249 61.4692 214.249 60.957C214.249 59.407 212.364 56.985 208.91 56.0618C208.92 55.9654 208.925 55.8677 208.925 55.7688C208.925 54.1989 207.609 52.926 205.984 52.926C204.36 52.926 203.043 54.1989 203.043 55.7688C203.043 55.8635 203.048 55.9569 203.057 56.0492C199.584 56.9654 197.72 59.4137 197.72 60.9571H197.72C197.72 61.4635 197.835 61.9524 198.05 62.4146C197.297 61.6323 196.892 60.7513 196.892 59.8415C196.892 58.9235 197.296 58.0428 198.068 57.24C198.839 56.4372 199.975 55.7362 201.351 55.2482L201.673 55.1335L201.721 54.784C201.979 52.8904 203.704 51.3826 205.927 51.3826H205.927Z" fill="#AD029C"/>
<path d="M50.4738 57.3081C50.7668 57.4426 51.7862 57.9599 52.1871 58.176C52.3176 58.2464 52.5103 58.3519 52.7222 58.4678C53.1785 58.7175 53.7241 59.0161 53.9314 59.1191C53.9991 59.1527 54.0839 59.1976 54.1801 59.2501C53.8808 58.897 53.6395 58.6216 53.5443 58.5291C53.3631 58.3529 52.9593 57.9536 52.5668 57.5654L52.553 57.5519C52.163 57.1661 51.7874 56.7947 51.6448 56.6564C51.3657 56.3858 50.0848 55.2809 49.4786 54.7603C49.0759 54.4145 48.3255 53.8242 47.7588 53.3784C47.4916 53.1682 47.2653 52.9901 47.1354 52.8849L47.4451 52.4962L47.1354 52.8849C46.8509 52.6544 46.0194 52.0688 45.4275 51.652C45.2589 51.5333 45.1097 51.4282 44.9982 51.349C44.8076 51.2136 44.5126 50.998 44.2183 50.7828C44.1321 50.7198 44.046 50.6569 43.9626 50.596C43.7769 50.4604 43.604 50.3348 43.4699 50.2389C43.3574 50.1585 43.2934 50.1147 43.2692 50.0982C43.2606 50.0922 43.257 50.0898 43.258 50.0903C43.2156 50.0676 43.0677 49.9852 42.9955 49.801C42.9528 49.6922 42.9461 49.5693 42.9828 49.4525C43.0166 49.3449 43.0776 49.2722 43.123 49.2293C43.2068 49.1502 43.2989 49.1148 43.3429 49.0997C43.3973 49.081 43.4519 49.0693 43.5003 49.0615C43.6879 49.0313 43.9446 49.0351 44.2347 49.0778L44.176 49.5217L44.2347 49.0778C44.2884 49.0857 44.3559 49.0951 44.4348 49.106C45.0643 49.1935 46.4212 49.382 47.3017 49.7259C47.7684 49.9082 48.5356 50.2203 49.2654 50.5358C49.9803 50.845 50.7039 51.1764 51.0527 51.3937C51.2597 51.5227 51.5288 51.67 51.8502 51.8459C51.9883 51.9215 52.1361 52.0024 52.2927 52.0894C52.8006 52.3714 53.3765 52.7045 53.9283 53.0878C54.4535 53.4526 54.8235 53.6958 55.118 53.8862C55.188 53.9315 55.2547 53.9744 55.3189 54.0156C55.521 54.1456 55.6977 54.2591 55.874 54.3804L55.5962 54.793L55.874 54.3804C56.3115 54.6813 57.4524 55.5231 57.5475 55.5933L57.5515 55.5963L57.5652 55.6066L57.5692 55.6097C57.6635 55.6822 58.8586 56.6021 59.4934 57.1408C59.3585 56.9452 59.2161 56.7366 59.0174 56.4185C58.6295 55.7974 57.9673 54.9536 56.7968 53.9063C56.2889 53.4519 56.0901 53.2716 55.932 53.1281C55.7129 52.9294 55.572 52.8016 54.7947 52.1133C54.7952 52.1137 54.7919 52.1108 54.7827 52.1032L54.7485 52.0754C54.7199 52.0524 54.682 52.0223 54.6353 51.9857C54.5421 51.9125 54.4172 51.8155 54.2688 51.7011C53.972 51.4723 53.5835 51.1756 53.1707 50.863C52.3421 50.2355 51.4255 49.5515 50.953 49.2209C49.9893 48.5467 48.5126 47.5456 47.5509 46.9967L47.7927 46.5615L47.5509 46.9966L47.5369 46.9886C46.5355 46.417 44.8136 45.4353 43.8755 45.0517C42.8894 44.6483 40.7681 43.8034 39.9701 43.5434C39.8165 43.4934 39.6787 43.4477 39.5477 43.4042C38.975 43.2142 38.5339 43.0679 37.49 42.7992L37.3866 42.7726L37.4998 42.3049L37.3866 42.7726C36.2293 42.4747 35.5485 42.2999 34.7687 42.171C34.709 42.1623 34.6521 42.1532 34.5984 42.1438L34.5942 42.1432L34.5943 42.1431C34.5938 42.143 34.5933 42.1429 34.5929 42.1429L34.5979 42.1116C34.4216 42.0117 34.3148 41.8105 34.3445 41.599C34.3741 41.3877 34.5312 41.2276 34.7271 41.1852L34.7317 41.152L34.7415 41.1535L34.7415 41.1535C34.7975 41.1621 34.8528 41.1709 34.9077 41.18C35.8012 41.3089 37.6433 41.3829 39.1678 41.183C39.8361 41.0954 40.6431 41.1756 41.3758 41.3006C42.1178 41.4273 42.8255 41.6076 43.3114 41.7438C43.4865 41.7929 43.7093 41.7352 43.8967 41.5487C43.9642 41.4815 44.0366 41.4075 44.1132 41.3292C44.486 40.9481 44.9587 40.4649 45.4568 40.1702L45.4879 40.1518L45.4879 40.1517L45.4937 40.1483C46.0371 39.8265 46.8064 39.3709 48.0581 39.4923C49.2204 39.605 50.6562 39.9705 51.6319 40.3012L51.4783 40.776L51.6319 40.3012C52.1461 40.4755 52.7516 40.775 53.2987 41.0457C53.8695 41.3282 54.3703 41.5759 54.7368 41.6953C55.0923 41.8111 55.6735 41.9046 56.2785 41.9657C56.8766 42.026 57.4493 42.05 57.7692 42.041L57.7899 42.5422L57.7693 42.041C57.8027 42.0401 57.8359 42.0392 57.8688 42.0383C58.5211 42.0204 59.0792 42.0052 59.9143 41.7966C60.1407 41.7401 60.3815 41.6842 60.6226 41.6283L60.6612 41.6194C60.9169 41.5601 61.1731 41.5004 61.4227 41.4376C61.928 41.3104 62.376 41.1773 62.705 41.0256C63.4413 40.6861 64.0318 40.4074 64.8258 39.8387C64.8248 39.8353 64.8235 39.8313 64.8215 39.8266C64.8128 39.8058 64.7979 39.7878 64.7827 39.7768C64.7701 39.7678 64.7585 39.764 64.7433 39.7642C64.3588 39.7703 63.9488 39.7537 63.5594 39.6926C62.1997 39.4792 58.6786 38.4651 55.7128 36.9063C52.7929 35.3716 49.294 33.4194 48.0518 32.6381L48.3121 32.214L48.0518 32.6381C47.5069 32.2954 46.5639 31.9692 45.5065 31.6517C45.1661 31.5496 44.8142 31.4484 44.4674 31.3487C43.7762 31.15 43.1055 30.9573 42.5876 30.774C41.1012 30.248 39.0451 29.8376 37.53 29.8915C37.2047 29.9031 36.7971 29.9142 36.3423 29.9267C35.6515 29.9456 34.8519 29.9675 34.0659 29.9984C33.4213 30.0237 32.8015 30.0546 32.2862 30.0938C31.758 30.1339 31.3773 30.1804 31.1878 30.2286L31.0599 29.7445L31.1878 30.2286C31.0608 30.2609 30.9149 30.297 30.7546 30.3367C30.3023 30.4486 29.7347 30.589 29.1511 30.7533C28.355 30.9774 27.5772 31.2331 27.0656 31.4967C26.8983 31.5829 26.7185 31.6743 26.5304 31.7699C25.4228 32.3328 24.0269 33.0422 23.1939 33.7104C22.6931 34.1121 22.1019 34.6353 21.5032 35.1672C21.472 35.1948 21.4409 35.2225 21.4098 35.2502C20.847 35.7502 20.2819 36.2525 19.8031 36.6429C19.2951 37.0572 18.6549 37.5308 17.969 37.9251C17.2892 38.3158 16.5317 38.648 15.7942 38.7458C15.0155 38.8492 14.1037 38.6156 13.2994 38.2082C12.4902 37.7982 11.7182 37.1763 11.2432 36.4196L11.6639 36.1561L11.2432 36.4196C10.4079 35.089 9.03418 32.5704 8.47378 30.6452C8.3414 30.1905 8.2103 29.7447 8.0878 29.3308C7.9597 28.898 7.43038 28.8693 7.25094 29.2281C6.84211 30.0454 6.47254 30.8603 6.35219 31.3252C6.04141 32.526 5.8065 33.7284 5.72271 34.2352L5.72271 34.2352C5.63727 34.7519 5.51941 35.5005 5.43321 36.3683L4.93702 36.3119L5.43321 36.3683C5.34704 37.2357 5.28682 38.721 5.33982 39.5684C5.39488 40.449 5.53552 42.0807 5.71513 43.0607C5.89888 44.0634 6.22287 45.5964 6.55965 46.8089C6.60581 46.9751 6.65423 47.1513 6.70474 47.3351C7.03335 48.5309 7.45087 50.0503 7.91695 51.2544C8.46867 52.6799 9.20384 54.5074 9.55901 55.2255C9.6368 55.3827 9.74865 55.612 9.88116 55.8837C10.3941 56.9354 11.2167 58.6219 11.572 59.221C11.924 59.8147 12.5261 60.7532 13.0196 61.5224C13.1634 61.7465 13.298 61.9562 13.4144 62.1389C13.6271 62.4724 13.9113 62.8753 14.1688 63.2295C14.3286 63.4492 14.6457 63.4966 14.8687 63.3149C15.5844 62.7314 16.6273 61.8931 17.1634 61.5221C17.2708 61.4478 17.3699 61.3783 17.465 61.3118C18.1245 60.8497 18.5871 60.5256 20.2279 59.6822C22.0732 58.7337 23.3203 58.139 24.048 57.8722C24.7648 57.6094 27.0627 56.9433 28.7311 56.8531C29.2077 56.8273 29.546 56.8015 29.8317 56.7797C30.4823 56.7301 30.8598 56.7013 31.9752 56.7414C33.5826 56.7992 34.9529 56.9833 36.4509 57.4203C37.8989 57.8428 39.823 58.4656 40.8643 58.9631C41.0319 59.0432 41.1927 59.119 41.3492 59.1928C42.1131 59.553 42.7745 59.8648 43.621 60.3868C43.6778 60.4219 43.7362 60.4579 43.7961 60.4947C44.7709 61.0949 46.1321 61.9329 47.2737 62.8798C47.6096 63.1585 47.8483 63.347 48.0532 63.5088C48.5527 63.9033 48.8515 64.1393 49.8683 65.1353C49.8976 65.164 49.9231 65.1839 49.9441 65.1976C49.9368 65.1683 49.9229 65.1298 49.8969 65.0823C49.5911 64.5238 49.3058 64.0169 49.1174 63.7122C49.0466 63.5977 48.9726 63.4775 48.8964 63.3538C48.6614 62.972 48.4064 62.5579 48.1649 62.1799C47.8357 61.6646 47.5632 61.2679 47.4129 61.1059C47.2682 60.95 47.0018 60.6431 46.7071 60.3037C46.6045 60.1855 46.4984 60.0633 46.3929 59.9422C45.9714 59.4585 45.5622 58.9962 45.3539 58.794C45.1251 58.5719 44.5863 58.0434 44.0916 57.5538C43.8442 57.309 43.6068 57.073 43.4242 56.8893C43.258 56.7221 43.1024 56.5641 43.0528 56.5018C42.9451 56.3664 42.8566 56.1789 42.8733 55.9632C42.8911 55.7321 43.0287 55.5319 43.2412 55.4374L43.2412 55.4374C43.2302 55.4423 43.6249 55.1795 44.1282 55.2313M50.4738 57.3081C50.4739 57.3081 50.4739 57.3081 50.4739 57.3081L50.2718 57.7637L50.4738 57.3081ZM50.4738 57.3081C50.3786 57.2644 50.2212 57.1912 50.0145 57.0951C49.9209 57.0516 49.8172 57.0034 49.7046 56.9511C49.3446 56.7839 48.8964 56.5762 48.4048 56.3505C48.3943 56.3457 48.3837 56.3413 48.3729 56.3372C47.9224 56.1668 47.8807 56.1453 47.8558 56.1337C47.7871 56.1019 47.7321 56.0802 47.3462 55.9415L47.3462 55.9415C47.0742 55.8437 47.0286 55.8252 46.982 55.8098C46.9226 55.7901 46.8616 55.7756 46.3287 55.6086L46.1862 56.0871M46.1862 56.0871L46.3286 55.6086C45.4879 55.3453 44.6881 55.2787 44.2891 55.2455C44.2244 55.2401 44.1703 55.2356 44.1282 55.2313M46.1862 56.0871C46.7316 56.258 46.7863 56.2705 46.8393 56.2882C46.8802 56.3018 46.9202 56.3185 47.184 56.4133M46.1862 56.0871L47.184 56.4133M44.1282 55.2313C44.1282 55.2313 44.1282 55.2313 44.1282 55.2313L44.084 55.73L44.1282 55.2313ZM47.184 56.4133C47.5858 56.5578 47.6095 56.5688 47.6542 56.5895C47.6973 56.6095 47.76 56.6386 48.2028 56.8062L47.184 56.4133ZM43.7196 49.2078C43.7217 49.2089 43.7261 49.2112 43.7321 49.2148C43.7274 49.2121 43.7229 49.2096 43.7186 49.2073L43.7196 49.2078Z" fill="white" stroke="#121212" stroke-linejoin="round"/>
<path d="M20.6709 40.9533C20.6709 40.9533 22.4167 39.1216 23.2363 38.5015C24.0559 37.8815 24.8958 37.5244 26.4536 37.5474C28.2162 37.5735 29.0368 38.0601 30.2978 37.3929C30.0225 37.8949 29.0302 38.8981 28.3965 39.4982C27.6195 40.185 26.972 40.811 26.1358 41.2C25.539 41.4777 25.5123 41.2865 24.5218 41.0869C24.0929 41.0005 23.1922 40.7262 22.6373 40.7072C21.7099 40.6756 20.9242 40.8932 20.742 40.9349L20.6709 40.9533Z" fill="#6A4389" style="mix-blend-mode:darken"/>
<path d="M20.6709 40.9533C20.6709 40.9533 22.4167 39.1216 23.2363 38.5015C24.0559 37.8815 24.8958 37.5244 26.4536 37.5474C28.2162 37.5735 29.0368 38.0601 30.2978 37.3929C30.0225 37.8949 29.0302 38.8981 28.3965 39.4982C27.6195 40.185 26.972 40.811 26.1358 41.2C25.539 41.4777 25.5123 41.2865 24.5218 41.0869C24.0929 41.0005 23.1922 40.7262 22.6373 40.7072C21.7099 40.6756 20.9242 40.8932 20.742 40.9349L20.6709 40.9533Z" stroke="#121212"/>
</svg>
