<svg width="226" height="91" viewBox="0 0 226 91" fill="none" xmlns="http://www.w3.org/2000/svg">
<line x1="4" y1="90" x2="226" y2="90" stroke="#121212" stroke-width="2"/>
<path d="M185.91 39.9872L184.738 40.1151C184.705 39.9967 184.647 39.8854 184.564 39.7812C184.484 39.6771 184.375 39.593 184.237 39.5291C184.1 39.4652 183.932 39.4332 183.733 39.4332C183.466 39.4332 183.241 39.4912 183.059 39.6072C182.879 39.7232 182.79 39.8736 182.792 40.0582C182.79 40.2169 182.848 40.3459 182.966 40.4453C183.087 40.5447 183.286 40.6264 183.563 40.6903L184.493 40.8892C185.009 41.0005 185.393 41.1768 185.644 41.4183C185.897 41.6598 186.025 41.9759 186.027 42.3665C186.025 42.7098 185.924 43.0128 185.725 43.2756C185.529 43.536 185.255 43.7396 184.905 43.8864C184.555 44.0331 184.152 44.1065 183.698 44.1065C183.03 44.1065 182.493 43.9669 182.085 43.6875C181.678 43.4058 181.436 43.014 181.358 42.5121L182.611 42.3913C182.668 42.6375 182.789 42.8234 182.973 42.9489C183.158 43.0743 183.398 43.1371 183.694 43.1371C184 43.1371 184.245 43.0743 184.429 42.9489C184.616 42.8234 184.71 42.6683 184.71 42.4837C184.71 42.3274 184.649 42.1984 184.529 42.0966C184.41 41.9948 184.226 41.9167 183.975 41.8622L183.044 41.6669C182.521 41.558 182.134 41.3745 181.883 41.1165C181.632 40.8561 181.508 40.527 181.51 40.1293C181.508 39.7931 181.599 39.5019 181.784 39.2557C181.971 39.0071 182.23 38.8153 182.561 38.6804C182.895 38.5431 183.28 38.4744 183.715 38.4744C184.355 38.4744 184.858 38.6106 185.225 38.8828C185.594 39.1551 185.822 39.5232 185.91 39.9872ZM188.373 40.804V44H187.087V36.7273H188.344V39.4723H188.408C188.536 39.1645 188.734 38.9219 189.001 38.7443C189.271 38.5644 189.614 38.4744 190.031 38.4744C190.41 38.4744 190.74 38.5537 191.022 38.7124C191.304 38.871 191.521 39.103 191.675 39.4084C191.832 39.7138 191.91 40.0866 191.91 40.527V44H190.624V40.7259C190.624 40.3589 190.53 40.0736 190.34 39.87C190.153 39.6641 189.89 39.5611 189.552 39.5611C189.324 39.5611 189.121 39.6108 188.941 39.7102C188.763 39.8073 188.624 39.9482 188.522 40.1328C188.422 40.3175 188.373 40.5412 188.373 40.804ZM194.79 44.1101C194.444 44.1101 194.133 44.0485 193.856 43.9254C193.581 43.8 193.363 43.6153 193.202 43.3714C193.044 43.1276 192.964 42.8269 192.964 42.4695C192.964 42.1617 193.021 41.9072 193.135 41.706C193.248 41.5047 193.404 41.3438 193.6 41.223C193.797 41.1023 194.018 41.0111 194.264 40.9496C194.513 40.8857 194.77 40.8395 195.035 40.8111C195.354 40.7779 195.614 40.7483 195.812 40.7223C196.011 40.6939 196.156 40.6513 196.246 40.5945C196.338 40.5353 196.384 40.4441 196.384 40.321V40.2997C196.384 40.0322 196.305 39.825 196.146 39.6783C195.988 39.5315 195.759 39.4581 195.461 39.4581C195.146 39.4581 194.896 39.5268 194.712 39.6641C194.529 39.8014 194.406 39.9635 194.342 40.1506L193.142 39.9801C193.237 39.6487 193.393 39.3717 193.611 39.1491C193.829 38.9242 194.095 38.7562 194.41 38.6449C194.725 38.5312 195.073 38.4744 195.454 38.4744C195.717 38.4744 195.978 38.5052 196.239 38.5668C196.499 38.6283 196.737 38.7301 196.952 38.8722C197.168 39.0118 197.341 39.2024 197.471 39.4439C197.603 39.6854 197.67 39.9872 197.67 40.3494V44H196.434V43.2507H196.391C196.313 43.4022 196.203 43.5443 196.061 43.6768C195.921 43.8071 195.745 43.9124 195.532 43.9929C195.321 44.071 195.074 44.1101 194.79 44.1101ZM195.123 43.1655C195.382 43.1655 195.605 43.1146 195.795 43.0128C195.984 42.9086 196.13 42.7713 196.231 42.6009C196.336 42.4304 196.388 42.2446 196.388 42.0433V41.4006C196.347 41.4337 196.279 41.4645 196.182 41.4929C196.087 41.5213 195.98 41.5462 195.862 41.5675C195.744 41.5888 195.627 41.6077 195.511 41.6243C195.395 41.6409 195.294 41.6551 195.209 41.6669C195.017 41.6929 194.845 41.7356 194.694 41.7947C194.542 41.8539 194.423 41.9368 194.335 42.0433C194.248 42.1475 194.204 42.2824 194.204 42.4482C194.204 42.6849 194.29 42.8636 194.463 42.9844C194.636 43.1051 194.856 43.1655 195.123 43.1655ZM200.248 40.804V44H198.962V38.5455H200.191V39.4723H200.255C200.38 39.1669 200.58 38.9242 200.855 38.7443C201.132 38.5644 201.474 38.4744 201.881 38.4744C202.258 38.4744 202.586 38.5549 202.865 38.7159C203.147 38.8769 203.364 39.1101 203.518 39.4155C203.675 39.7209 203.752 40.0914 203.749 40.527V44H202.464V40.7259C202.464 40.3613 202.369 40.076 202.18 39.87C201.993 39.6641 201.733 39.5611 201.402 39.5611C201.177 39.5611 200.977 39.6108 200.802 39.7102C200.629 39.8073 200.493 39.9482 200.393 40.1328C200.296 40.3175 200.248 40.5412 200.248 40.804ZM209.367 39.9872L208.195 40.1151C208.162 39.9967 208.104 39.8854 208.021 39.7812C207.941 39.6771 207.832 39.593 207.695 39.5291C207.557 39.4652 207.389 39.4332 207.19 39.4332C206.923 39.4332 206.698 39.4912 206.516 39.6072C206.336 39.7232 206.247 39.8736 206.249 40.0582C206.247 40.2169 206.305 40.3459 206.423 40.4453C206.544 40.5447 206.743 40.6264 207.02 40.6903L207.95 40.8892C208.466 41.0005 208.85 41.1768 209.101 41.4183C209.354 41.6598 209.482 41.9759 209.484 42.3665C209.482 42.7098 209.381 43.0128 209.182 43.2756C208.986 43.536 208.713 43.7396 208.362 43.8864C208.012 44.0331 207.609 44.1065 207.155 44.1065C206.487 44.1065 205.95 43.9669 205.543 43.6875C205.135 43.4058 204.893 43.014 204.815 42.5121L206.068 42.3913C206.125 42.6375 206.246 42.8234 206.43 42.9489C206.615 43.0743 206.855 43.1371 207.151 43.1371C207.457 43.1371 207.702 43.0743 207.886 42.9489C208.073 42.8234 208.167 42.6683 208.167 42.4837C208.167 42.3274 208.106 42.1984 207.986 42.0966C207.867 41.9948 207.683 41.9167 207.432 41.8622L206.501 41.6669C205.978 41.558 205.591 41.3745 205.34 41.1165C205.089 40.8561 204.965 40.527 204.967 40.1293C204.965 39.7931 205.056 39.5019 205.241 39.2557C205.428 39.0071 205.687 38.8153 206.018 38.6804C206.352 38.5431 206.737 38.4744 207.172 38.4744C207.812 38.4744 208.315 38.6106 208.682 38.8828C209.051 39.1551 209.28 39.5232 209.367 39.9872ZM212.924 44.1065C212.391 44.1065 211.929 43.9893 211.539 43.755C211.148 43.5206 210.845 43.1927 210.63 42.7713C210.416 42.3499 210.31 41.8575 210.31 41.294C210.31 40.7306 210.416 40.237 210.63 39.8132C210.845 39.3894 211.148 39.0604 211.539 38.826C211.929 38.5916 212.391 38.4744 212.924 38.4744C213.456 38.4744 213.918 38.5916 214.309 38.826C214.699 39.0604 215.001 39.3894 215.214 39.8132C215.429 40.237 215.537 40.7306 215.537 41.294C215.537 41.8575 215.429 42.3499 215.214 42.7713C215.001 43.1927 214.699 43.5206 214.309 43.755C213.918 43.9893 213.456 44.1065 212.924 44.1065ZM212.931 43.0767C213.219 43.0767 213.461 42.9974 213.655 42.8388C213.849 42.6778 213.994 42.4624 214.088 42.1925C214.185 41.9226 214.234 41.6219 214.234 41.2905C214.234 40.9567 214.185 40.6548 214.088 40.3849C213.994 40.1127 213.849 39.8961 213.655 39.7351C213.461 39.5741 213.219 39.4936 212.931 39.4936C212.635 39.4936 212.389 39.5741 212.192 39.7351C211.998 39.8961 211.852 40.1127 211.755 40.3849C211.661 40.6548 211.613 40.9567 211.613 41.2905C211.613 41.6219 211.661 41.9226 211.755 42.1925C211.852 42.4624 211.998 42.6778 212.192 42.8388C212.389 42.9974 212.635 43.0767 212.931 43.0767ZM217.914 40.804V44H216.628V38.5455H217.857V39.4723H217.921C218.046 39.1669 218.246 38.9242 218.521 38.7443C218.798 38.5644 219.14 38.4744 219.547 38.4744C219.924 38.4744 220.252 38.5549 220.531 38.7159C220.813 38.8769 221.031 39.1101 221.184 39.4155C221.341 39.7209 221.418 40.0914 221.415 40.527V44H220.13V40.7259C220.13 40.3613 220.035 40.076 219.846 39.87C219.659 39.6641 219.399 39.5611 219.068 39.5611C218.843 39.5611 218.643 39.6108 218.468 39.7102C218.295 39.8073 218.159 39.9482 218.059 40.1328C217.962 40.3175 217.914 40.5412 217.914 40.804ZM194.123 58.0455V50.5455H195.388V51.4474H195.462C195.528 51.3149 195.622 51.174 195.743 51.0249C195.863 50.8733 196.027 50.7443 196.233 50.6378C196.439 50.5289 196.702 50.4744 197.021 50.4744C197.443 50.4744 197.823 50.5821 198.161 50.7976C198.502 51.0107 198.772 51.3267 198.971 51.7457C199.172 52.1624 199.273 52.6738 199.273 53.2798C199.273 53.8788 199.174 54.3878 198.978 54.8068C198.781 55.2259 198.514 55.5455 198.175 55.7656C197.837 55.9858 197.453 56.0959 197.025 56.0959C196.712 56.0959 196.453 56.0438 196.247 55.9396C196.041 55.8355 195.875 55.71 195.75 55.5632C195.627 55.4141 195.531 55.2732 195.462 55.1406H195.409V58.0455H194.123ZM195.384 53.2727C195.384 53.6255 195.434 53.9344 195.533 54.1996C195.635 54.4647 195.781 54.6719 195.97 54.821C196.162 54.9678 196.394 55.0412 196.666 55.0412C196.95 55.0412 197.188 54.9654 197.38 54.8139C197.572 54.66 197.716 54.4505 197.813 54.1854C197.912 53.9179 197.962 53.6136 197.962 53.2727C197.962 52.9342 197.914 52.6335 197.817 52.3707C197.72 52.108 197.575 51.902 197.383 51.7528C197.192 51.6037 196.952 51.5291 196.666 51.5291C196.391 51.5291 196.158 51.6013 195.966 51.7457C195.775 51.8902 195.629 52.0926 195.53 52.353C195.433 52.6134 195.384 52.92 195.384 53.2727ZM200.373 56V50.5455H201.62V51.4545H201.677C201.776 51.1397 201.947 50.897 202.188 50.7266C202.432 50.5537 202.71 50.4673 203.023 50.4673C203.094 50.4673 203.173 50.4709 203.26 50.478C203.35 50.4827 203.425 50.491 203.484 50.5028V51.6854C203.43 51.6664 203.343 51.6499 203.225 51.6357C203.109 51.6191 202.997 51.6108 202.888 51.6108C202.653 51.6108 202.443 51.6617 202.256 51.7635C202.071 51.8629 201.925 52.0014 201.819 52.179C201.712 52.3565 201.659 52.5613 201.659 52.7933V56H200.373ZM206.493 56.1065C205.96 56.1065 205.499 55.9893 205.108 55.755C204.717 55.5206 204.414 55.1927 204.199 54.7713C203.986 54.3499 203.879 53.8575 203.879 53.294C203.879 52.7306 203.986 52.237 204.199 51.8132C204.414 51.3894 204.717 51.0604 205.108 50.826C205.499 50.5916 205.96 50.4744 206.493 50.4744C207.026 50.4744 207.487 50.5916 207.878 50.826C208.268 51.0604 208.57 51.3894 208.783 51.8132C208.999 52.237 209.107 52.7306 209.107 53.294C209.107 53.8575 208.999 54.3499 208.783 54.7713C208.57 55.1927 208.268 55.5206 207.878 55.755C207.487 55.9893 207.026 56.1065 206.493 56.1065ZM206.5 55.0767C206.789 55.0767 207.03 54.9974 207.224 54.8388C207.419 54.6778 207.563 54.4624 207.658 54.1925C207.755 53.9226 207.803 53.6219 207.803 53.2905C207.803 52.9567 207.755 52.6548 207.658 52.3849C207.563 52.1127 207.419 51.8961 207.224 51.7351C207.03 51.5741 206.789 51.4936 206.5 51.4936C206.204 51.4936 205.958 51.5741 205.761 51.7351C205.567 51.8961 205.422 52.1127 205.325 52.3849C205.23 52.6548 205.183 52.9567 205.183 53.2905C205.183 53.6219 205.23 53.9226 205.325 54.1925C205.422 54.4624 205.567 54.6778 205.761 54.8388C205.958 54.9974 206.204 55.0767 206.5 55.0767Z" fill="#121212"/>
<path d="M77.4189 3.27273V12H76.362V4.38068H76.3109L74.1802 5.79545V4.72159L76.362 3.27273H77.4189ZM79.9288 12V11.233L82.8095 8.07955C83.1475 7.71023 83.426 7.3892 83.6447 7.11648C83.8635 6.84091 84.0254 6.58239 84.1305 6.34091C84.2385 6.09659 84.2924 5.84091 84.2924 5.57386C84.2924 5.26705 84.2186 5.00142 84.0708 4.77699C83.926 4.55256 83.7271 4.37926 83.4743 4.2571C83.2214 4.13494 82.9373 4.07386 82.622 4.07386C82.2868 4.07386 81.9941 4.14347 81.7441 4.28267C81.497 4.41903 81.3052 4.6108 81.1689 4.85795C81.0353 5.10511 80.9686 5.39489 80.9686 5.72727H79.9629C79.9629 5.21591 80.0808 4.76705 80.3166 4.38068C80.5524 3.99432 80.8734 3.69318 81.2797 3.47727C81.6887 3.26136 82.1475 3.15341 82.6561 3.15341C83.1674 3.15341 83.6206 3.26136 84.0154 3.47727C84.4103 3.69318 84.72 3.98437 84.9444 4.35085C85.1689 4.71733 85.2811 5.125 85.2811 5.57386C85.2811 5.89489 85.2228 6.20881 85.1064 6.51562C84.9927 6.8196 84.7939 7.15909 84.5098 7.53409C84.2285 7.90625 83.8379 8.3608 83.3379 8.89773L81.3777 10.9943V11.0625H85.4345V12H79.9288ZM87.9444 12.0682C87.7342 12.0682 87.5538 11.9929 87.4032 11.8423C87.2527 11.6918 87.1774 11.5114 87.1774 11.3011C87.1774 11.0909 87.2527 10.9105 87.4032 10.7599C87.5538 10.6094 87.7342 10.5341 87.9444 10.5341C88.1547 10.5341 88.335 10.6094 88.4856 10.7599C88.6362 10.9105 88.7115 11.0909 88.7115 11.3011C88.7115 11.4403 88.676 11.5682 88.6049 11.6847C88.5368 11.8011 88.4444 11.8949 88.3279 11.9659C88.2143 12.0341 88.0865 12.0682 87.9444 12.0682ZM92.5243 3.27273V12H91.4675V4.38068H91.4164L89.2857 5.79545V4.72159L91.4675 3.27273H92.5243ZM95.0343 12V11.233L97.915 8.07955C98.253 7.71023 98.5314 7.3892 98.7502 7.11648C98.9689 6.84091 99.1309 6.58239 99.236 6.34091C99.3439 6.09659 99.3979 5.84091 99.3979 5.57386C99.3979 5.26705 99.324 5.00142 99.1763 4.77699C99.0314 4.55256 98.8326 4.37926 98.5797 4.2571C98.3269 4.13494 98.0428 4.07386 97.7275 4.07386C97.3922 4.07386 97.0996 4.14347 96.8496 4.28267C96.6025 4.41903 96.4107 4.6108 96.2743 4.85795C96.1408 5.10511 96.074 5.39489 96.074 5.72727H95.0684C95.0684 5.21591 95.1863 4.76705 95.4221 4.38068C95.6578 3.99432 95.9789 3.69318 96.3851 3.47727C96.7942 3.26136 97.253 3.15341 97.7615 3.15341C98.2729 3.15341 98.726 3.26136 99.1209 3.47727C99.5158 3.69318 99.8255 3.98437 100.05 4.35085C100.274 4.71733 100.387 5.125 100.387 5.57386C100.387 5.89489 100.328 6.20881 100.212 6.51562C100.098 6.8196 99.8993 7.15909 99.6152 7.53409C99.334 7.90625 98.9434 8.3608 98.4434 8.89773L96.4831 10.9943V11.0625H100.54V12H95.0343ZM103.05 12.0682C102.84 12.0682 102.659 11.9929 102.509 11.8423C102.358 11.6918 102.283 11.5114 102.283 11.3011C102.283 11.0909 102.358 10.9105 102.509 10.7599C102.659 10.6094 102.84 10.5341 103.05 10.5341C103.26 10.5341 103.441 10.6094 103.591 10.7599C103.742 10.9105 103.817 11.0909 103.817 11.3011C103.817 11.4403 103.781 11.5682 103.71 11.6847C103.642 11.8011 103.55 11.8949 103.433 11.9659C103.32 12.0341 103.192 12.0682 103.05 12.0682ZM105.605 12V11.233L108.485 8.07955C108.823 7.71023 109.102 7.3892 109.32 7.11648C109.539 6.84091 109.701 6.58239 109.806 6.34091C109.914 6.09659 109.968 5.84091 109.968 5.57386C109.968 5.26705 109.894 5.00142 109.747 4.77699C109.602 4.55256 109.403 4.37926 109.15 4.2571C108.897 4.13494 108.613 4.07386 108.298 4.07386C107.963 4.07386 107.67 4.14347 107.42 4.28267C107.173 4.41903 106.981 4.6108 106.845 4.85795C106.711 5.10511 106.644 5.39489 106.644 5.72727H105.639C105.639 5.21591 105.757 4.76705 105.992 4.38068C106.228 3.99432 106.549 3.69318 106.955 3.47727C107.365 3.26136 107.823 3.15341 108.332 3.15341C108.843 3.15341 109.296 3.26136 109.691 3.47727C110.086 3.69318 110.396 3.98437 110.62 4.35085C110.845 4.71733 110.957 5.125 110.957 5.57386C110.957 5.89489 110.899 6.20881 110.782 6.51562C110.669 6.8196 110.47 7.15909 110.186 7.53409C109.904 7.90625 109.514 8.3608 109.014 8.89773L107.053 10.9943V11.0625H111.11V12H105.605ZM112.87 12V11.233L115.751 8.07955C116.089 7.71023 116.367 7.3892 116.586 7.11648C116.805 6.84091 116.967 6.58239 117.072 6.34091C117.18 6.09659 117.234 5.84091 117.234 5.57386C117.234 5.26705 117.16 5.00142 117.012 4.77699C116.867 4.55256 116.669 4.37926 116.416 4.2571C116.163 4.13494 115.879 4.07386 115.563 4.07386C115.228 4.07386 114.936 4.14347 114.686 4.28267C114.438 4.41903 114.247 4.6108 114.11 4.85795C113.977 5.10511 113.91 5.39489 113.91 5.72727H112.904C112.904 5.21591 113.022 4.76705 113.258 4.38068C113.494 3.99432 113.815 3.69318 114.221 3.47727C114.63 3.26136 115.089 3.15341 115.597 3.15341C116.109 3.15341 116.562 3.26136 116.957 3.47727C117.352 3.69318 117.661 3.98437 117.886 4.35085C118.11 4.71733 118.222 5.125 118.222 5.57386C118.222 5.89489 118.164 6.20881 118.048 6.51562C117.934 6.8196 117.735 7.15909 117.451 7.53409C117.17 7.90625 116.779 8.3608 116.279 8.89773L114.319 10.9943V11.0625H118.376V12H112.87ZM140.386 12V11.233L143.267 8.07955C143.605 7.71023 143.883 7.3892 144.102 7.11648C144.32 6.84091 144.482 6.58239 144.588 6.34091C144.695 6.09659 144.749 5.84091 144.749 5.57386C144.749 5.26705 144.676 5.00142 144.528 4.77699C144.383 4.55256 144.184 4.37926 143.931 4.2571C143.678 4.13494 143.394 4.07386 143.079 4.07386C142.744 4.07386 142.451 4.14347 142.201 4.28267C141.954 4.41903 141.762 4.6108 141.626 4.85795C141.492 5.10511 141.426 5.39489 141.426 5.72727H140.42C140.42 5.21591 140.538 4.76705 140.774 4.38068C141.009 3.99432 141.33 3.69318 141.737 3.47727C142.146 3.26136 142.605 3.15341 143.113 3.15341C143.624 3.15341 144.078 3.26136 144.472 3.47727C144.867 3.69318 145.177 3.98437 145.401 4.35085C145.626 4.71733 145.738 5.125 145.738 5.57386C145.738 5.89489 145.68 6.20881 145.563 6.51562C145.45 6.8196 145.251 7.15909 144.967 7.53409C144.686 7.90625 144.295 8.3608 143.795 8.89773L141.835 10.9943V11.0625H145.892V12H140.386ZM150.498 12.1193C149.856 12.1193 149.309 11.9446 148.857 11.5952C148.406 11.2429 148.061 10.733 147.822 10.0653C147.583 9.39489 147.464 8.58523 147.464 7.63636C147.464 6.69318 147.583 5.88778 147.822 5.22017C148.063 4.54972 148.41 4.03835 148.862 3.68608C149.316 3.33097 149.862 3.15341 150.498 3.15341C151.134 3.15341 151.678 3.33097 152.13 3.68608C152.585 4.03835 152.931 4.54972 153.17 5.22017C153.411 5.88778 153.532 6.69318 153.532 7.63636C153.532 8.58523 153.413 9.39489 153.174 10.0653C152.936 10.733 152.59 11.2429 152.139 11.5952C151.687 11.9446 151.14 12.1193 150.498 12.1193ZM150.498 11.1818C151.134 11.1818 151.629 10.875 151.981 10.2614C152.333 9.64773 152.509 8.77273 152.509 7.63636C152.509 6.88068 152.428 6.23722 152.267 5.70597C152.107 5.17472 151.877 4.76989 151.576 4.49148C151.278 4.21307 150.919 4.07386 150.498 4.07386C149.867 4.07386 149.374 4.38494 149.019 5.0071C148.664 5.62642 148.487 6.50284 148.487 7.63636C148.487 8.39205 148.566 9.03409 148.725 9.5625C148.884 10.0909 149.113 10.4929 149.411 10.7685C149.713 11.044 150.075 11.1818 150.498 11.1818ZM155.901 10.8835C155.691 10.8835 155.511 10.8082 155.36 10.6577C155.21 10.5071 155.134 10.3267 155.134 10.1165C155.134 9.90625 155.21 9.72585 155.36 9.57528C155.511 9.42472 155.691 9.34943 155.901 9.34943C156.112 9.34943 156.292 9.42472 156.443 9.57528C156.593 9.72585 156.669 9.90625 156.669 10.1165C156.669 10.2557 156.633 10.3835 156.562 10.5C156.494 10.6165 156.401 10.7102 156.285 10.7812C156.171 10.8494 156.044 10.8835 155.901 10.8835ZM155.901 6.46875C155.691 6.46875 155.511 6.39347 155.36 6.2429C155.21 6.09233 155.134 5.91193 155.134 5.7017C155.134 5.49148 155.21 5.31108 155.36 5.16051C155.511 5.00994 155.691 4.93466 155.901 4.93466C156.112 4.93466 156.292 5.00994 156.443 5.16051C156.593 5.31108 156.669 5.49148 156.669 5.7017C156.669 5.84091 156.633 5.96875 156.562 6.08523C156.494 6.2017 156.401 6.29545 156.285 6.36648C156.171 6.43466 156.044 6.46875 155.901 6.46875ZM161.303 12.1193C160.661 12.1193 160.114 11.9446 159.662 11.5952C159.21 11.2429 158.865 10.733 158.627 10.0653C158.388 9.39489 158.269 8.58523 158.269 7.63636C158.269 6.69318 158.388 5.88778 158.627 5.22017C158.868 4.54972 159.215 4.03835 159.666 3.68608C160.121 3.33097 160.666 3.15341 161.303 3.15341C161.939 3.15341 162.483 3.33097 162.935 3.68608C163.389 4.03835 163.736 4.54972 163.975 5.22017C164.216 5.88778 164.337 6.69318 164.337 7.63636C164.337 8.58523 164.218 9.39489 163.979 10.0653C163.74 10.733 163.395 11.2429 162.943 11.5952C162.492 11.9446 161.945 12.1193 161.303 12.1193ZM161.303 11.1818C161.939 11.1818 162.433 10.875 162.786 10.2614C163.138 9.64773 163.314 8.77273 163.314 7.63636C163.314 6.88068 163.233 6.23722 163.071 5.70597C162.912 5.17472 162.682 4.76989 162.381 4.49148C162.083 4.21307 161.723 4.07386 161.303 4.07386C160.672 4.07386 160.179 4.38494 159.824 5.0071C159.469 5.62642 159.291 6.50284 159.291 7.63636C159.291 8.39205 159.371 9.03409 159.53 9.5625C159.689 10.0909 159.918 10.4929 160.216 10.7685C160.517 11.044 160.879 11.1818 161.303 11.1818ZM168.803 12.1193C168.161 12.1193 167.614 11.9446 167.162 11.5952C166.71 11.2429 166.365 10.733 166.127 10.0653C165.888 9.39489 165.769 8.58523 165.769 7.63636C165.769 6.69318 165.888 5.88778 166.127 5.22017C166.368 4.54972 166.715 4.03835 167.166 3.68608C167.621 3.33097 168.166 3.15341 168.803 3.15341C169.439 3.15341 169.983 3.33097 170.435 3.68608C170.889 4.03835 171.236 4.54972 171.475 5.22017C171.716 5.88778 171.837 6.69318 171.837 7.63636C171.837 8.58523 171.718 9.39489 171.479 10.0653C171.24 10.733 170.895 11.2429 170.443 11.5952C169.992 11.9446 169.445 12.1193 168.803 12.1193ZM168.803 11.1818C169.439 11.1818 169.933 10.875 170.286 10.2614C170.638 9.64773 170.814 8.77273 170.814 7.63636C170.814 6.88068 170.733 6.23722 170.571 5.70597C170.412 5.17472 170.182 4.76989 169.881 4.49148C169.583 4.21307 169.223 4.07386 168.803 4.07386C168.172 4.07386 167.679 4.38494 167.324 5.0071C166.969 5.62642 166.791 6.50284 166.791 7.63636C166.791 8.39205 166.871 9.03409 167.03 9.5625C167.189 10.0909 167.418 10.4929 167.716 10.7685C168.017 11.044 168.379 11.1818 168.803 11.1818Z" fill="black"/>
<path d="M106.295 63V54.2727H109.346C109.954 54.2727 110.456 54.3778 110.85 54.5881C111.245 54.7955 111.539 55.0753 111.733 55.4276C111.926 55.777 112.022 56.1648 112.022 56.5909C112.022 56.9659 111.956 57.2756 111.822 57.5199C111.691 57.7642 111.518 57.9574 111.302 58.0994C111.089 58.2415 110.858 58.3466 110.608 58.4148V58.5C110.875 58.517 111.143 58.6108 111.413 58.7812C111.683 58.9517 111.909 59.196 112.091 59.5142C112.272 59.8324 112.363 60.2216 112.363 60.6818C112.363 61.1193 112.264 61.5128 112.065 61.8622C111.866 62.2116 111.552 62.4886 111.123 62.6932C110.694 62.8977 110.136 63 109.449 63H106.295ZM107.352 62.0625H109.449C110.139 62.0625 110.629 61.929 110.919 61.6619C111.211 61.392 111.358 61.0653 111.358 60.6818C111.358 60.3864 111.282 60.1136 111.132 59.8636C110.981 59.6108 110.767 59.4091 110.488 59.2585C110.21 59.1051 109.88 59.0284 109.5 59.0284H107.352V62.0625ZM107.352 58.108H109.312C109.63 58.108 109.917 58.0455 110.173 57.9205C110.431 57.7955 110.636 57.6193 110.787 57.392C110.94 57.1648 111.017 56.8977 111.017 56.5909C111.017 56.2074 110.883 55.8821 110.616 55.6151C110.349 55.3452 109.926 55.2102 109.346 55.2102H107.352V58.108ZM121.463 58.6364C121.463 59.5568 121.297 60.3523 120.965 61.0227C120.632 61.6932 120.176 62.2102 119.597 62.5739C119.017 62.9375 118.355 63.1193 117.611 63.1193C116.867 63.1193 116.205 62.9375 115.625 62.5739C115.046 62.2102 114.59 61.6932 114.257 61.0227C113.925 60.3523 113.759 59.5568 113.759 58.6364C113.759 57.7159 113.925 56.9205 114.257 56.25C114.59 55.5795 115.046 55.0625 115.625 54.6989C116.205 54.3352 116.867 54.1534 117.611 54.1534C118.355 54.1534 119.017 54.3352 119.597 54.6989C120.176 55.0625 120.632 55.5795 120.965 56.25C121.297 56.9205 121.463 57.7159 121.463 58.6364ZM120.441 58.6364C120.441 57.8807 120.314 57.2429 120.061 56.723C119.811 56.2031 119.472 55.8097 119.043 55.5426C118.617 55.2756 118.14 55.142 117.611 55.142C117.083 55.142 116.604 55.2756 116.175 55.5426C115.749 55.8097 115.409 56.2031 115.157 56.723C114.907 57.2429 114.782 57.8807 114.782 58.6364C114.782 59.392 114.907 60.0298 115.157 60.5497C115.409 61.0696 115.749 61.4631 116.175 61.7301C116.604 61.9972 117.083 62.1307 117.611 62.1307C118.14 62.1307 118.617 61.9972 119.043 61.7301C119.472 61.4631 119.811 61.0696 120.061 60.5497C120.314 60.0298 120.441 59.392 120.441 58.6364ZM126.155 54.2727V63H125.098V55.3807H125.047L122.917 56.7955V55.7216L125.098 54.2727H126.155Z" fill="black"/>
<path d="M116.297 38.024L112.023 50.024H108.898L104.625 38.024H107.641L110.398 46.9381H110.523L113.289 38.024H116.297ZM127.738 41.1959L125.16 41.4771C125.087 41.2167 124.96 40.9719 124.777 40.7428C124.6 40.5136 124.361 40.3287 124.059 40.1881C123.757 40.0475 123.387 39.9771 122.949 39.9771C122.361 39.9771 121.866 40.1047 121.465 40.36C121.069 40.6152 120.874 40.9459 120.879 41.3521C120.874 41.7011 121.001 41.985 121.262 42.2037C121.527 42.4225 121.965 42.6021 122.574 42.7428L124.621 43.1803C125.757 43.4251 126.6 43.8131 127.152 44.3443C127.71 44.8756 127.991 45.5709 127.996 46.4303C127.991 47.1855 127.77 47.8521 127.332 48.4303C126.9 49.0032 126.298 49.4511 125.527 49.774C124.757 50.0969 123.871 50.2584 122.871 50.2584C121.402 50.2584 120.22 49.9511 119.324 49.3365C118.428 48.7167 117.895 47.8547 117.723 46.7506L120.48 46.485C120.605 47.0266 120.871 47.4355 121.277 47.7115C121.684 47.9876 122.212 48.1256 122.863 48.1256C123.535 48.1256 124.074 47.9876 124.48 47.7115C124.892 47.4355 125.098 47.0943 125.098 46.6881C125.098 46.3443 124.965 46.0605 124.699 45.8365C124.439 45.6126 124.033 45.4407 123.48 45.3209L121.434 44.8912C120.283 44.6516 119.431 44.248 118.879 43.6803C118.327 43.1074 118.053 42.3834 118.059 41.5084C118.053 40.7688 118.254 40.1282 118.66 39.5865C119.072 39.0396 119.642 38.6178 120.371 38.3209C121.105 38.0188 121.952 37.8678 122.91 37.8678C124.316 37.8678 125.423 38.1672 126.23 38.7662C127.043 39.3652 127.546 40.1751 127.738 41.1959Z" fill="#121212"/>
<path d="M50.5002 54.3254C50.7932 54.4598 51.8126 54.9771 52.2134 55.1933C52.344 55.2637 52.5367 55.3691 52.7486 55.4851C53.2049 55.7348 53.7505 56.0333 53.9578 56.1363C54.0254 56.1699 54.1103 56.2148 54.2065 56.2673C53.9071 55.9143 53.6658 55.6388 53.5707 55.5463C53.3894 55.3701 52.9856 54.9708 52.5932 54.5827L52.5794 54.5691C52.1894 54.1834 51.8138 53.812 51.6711 53.6736C51.392 53.4031 50.1112 52.2981 49.5049 51.7776C49.1022 51.4318 48.3519 50.8415 47.7852 50.3956C47.518 50.1854 47.2916 50.0074 47.1618 49.9022L47.4714 49.5134L47.1618 49.9022C46.8772 49.6717 46.0457 49.0861 45.4538 48.6692C45.2852 48.5505 45.1361 48.4455 45.0245 48.3662C44.834 48.2308 44.539 48.0152 44.2446 47.8C44.1585 47.737 44.0724 47.6741 43.9889 47.6132C43.8032 47.4777 43.6304 47.352 43.4963 47.2562C43.3837 47.1758 43.3198 47.132 43.2956 47.1154C43.2869 47.1095 43.2833 47.107 43.2844 47.1076C43.242 47.0848 43.0941 47.0024 43.0218 46.8183C42.9791 46.7094 42.9724 46.5866 43.0092 46.4697C43.043 46.3622 43.104 46.2894 43.1494 46.2466C43.2332 46.1674 43.3253 46.132 43.3692 46.1169C43.4237 46.0982 43.4782 46.0865 43.5267 46.0787C43.7142 46.0486 43.9709 46.0524 44.2611 46.095L44.2023 46.539L44.2611 46.095C44.3148 46.1029 44.3823 46.1123 44.4612 46.1233C45.0906 46.2107 46.4475 46.3992 47.3281 46.7431C47.7948 46.9254 48.562 47.2375 49.2918 47.5531C50.0067 47.8623 50.7303 48.1936 51.079 48.4109C51.2861 48.5399 51.5552 48.6872 51.8765 48.8632C52.0147 48.9388 52.1624 49.0197 52.3191 49.1067C52.8269 49.3887 53.4029 49.7218 53.9547 50.1051C54.4799 50.4699 54.8499 50.7131 55.1443 50.9034C55.2144 50.9487 55.2811 50.9916 55.3452 51.0328C55.5474 51.1628 55.7241 51.2764 55.9003 51.3976L55.6226 51.8102L55.9004 51.3976C56.3379 51.6986 57.4787 52.5403 57.5738 52.6105L57.5778 52.6135L57.5916 52.6239L57.5956 52.6269C57.6898 52.6994 58.885 53.6194 59.5198 54.1581C59.3849 53.9625 59.2425 53.7539 59.0438 53.4357C58.6559 52.8146 57.9937 51.9708 56.8231 50.9235C56.3153 50.4691 56.1165 50.2888 55.9584 50.1454C55.7393 49.9466 55.5984 49.8188 54.8211 49.1305C54.8216 49.1309 54.8183 49.1281 54.809 49.1204L54.7749 49.0927C54.7463 49.0697 54.7084 49.0396 54.6617 49.0029C54.5685 48.9297 54.4436 48.8328 54.2951 48.7183C53.9983 48.4896 53.6099 48.1929 53.197 47.8802C52.3685 47.2528 51.4519 46.5688 50.9794 46.2382C50.0157 45.564 48.539 44.5629 47.5773 44.0139L47.8191 43.5787L47.5773 44.0139L47.5633 44.0059C46.5618 43.4342 44.84 42.4526 43.9019 42.0689C42.9157 41.6656 40.7944 40.8206 39.9964 40.5607C39.8429 40.5107 39.705 40.4649 39.574 40.4215C39.0014 40.2315 38.5603 40.0851 37.5164 39.8165L37.413 39.7899L37.5262 39.3222L37.413 39.7899C36.2557 39.492 35.5749 39.3171 34.795 39.1882C34.7354 39.1795 34.6785 39.1705 34.6247 39.1611L34.6206 39.1604L34.6206 39.1603C34.6202 39.1603 34.6197 39.1602 34.6192 39.1601L34.6243 39.1289C34.448 39.029 34.3412 38.8277 34.3709 38.6162C34.4005 38.405 34.5576 38.2448 34.7534 38.2024L34.758 38.1692L34.7678 38.1707L34.7679 38.1707C34.8238 38.1794 34.8791 38.1882 34.934 38.1972C35.8276 38.3262 37.6696 38.4001 39.1942 38.2003C39.8624 38.1127 40.6695 38.1928 41.4022 38.3179C42.1442 38.4445 42.8519 38.6248 43.3378 38.761C43.5128 38.8101 43.7357 38.7524 43.9231 38.566C43.9906 38.4988 44.063 38.4248 44.1396 38.3464C44.5124 37.9653 44.985 37.4821 45.4831 37.1874L45.5142 37.169L45.5143 37.1689L45.5201 37.1655C46.0634 36.8437 46.8328 36.3881 48.0845 36.5095C49.2467 36.6222 50.6826 36.9877 51.6582 37.3184L51.5047 37.7933L51.6582 37.3184C52.1724 37.4927 52.7779 37.7922 53.325 38.063C53.8958 38.3455 54.3967 38.5932 54.7631 38.7125C55.1187 38.8284 55.6999 38.9219 56.3049 38.9829C56.903 39.0433 57.4757 39.0673 57.7956 39.0583L57.8162 39.5594L57.7956 39.0583C57.8291 39.0573 57.8622 39.0564 57.8952 39.0555C58.5474 39.0377 59.1055 39.0224 59.9407 38.8139C60.1671 38.7573 60.4079 38.7015 60.649 38.6456L60.6876 38.6366C60.9432 38.5773 61.1995 38.5177 61.449 38.4549C61.9544 38.3276 62.4024 38.1945 62.7314 38.0429C63.4677 37.7034 64.0582 37.4247 64.8521 36.8559C64.8512 36.8526 64.8498 36.8485 64.8479 36.8438C64.8391 36.8231 64.8243 36.805 64.809 36.794C64.7965 36.7851 64.7849 36.7812 64.7696 36.7815C64.3852 36.7876 63.9752 36.7709 63.5858 36.7098C62.2261 36.4965 58.705 35.4824 55.7392 33.9235C52.8193 32.3888 49.3204 30.4366 48.0781 29.6553L48.3385 29.2313L48.0781 29.6553C47.5333 29.3126 46.5903 28.9864 45.5329 28.669C45.1925 28.5668 44.8405 28.4656 44.4938 28.366C43.8026 28.1673 43.1319 27.9745 42.614 27.7912C41.1275 27.2653 39.0714 26.8548 37.5564 26.9087C37.2311 26.9203 36.8235 26.9315 36.3687 26.9439C35.6779 26.9628 34.8782 26.9848 34.0923 27.0156C33.4477 27.0409 32.8279 27.0718 32.3126 27.111C31.7843 27.1512 31.4037 27.1977 31.2142 27.2459L31.0863 26.7618L31.2141 27.2459C31.0872 27.2782 30.9413 27.3143 30.781 27.3539C30.3286 27.4659 29.7611 27.6063 29.1775 27.7705C28.3813 27.9946 27.6036 28.2503 27.092 28.514C26.9247 28.6002 26.7449 28.6916 26.5568 28.7872C25.4492 29.35 24.0533 30.0595 23.2203 30.7277C22.7195 31.1294 22.1282 31.6525 21.5295 32.1844C21.4984 32.2121 21.4673 32.2397 21.4362 32.2674C20.8734 32.7675 20.3082 33.2697 19.8295 33.6602C19.3215 34.0745 18.6812 34.5481 17.9954 34.9423C17.3156 35.3331 16.5581 35.6652 15.8206 35.7631C15.0419 35.8664 14.13 35.6329 13.3258 35.2254C12.5165 34.8154 11.7446 34.1935 11.2696 33.4368L11.6902 33.1733L11.2696 33.4368C10.4343 32.1062 9.06055 29.5876 8.50014 27.6625C8.36777 27.2077 8.23667 26.7619 8.11417 26.3481C7.98607 25.9153 7.45675 25.8865 7.27731 26.2453C6.86847 27.0627 6.49891 27.8775 6.37856 28.3425C6.06777 29.5433 5.83287 30.7456 5.74907 31.2524L5.74907 31.2524C5.66364 31.7691 5.54578 32.5177 5.45958 33.3856L4.96339 33.3291L5.45958 33.3856C5.37341 34.253 5.31319 35.7382 5.36618 36.5857C5.42125 37.4663 5.56189 39.098 5.74149 40.078C5.92524 41.0806 6.24924 42.6136 6.58602 43.8261C6.63218 43.9923 6.68059 44.1685 6.73111 44.3523C7.05972 45.5481 7.47724 47.0675 7.94332 48.2717C8.49503 49.6971 9.2302 51.5247 9.58537 52.2427C9.66317 52.4 9.77502 52.6293 9.90753 52.901C10.4205 53.9527 11.243 55.6392 11.5983 56.2383C11.9504 56.8319 12.5525 57.7704 13.046 58.5397C13.1898 58.7637 13.3243 58.9735 13.4408 59.1561C13.6535 59.4897 13.9376 59.8925 14.1952 60.2467C14.355 60.4664 14.6721 60.5138 14.895 60.3321C15.6107 59.7486 16.6537 58.9103 17.1898 58.5393C17.2971 58.465 17.3963 58.3956 17.4913 58.329C18.1509 57.867 18.6134 57.5429 20.2543 56.6995C22.0996 55.751 23.3466 55.1563 24.0743 54.8895C24.7911 54.6266 27.089 53.9605 28.7575 53.8703C29.2341 53.8446 29.5724 53.8188 29.858 53.797C30.5086 53.7473 30.8862 53.7185 32.0016 53.7587C33.6089 53.8165 34.9792 54.0005 36.4772 54.4376C37.9252 54.86 39.8494 55.4828 40.8907 55.9804C41.0583 56.0604 41.2191 56.1363 41.3756 56.21C42.1395 56.5702 42.8009 56.8821 43.6473 57.4041C43.7042 57.4391 43.7626 57.4751 43.8225 57.512C44.7973 58.1121 46.1584 58.9502 47.3 59.8971C47.636 60.1757 47.8746 60.3642 48.0796 60.5261C48.579 60.9206 48.8778 61.1566 49.8947 62.1526C49.924 62.1813 49.9495 62.2011 49.9704 62.2148C49.9631 62.1855 49.9492 62.147 49.9232 62.0996C49.6175 61.541 49.3322 61.0342 49.1438 60.7295C49.073 60.6149 48.9989 60.4947 48.9228 60.371C48.6878 59.9893 48.4328 59.5752 48.1912 59.1971C47.862 58.6819 47.5896 58.2851 47.4392 58.1232C47.2945 57.9673 47.0281 57.6604 46.7335 57.321C46.6308 57.2027 46.5248 57.0806 46.4193 56.9595C45.9978 56.4757 45.5885 56.0135 45.3802 55.8113C45.1514 55.5892 44.6127 55.0607 44.1179 54.5711C43.8705 54.3262 43.6332 54.0902 43.4506 53.9066C43.2844 53.7393 43.1287 53.5814 43.0791 53.519C42.9715 53.3837 42.883 53.1961 42.8996 52.9804C42.9175 52.7493 43.0551 52.5491 43.2676 52.4546L43.2676 52.4546C43.2566 52.4595 43.6513 52.1967 44.1546 52.2485M50.5002 54.3254C50.5002 54.3254 50.5002 54.3254 50.5002 54.3254L50.2982 54.781L50.5002 54.3254ZM50.5002 54.3254C50.405 54.2816 50.2475 54.2084 50.0409 54.1123C49.9473 54.0688 49.8436 54.0206 49.731 53.9683C49.371 53.8011 48.9228 53.5934 48.4312 53.3678C48.4207 53.363 48.41 53.3585 48.3993 53.3545C47.9487 53.184 47.9071 53.1625 47.8822 53.151C47.8135 53.1191 47.7584 53.0974 47.3726 52.9587L47.3726 52.9587C47.1005 52.8609 47.0549 52.8424 47.0083 52.827C46.949 52.8074 46.888 52.7928 46.355 52.6259L46.2126 53.1044M46.2126 53.1044L46.355 52.6259C45.5143 52.3626 44.7144 52.296 44.3155 52.2627C44.2508 52.2574 44.1967 52.2529 44.1546 52.2485M46.2126 53.1044C46.758 53.2752 46.8127 53.2878 46.8657 53.3054C46.9066 53.3191 46.9466 53.3358 47.2103 53.4306M46.2126 53.1044L47.2103 53.4306M44.1546 52.2485C44.1546 52.2485 44.1546 52.2485 44.1546 52.2485L44.1104 52.7473L44.1546 52.2485ZM47.2103 53.4306C47.6122 53.575 47.6359 53.586 47.6805 53.6067C47.7237 53.6268 47.7864 53.6559 48.2292 53.8234L47.2103 53.4306ZM43.7459 46.225C43.7481 46.2262 43.7525 46.2285 43.7585 46.232C43.7538 46.2293 43.7493 46.2268 43.745 46.2245L43.7459 46.225Z" fill="white" stroke="#121212" stroke-linejoin="round"/>
<path d="M20.6973 37.9705C20.6973 37.9705 22.443 36.1388 23.2627 35.5188C24.0823 34.8987 24.9222 34.5416 26.4799 34.5647C28.2425 34.5908 29.0631 35.0773 30.3241 34.4101C30.0488 34.9121 29.0566 35.9153 28.4229 36.5154C27.6458 37.2022 26.9984 37.8283 26.1622 38.2173C25.5654 38.4949 25.5386 38.3037 24.5481 38.1041C24.1192 38.0177 23.2185 37.7434 22.6637 37.7244C21.7362 37.6928 20.9505 37.9105 20.7683 37.9522L20.6973 37.9705Z" fill="#6A4389" style="mix-blend-mode:darken"/>
<path d="M20.6973 37.9705C20.6973 37.9705 22.443 36.1388 23.2627 35.5188C24.0823 34.8987 24.9222 34.5416 26.4799 34.5647C28.2425 34.5908 29.0631 35.0773 30.3241 34.4101C30.0488 34.9121 29.0566 35.9153 28.4229 36.5154C27.6458 37.2022 26.9984 37.8283 26.1622 38.2173C25.5654 38.4949 25.5386 38.3037 24.5481 38.1041C24.1192 38.0177 23.2185 37.7434 22.6637 37.7244C21.7362 37.6928 20.9505 37.9105 20.7683 37.9522L20.6973 37.9705Z" stroke="#121212"/>
<rect x="177.5" y="31.5" width="48" height="29" stroke="#121212"/>
</svg>
