<svg width="226" height="70" viewBox="0 0 226 70" fill="none" xmlns="http://www.w3.org/2000/svg">
<path d="M77.4189 3.27273V12H76.362V4.38068H76.3109L74.1802 5.79545V4.72159L76.362 3.27273H77.4189ZM79.9288 12V11.233L82.8095 8.07955C83.1475 7.71023 83.426 7.3892 83.6447 7.11648C83.8635 6.84091 84.0254 6.58239 84.1305 6.34091C84.2385 6.09659 84.2924 5.84091 84.2924 5.57386C84.2924 5.26705 84.2186 5.00142 84.0708 4.77699C83.926 4.55256 83.7271 4.37926 83.4743 4.2571C83.2214 4.13494 82.9373 4.07386 82.622 4.07386C82.2868 4.07386 81.9941 4.14347 81.7441 4.28267C81.497 4.41903 81.3052 4.6108 81.1689 4.85795C81.0353 5.10511 80.9686 5.39489 80.9686 5.72727H79.9629C79.9629 5.21591 80.0808 4.76705 80.3166 4.38068C80.5524 3.99432 80.8734 3.69318 81.2797 3.47727C81.6887 3.26136 82.1475 3.15341 82.6561 3.15341C83.1674 3.15341 83.6206 3.26136 84.0154 3.47727C84.4103 3.69318 84.72 3.98437 84.9444 4.35085C85.1689 4.71733 85.2811 5.125 85.2811 5.57386C85.2811 5.89489 85.2228 6.20881 85.1064 6.51562C84.9927 6.8196 84.7939 7.15909 84.5098 7.53409C84.2285 7.90625 83.8379 8.3608 83.3379 8.89773L81.3777 10.9943V11.0625H85.4345V12H79.9288ZM87.9444 12.0682C87.7342 12.0682 87.5538 11.9929 87.4032 11.8423C87.2527 11.6918 87.1774 11.5114 87.1774 11.3011C87.1774 11.0909 87.2527 10.9105 87.4032 10.7599C87.5538 10.6094 87.7342 10.5341 87.9444 10.5341C88.1547 10.5341 88.335 10.6094 88.4856 10.7599C88.6362 10.9105 88.7115 11.0909 88.7115 11.3011C88.7115 11.4403 88.676 11.5682 88.6049 11.6847C88.5368 11.8011 88.4444 11.8949 88.3279 11.9659C88.2143 12.0341 88.0865 12.0682 87.9444 12.0682ZM92.5243 3.27273V12H91.4675V4.38068H91.4164L89.2857 5.79545V4.72159L91.4675 3.27273H92.5243ZM95.0343 12V11.233L97.915 8.07955C98.253 7.71023 98.5314 7.3892 98.7502 7.11648C98.9689 6.84091 99.1309 6.58239 99.236 6.34091C99.3439 6.09659 99.3979 5.84091 99.3979 5.57386C99.3979 5.26705 99.324 5.00142 99.1763 4.77699C99.0314 4.55256 98.8326 4.37926 98.5797 4.2571C98.3269 4.13494 98.0428 4.07386 97.7275 4.07386C97.3922 4.07386 97.0996 4.14347 96.8496 4.28267C96.6025 4.41903 96.4107 4.6108 96.2743 4.85795C96.1408 5.10511 96.074 5.39489 96.074 5.72727H95.0684C95.0684 5.21591 95.1863 4.76705 95.4221 4.38068C95.6578 3.99432 95.9789 3.69318 96.3851 3.47727C96.7942 3.26136 97.253 3.15341 97.7615 3.15341C98.2729 3.15341 98.726 3.26136 99.1209 3.47727C99.5158 3.69318 99.8255 3.98437 100.05 4.35085C100.274 4.71733 100.387 5.125 100.387 5.57386C100.387 5.89489 100.328 6.20881 100.212 6.51562C100.098 6.8196 99.8993 7.15909 99.6152 7.53409C99.334 7.90625 98.9434 8.3608 98.4434 8.89773L96.4831 10.9943V11.0625H100.54V12H95.0343ZM103.05 12.0682C102.84 12.0682 102.659 11.9929 102.509 11.8423C102.358 11.6918 102.283 11.5114 102.283 11.3011C102.283 11.0909 102.358 10.9105 102.509 10.7599C102.659 10.6094 102.84 10.5341 103.05 10.5341C103.26 10.5341 103.441 10.6094 103.591 10.7599C103.742 10.9105 103.817 11.0909 103.817 11.3011C103.817 11.4403 103.781 11.5682 103.71 11.6847C103.642 11.8011 103.55 11.8949 103.433 11.9659C103.32 12.0341 103.192 12.0682 103.05 12.0682ZM105.605 12V11.233L108.485 8.07955C108.823 7.71023 109.102 7.3892 109.32 7.11648C109.539 6.84091 109.701 6.58239 109.806 6.34091C109.914 6.09659 109.968 5.84091 109.968 5.57386C109.968 5.26705 109.894 5.00142 109.747 4.77699C109.602 4.55256 109.403 4.37926 109.15 4.2571C108.897 4.13494 108.613 4.07386 108.298 4.07386C107.963 4.07386 107.67 4.14347 107.42 4.28267C107.173 4.41903 106.981 4.6108 106.845 4.85795C106.711 5.10511 106.644 5.39489 106.644 5.72727H105.639C105.639 5.21591 105.757 4.76705 105.992 4.38068C106.228 3.99432 106.549 3.69318 106.955 3.47727C107.365 3.26136 107.823 3.15341 108.332 3.15341C108.843 3.15341 109.296 3.26136 109.691 3.47727C110.086 3.69318 110.396 3.98437 110.62 4.35085C110.845 4.71733 110.957 5.125 110.957 5.57386C110.957 5.89489 110.899 6.20881 110.782 6.51562C110.669 6.8196 110.47 7.15909 110.186 7.53409C109.904 7.90625 109.514 8.3608 109.014 8.89773L107.053 10.9943V11.0625H111.11V12H105.605ZM112.87 12V11.233L115.751 8.07955C116.089 7.71023 116.367 7.3892 116.586 7.11648C116.805 6.84091 116.967 6.58239 117.072 6.34091C117.18 6.09659 117.234 5.84091 117.234 5.57386C117.234 5.26705 117.16 5.00142 117.012 4.77699C116.867 4.55256 116.669 4.37926 116.416 4.2571C116.163 4.13494 115.879 4.07386 115.563 4.07386C115.228 4.07386 114.936 4.14347 114.686 4.28267C114.438 4.41903 114.247 4.6108 114.11 4.85795C113.977 5.10511 113.91 5.39489 113.91 5.72727H112.904C112.904 5.21591 113.022 4.76705 113.258 4.38068C113.494 3.99432 113.815 3.69318 114.221 3.47727C114.63 3.26136 115.089 3.15341 115.597 3.15341C116.109 3.15341 116.562 3.26136 116.957 3.47727C117.352 3.69318 117.661 3.98437 117.886 4.35085C118.11 4.71733 118.222 5.125 118.222 5.57386C118.222 5.89489 118.164 6.20881 118.048 6.51562C117.934 6.8196 117.735 7.15909 117.451 7.53409C117.17 7.90625 116.779 8.3608 116.279 8.89773L114.319 10.9943V11.0625H118.376V12H112.87ZM140.386 12V11.233L143.267 8.07955C143.605 7.71023 143.883 7.3892 144.102 7.11648C144.32 6.84091 144.482 6.58239 144.588 6.34091C144.695 6.09659 144.749 5.84091 144.749 5.57386C144.749 5.26705 144.676 5.00142 144.528 4.77699C144.383 4.55256 144.184 4.37926 143.931 4.2571C143.678 4.13494 143.394 4.07386 143.079 4.07386C142.744 4.07386 142.451 4.14347 142.201 4.28267C141.954 4.41903 141.762 4.6108 141.626 4.85795C141.492 5.10511 141.426 5.39489 141.426 5.72727H140.42C140.42 5.21591 140.538 4.76705 140.774 4.38068C141.009 3.99432 141.33 3.69318 141.737 3.47727C142.146 3.26136 142.605 3.15341 143.113 3.15341C143.624 3.15341 144.078 3.26136 144.472 3.47727C144.867 3.69318 145.177 3.98437 145.401 4.35085C145.626 4.71733 145.738 5.125 145.738 5.57386C145.738 5.89489 145.68 6.20881 145.563 6.51562C145.45 6.8196 145.251 7.15909 144.967 7.53409C144.686 7.90625 144.295 8.3608 143.795 8.89773L141.835 10.9943V11.0625H145.892V12H140.386ZM150.498 12.1193C149.856 12.1193 149.309 11.9446 148.857 11.5952C148.406 11.2429 148.061 10.733 147.822 10.0653C147.583 9.39489 147.464 8.58523 147.464 7.63636C147.464 6.69318 147.583 5.88778 147.822 5.22017C148.063 4.54972 148.41 4.03835 148.862 3.68608C149.316 3.33097 149.862 3.15341 150.498 3.15341C151.134 3.15341 151.678 3.33097 152.13 3.68608C152.585 4.03835 152.931 4.54972 153.17 5.22017C153.411 5.88778 153.532 6.69318 153.532 7.63636C153.532 8.58523 153.413 9.39489 153.174 10.0653C152.936 10.733 152.59 11.2429 152.139 11.5952C151.687 11.9446 151.14 12.1193 150.498 12.1193ZM150.498 11.1818C151.134 11.1818 151.629 10.875 151.981 10.2614C152.333 9.64773 152.509 8.77273 152.509 7.63636C152.509 6.88068 152.428 6.23722 152.267 5.70597C152.107 5.17472 151.877 4.76989 151.576 4.49148C151.278 4.21307 150.919 4.07386 150.498 4.07386C149.867 4.07386 149.374 4.38494 149.019 5.0071C148.664 5.62642 148.487 6.50284 148.487 7.63636C148.487 8.39205 148.566 9.03409 148.725 9.5625C148.884 10.0909 149.113 10.4929 149.411 10.7685C149.713 11.044 150.075 11.1818 150.498 11.1818ZM155.901 10.8835C155.691 10.8835 155.511 10.8082 155.36 10.6577C155.21 10.5071 155.134 10.3267 155.134 10.1165C155.134 9.90625 155.21 9.72585 155.36 9.57528C155.511 9.42472 155.691 9.34943 155.901 9.34943C156.112 9.34943 156.292 9.42472 156.443 9.57528C156.593 9.72585 156.669 9.90625 156.669 10.1165C156.669 10.2557 156.633 10.3835 156.562 10.5C156.494 10.6165 156.401 10.7102 156.285 10.7812C156.171 10.8494 156.044 10.8835 155.901 10.8835ZM155.901 6.46875C155.691 6.46875 155.511 6.39347 155.36 6.2429C155.21 6.09233 155.134 5.91193 155.134 5.7017C155.134 5.49148 155.21 5.31108 155.36 5.16051C155.511 5.00994 155.691 4.93466 155.901 4.93466C156.112 4.93466 156.292 5.00994 156.443 5.16051C156.593 5.31108 156.669 5.49148 156.669 5.7017C156.669 5.84091 156.633 5.96875 156.562 6.08523C156.494 6.2017 156.401 6.29545 156.285 6.36648C156.171 6.43466 156.044 6.46875 155.901 6.46875ZM161.303 12.1193C160.661 12.1193 160.114 11.9446 159.662 11.5952C159.21 11.2429 158.865 10.733 158.627 10.0653C158.388 9.39489 158.269 8.58523 158.269 7.63636C158.269 6.69318 158.388 5.88778 158.627 5.22017C158.868 4.54972 159.215 4.03835 159.666 3.68608C160.121 3.33097 160.666 3.15341 161.303 3.15341C161.939 3.15341 162.483 3.33097 162.935 3.68608C163.389 4.03835 163.736 4.54972 163.975 5.22017C164.216 5.88778 164.337 6.69318 164.337 7.63636C164.337 8.58523 164.218 9.39489 163.979 10.0653C163.74 10.733 163.395 11.2429 162.943 11.5952C162.492 11.9446 161.945 12.1193 161.303 12.1193ZM161.303 11.1818C161.939 11.1818 162.433 10.875 162.786 10.2614C163.138 9.64773 163.314 8.77273 163.314 7.63636C163.314 6.88068 163.233 6.23722 163.071 5.70597C162.912 5.17472 162.682 4.76989 162.381 4.49148C162.083 4.21307 161.723 4.07386 161.303 4.07386C160.672 4.07386 160.179 4.38494 159.824 5.0071C159.469 5.62642 159.291 6.50284 159.291 7.63636C159.291 8.39205 159.371 9.03409 159.53 9.5625C159.689 10.0909 159.918 10.4929 160.216 10.7685C160.517 11.044 160.879 11.1818 161.303 11.1818ZM168.803 12.1193C168.161 12.1193 167.614 11.9446 167.162 11.5952C166.71 11.2429 166.365 10.733 166.127 10.0653C165.888 9.39489 165.769 8.58523 165.769 7.63636C165.769 6.69318 165.888 5.88778 166.127 5.22017C166.368 4.54972 166.715 4.03835 167.166 3.68608C167.621 3.33097 168.166 3.15341 168.803 3.15341C169.439 3.15341 169.983 3.33097 170.435 3.68608C170.889 4.03835 171.236 4.54972 171.475 5.22017C171.716 5.88778 171.837 6.69318 171.837 7.63636C171.837 8.58523 171.718 9.39489 171.479 10.0653C171.24 10.733 170.895 11.2429 170.443 11.5952C169.992 11.9446 169.445 12.1193 168.803 12.1193ZM168.803 11.1818C169.439 11.1818 169.933 10.875 170.286 10.2614C170.638 9.64773 170.814 8.77273 170.814 7.63636C170.814 6.88068 170.733 6.23722 170.571 5.70597C170.412 5.17472 170.182 4.76989 169.881 4.49148C169.583 4.21307 169.223 4.07386 168.803 4.07386C168.172 4.07386 167.679 4.38494 167.324 5.0071C166.969 5.62642 166.791 6.50284 166.791 7.63636C166.791 8.39205 166.871 9.03409 167.03 9.5625C167.189 10.0909 167.418 10.4929 167.716 10.7685C168.017 11.044 168.379 11.1818 168.803 11.1818Z" fill="black"/>
<path d="M106.295 61V52.2727H109.346C109.954 52.2727 110.456 52.3778 110.85 52.5881C111.245 52.7955 111.539 53.0753 111.733 53.4276C111.926 53.777 112.022 54.1648 112.022 54.5909C112.022 54.9659 111.956 55.2756 111.822 55.5199C111.691 55.7642 111.518 55.9574 111.302 56.0994C111.089 56.2415 110.858 56.3466 110.608 56.4148V56.5C110.875 56.517 111.143 56.6108 111.413 56.7812C111.683 56.9517 111.909 57.196 112.091 57.5142C112.272 57.8324 112.363 58.2216 112.363 58.6818C112.363 59.1193 112.264 59.5128 112.065 59.8622C111.866 60.2116 111.552 60.4886 111.123 60.6932C110.694 60.8977 110.136 61 109.449 61H106.295ZM107.352 60.0625H109.449C110.139 60.0625 110.629 59.929 110.919 59.6619C111.211 59.392 111.358 59.0653 111.358 58.6818C111.358 58.3864 111.282 58.1136 111.132 57.8636C110.981 57.6108 110.767 57.4091 110.488 57.2585C110.21 57.1051 109.88 57.0284 109.5 57.0284H107.352V60.0625ZM107.352 56.108H109.312C109.63 56.108 109.917 56.0455 110.173 55.9205C110.431 55.7955 110.636 55.6193 110.787 55.392C110.94 55.1648 111.017 54.8977 111.017 54.5909C111.017 54.2074 110.883 53.8821 110.616 53.6151C110.349 53.3452 109.926 53.2102 109.346 53.2102H107.352V56.108ZM121.463 56.6364C121.463 57.5568 121.297 58.3523 120.965 59.0227C120.632 59.6932 120.176 60.2102 119.597 60.5739C119.017 60.9375 118.355 61.1193 117.611 61.1193C116.867 61.1193 116.205 60.9375 115.625 60.5739C115.046 60.2102 114.59 59.6932 114.257 59.0227C113.925 58.3523 113.759 57.5568 113.759 56.6364C113.759 55.7159 113.925 54.9205 114.257 54.25C114.59 53.5795 115.046 53.0625 115.625 52.6989C116.205 52.3352 116.867 52.1534 117.611 52.1534C118.355 52.1534 119.017 52.3352 119.597 52.6989C120.176 53.0625 120.632 53.5795 120.965 54.25C121.297 54.9205 121.463 55.7159 121.463 56.6364ZM120.441 56.6364C120.441 55.8807 120.314 55.2429 120.061 54.723C119.811 54.2031 119.472 53.8097 119.043 53.5426C118.617 53.2756 118.14 53.142 117.611 53.142C117.083 53.142 116.604 53.2756 116.175 53.5426C115.749 53.8097 115.409 54.2031 115.157 54.723C114.907 55.2429 114.782 55.8807 114.782 56.6364C114.782 57.392 114.907 58.0298 115.157 58.5497C115.409 59.0696 115.749 59.4631 116.175 59.7301C116.604 59.9972 117.083 60.1307 117.611 60.1307C118.14 60.1307 118.617 59.9972 119.043 59.7301C119.472 59.4631 119.811 59.0696 120.061 58.5497C120.314 58.0298 120.441 57.392 120.441 56.6364ZM126.155 52.2727V61H125.098V53.3807H125.047L122.917 54.7955V53.7216L125.098 52.2727H126.155Z" fill="black"/>
<path d="M116.297 35.5361L112.023 47.5361H108.898L104.625 35.5361H107.641L110.398 44.4502H110.523L113.289 35.5361H116.297ZM127.738 38.708L125.16 38.9892C125.087 38.7288 124.96 38.484 124.777 38.2549C124.6 38.0257 124.361 37.8408 124.059 37.7002C123.757 37.5596 123.387 37.4892 122.949 37.4892C122.361 37.4892 121.866 37.6168 121.465 37.8721C121.069 38.1273 120.874 38.458 120.879 38.8642C120.874 39.2132 121.001 39.4971 121.262 39.7158C121.527 39.9346 121.965 40.1142 122.574 40.2549L124.621 40.6924C125.757 40.9372 126.6 41.3252 127.152 41.8564C127.71 42.3877 127.991 43.083 127.996 43.9424C127.991 44.6976 127.77 45.3642 127.332 45.9424C126.9 46.5153 126.298 46.9632 125.527 47.2861C124.757 47.609 123.871 47.7705 122.871 47.7705C121.402 47.7705 120.22 47.4632 119.324 46.8486C118.428 46.2288 117.895 45.3668 117.723 44.2627L120.48 43.9971C120.605 44.5387 120.871 44.9476 121.277 45.2236C121.684 45.4997 122.212 45.6377 122.863 45.6377C123.535 45.6377 124.074 45.4997 124.48 45.2236C124.892 44.9476 125.098 44.6064 125.098 44.2002C125.098 43.8564 124.965 43.5726 124.699 43.3486C124.439 43.1247 124.033 42.9528 123.48 42.833L121.434 42.4033C120.283 42.1637 119.431 41.7601 118.879 41.1924C118.327 40.6195 118.053 39.8955 118.059 39.0205C118.053 38.2809 118.254 37.6403 118.66 37.0986C119.072 36.5517 119.642 36.1299 120.371 35.833C121.105 35.5309 121.952 35.3799 122.91 35.3799C124.316 35.3799 125.423 35.6793 126.23 36.2783C127.043 36.8773 127.546 37.6872 127.738 38.708Z" fill="#121212"/>
<rect x="180" y="19.5362" width="46" height="39" fill="#121212"/>
<path d="M202.184 27.9702C202.401 27.7754 202.662 27.6401 202.944 27.5768C203.225 27.5135 203.518 27.5243 203.794 27.6082C204.006 27.6802 204.189 27.8112 204.387 27.9412C204.543 28.0422 204.726 28.0862 204.868 28.2022C204.938 28.2602 204.881 28.3622 204.881 28.4342C205.065 28.8842 205.164 29.3762 205.008 29.8542C204.881 30.0142 204.655 30.0572 204.472 30.1302C204.443 30.3332 204.514 30.5202 204.542 30.7242C204.5 30.7532 204.472 30.7822 204.429 30.8112C204.698 30.7962 204.966 30.7382 205.235 30.6812C205.333 30.5792 205.488 30.6372 205.615 30.6222C205.629 30.4192 205.701 30.2312 205.701 30.0282C205.74 30.0255 205.778 30.0156 205.814 29.9992C205.827 30.1442 205.814 30.2892 205.856 30.4342C205.927 30.4922 206.04 30.4632 206.124 30.4772C206.124 30.5352 206.124 30.5932 206.138 30.6512C207.776 30.6372 209.429 30.6512 211.066 30.6512V30.8982H211.222V29.9552H211.405C211.405 30.2152 211.392 30.4622 211.405 30.7232C211.425 30.7415 211.45 30.7518 211.477 30.7522C211.477 30.7812 211.49 30.8392 211.49 30.8682C211.547 30.8102 211.617 30.7662 211.703 30.7952C211.716 30.8392 211.731 30.8822 211.745 30.9402C211.688 30.9982 211.66 31.0702 211.688 31.1582C212.14 31.1722 212.592 31.1582 213.058 31.1582C213.101 31.1002 213.171 31.0712 213.242 31.0422C213.272 31.0582 213.301 31.0777 213.327 31.1002H213.989C214.015 31.2092 214.02 31.3223 214.004 31.4332H213.326C213.301 31.461 213.272 31.4856 213.241 31.5062C213.171 31.4622 213.115 31.4332 213.044 31.3902H211.816C211.575 31.4622 211.321 31.4482 211.081 31.4042V31.6792H209.06C208.981 31.7511 208.883 31.7964 208.778 31.8092C208.821 32.0272 208.581 32.0852 208.495 32.2452C208.441 32.327 208.362 32.3882 208.27 32.4192C208.199 32.8682 208.355 33.2892 208.468 33.7092C208.341 33.7382 208.199 33.7812 208.072 33.8102C208.001 34.1002 207.931 34.4042 207.874 34.6942C207.843 34.824 207.781 34.9443 207.695 35.0451C207.609 35.1459 207.502 35.2244 207.38 35.2742C207.211 35.4772 206.985 35.6802 206.716 35.6942C206.617 35.7242 206.546 35.6512 206.476 35.5932C206.123 35.6222 205.798 35.4482 205.487 35.3032C205.149 35.1432 204.838 34.9402 204.513 34.7532C204.542 34.9552 204.443 35.1292 204.372 35.3032C204.527 35.3752 204.739 35.4332 204.824 35.6072C204.88 35.7372 204.937 35.8832 204.937 36.0422C204.923 36.5642 204.867 37.0862 204.838 37.6072C204.852 37.9842 204.669 38.3612 204.414 38.6372C204.245 38.6222 204.104 38.5492 203.949 38.4772C203.892 38.6072 203.765 38.7372 203.836 38.8972C203.892 39.0862 203.892 39.2892 203.977 39.4632C204.461 39.9785 204.862 40.5704 205.163 41.2162C205.459 41.8402 205.685 42.4922 205.926 43.1442C205.968 43.1442 206.052 43.1292 206.095 43.1292C206.152 43.3182 206.095 43.5352 206.208 43.7092C206.307 43.8692 206.278 44.0572 206.278 44.2452C206.25 44.6802 206.222 45.1152 206.18 45.5502C206.151 45.8542 206.081 46.1592 206.039 46.4632C206.052 46.6952 206.152 46.9272 206.137 47.1592C206.123 47.3762 206.123 47.6082 205.954 47.7672C205.968 48.2602 205.841 48.7532 206.01 49.2312C206.237 49.5512 206.491 49.8542 206.759 50.1302C207.055 50.2752 207.409 50.3042 207.663 50.5652C207.76 50.7252 207.705 50.9122 207.677 51.0862C207.072 51.1732 206.459 51.1732 205.855 51.0862C205.615 51.0282 205.389 50.9272 205.149 50.8982C204.824 50.9122 204.443 51.0432 204.146 50.8112C204.118 50.4202 204.26 50.0432 204.33 49.6662C204.358 49.5362 204.486 49.4492 204.471 49.3182C204.442 48.8682 204.414 48.4052 204.386 47.9562C204.33 47.9262 204.23 47.8982 204.245 47.8112C204.245 47.5932 204.175 47.3762 204.118 47.1732C204.024 46.6179 203.972 46.0558 203.962 45.4922C203.949 45.3322 204.047 45.2162 204.16 45.1152C204.189 44.8692 204.217 44.6082 204.231 44.3612C204.188 44.2312 204.09 44.1292 204.033 44.0132C203.779 44.0432 203.412 44.1002 203.257 43.8252C202.89 43.2602 202.508 42.6802 202.141 42.1152C201.985 42.1002 201.802 42.1152 201.661 42.0132C201.505 41.8392 201.407 41.6082 201.307 41.3902C201.265 41.5642 201.237 41.7522 201.138 41.8972C201.053 42.0422 200.913 42.1442 200.813 42.2742C200.715 42.5062 200.63 42.7382 200.545 42.9702C200.446 43.2602 200.305 43.5502 200.276 43.8692C200.266 44.0231 200.232 44.1744 200.178 44.3182C200.107 44.4342 199.98 44.4782 199.867 44.5352C199.782 44.7242 199.726 44.9122 199.599 45.0722C199.514 45.1732 199.373 45.2022 199.317 45.3322C199.26 45.5062 199.175 45.6662 199.104 45.8252C199.076 45.9992 199.189 46.1882 199.133 46.3612C199.034 46.7962 198.822 47.2022 198.625 47.5932C198.525 47.8832 198.455 48.1882 198.313 48.4632C198.257 48.5792 198.116 48.6082 198.003 48.6232C197.877 48.9412 197.734 49.2462 197.65 49.5792C197.613 49.9013 197.603 50.2263 197.621 50.5502C197.621 50.6952 197.707 50.8112 197.763 50.9412C197.819 51.1152 197.777 51.2892 197.749 51.4632C197.198 51.5362 196.633 51.5932 196.096 51.4202C196.04 51.3762 196.054 51.3042 196.04 51.2462C195.998 50.9852 195.97 50.7102 196.054 50.4632C196.238 49.7822 196.394 49.1012 196.577 48.4202C196.507 48.3472 196.407 48.2902 196.407 48.1732C196.394 47.9852 196.407 47.7822 196.45 47.5932C196.535 47.2742 196.76 47.0282 196.873 46.7232C196.916 46.5932 196.902 46.4632 196.916 46.3332C196.916 46.0282 197.085 45.7822 197.212 45.5212C197.339 45.3032 197.438 45.0712 197.608 44.8832C197.721 44.7822 197.721 44.6232 197.805 44.4922C197.89 44.3322 198.031 44.2022 198.031 44.0132C198.06 43.7822 197.975 43.5502 198.002 43.3182C198.06 42.6372 198.187 41.9702 198.299 41.2882C198.243 41.2162 198.158 41.1442 198.13 41.0422C198.144 40.9702 198.159 40.9122 198.173 40.8392L198.046 40.6222C198.102 40.5352 198.158 40.4342 198.215 40.3472C198.158 40.3032 198.088 40.2452 198.031 40.2022C198.102 39.9842 198.073 39.6652 198.328 39.5642C198.357 39.5782 198.427 39.5932 198.454 39.6072C198.412 39.2312 198.412 38.8392 198.371 38.4622C198.277 38.059 198.252 37.642 198.299 37.2302C198.441 37.0132 198.709 36.9262 198.949 36.9122C198.638 36.8392 198.328 36.8102 198.031 36.7092C198.017 36.4482 198.06 36.1872 198.102 35.9262C198.228 35.4192 198.173 34.8972 198.243 34.3762C198.314 34.2302 198.497 34.2012 198.652 34.2302C198.836 34.2602 199.019 34.2012 199.204 34.1432C199.204 34.0712 199.217 33.9832 199.204 33.9112C199.091 33.4042 199.119 32.8822 199.204 32.3902C199.317 31.7522 199.571 31.1292 200.037 30.6802C200.347 30.3752 200.8 30.2302 201.222 30.2452C201.364 30.2452 201.449 30.3902 201.562 30.4772C201.618 30.4192 201.675 30.3612 201.717 30.3032C201.646 30.0562 201.533 29.7952 201.548 29.5342C201.576 28.9542 201.759 28.3602 202.183 27.9692M206.589 32.0712C206.617 32.1002 206.617 32.1002 206.589 32.0712ZM206.787 32.1002C206.801 32.2012 206.829 32.3032 206.772 32.3902C206.702 32.4192 206.617 32.4192 206.546 32.4622C206.744 32.4622 206.942 32.4772 207.141 32.4622C207.296 32.4192 207.238 32.2162 207.238 32.1002C207.141 31.9842 206.928 32.0562 206.787 32.1002ZM206.293 32.7092C206.434 32.8682 206.504 33.1142 206.631 33.2742C206.815 33.0272 206.957 32.7662 207.168 32.5492C206.915 32.5342 206.659 32.5642 206.406 32.5342C206.363 32.5922 206.335 32.6502 206.293 32.7082V32.7092Z" fill="white"/>
<path d="M50.344 52.8373C50.6369 52.9717 51.6563 53.489 52.0572 53.7052C52.1878 53.7756 52.3804 53.881 52.5923 53.997C53.0486 54.2467 53.5942 54.5452 53.8015 54.6482C53.8692 54.6818 53.9541 54.7267 54.0502 54.7792C53.7509 54.4262 53.5096 54.1507 53.4145 54.0582C53.2332 53.882 52.8294 53.4827 52.4369 53.0946L52.4232 53.081C52.0331 52.6953 51.6575 52.3239 51.5149 52.1855C51.2358 51.915 49.9549 50.81 49.3487 50.2895C48.946 49.9437 48.1956 49.3534 47.6289 48.9075C47.3617 48.6973 47.1354 48.5193 47.0055 48.4141L47.3152 48.0253L47.0055 48.4141C46.721 48.1836 45.8895 47.598 45.2976 47.1811C45.129 47.0624 44.9798 46.9574 44.8683 46.8781C44.6777 46.7427 44.3827 46.5271 44.0884 46.3119C44.0022 46.249 43.9161 46.186 43.8327 46.1251C43.647 45.9896 43.4741 45.8639 43.34 45.7681C43.2275 45.6877 43.1635 45.6439 43.1393 45.6273C43.1307 45.6214 43.1271 45.6189 43.1281 45.6195C43.0857 45.5967 42.9379 45.5143 42.8656 45.3302C42.8229 45.2213 42.8162 45.0985 42.8529 44.9816C42.8868 44.8741 42.9477 44.8013 42.9931 44.7585C43.0769 44.6793 43.1691 44.644 43.213 44.6288C43.2674 44.6101 43.322 44.5984 43.3705 44.5906C43.558 44.5605 43.8147 44.5643 44.1048 44.6069L44.0461 45.0509L44.1048 44.6069C44.1585 44.6148 44.226 44.6242 44.3049 44.6352C44.9344 44.7226 46.2913 44.9111 47.1718 45.2551C47.6385 45.4373 48.4058 45.7494 49.1355 46.065C49.8504 46.3742 50.574 46.7055 50.9228 46.9228C51.1298 47.0518 51.3989 47.1991 51.7203 47.3751C51.8584 47.4507 52.0062 47.5316 52.1628 47.6186C52.6707 47.9006 53.2466 48.2337 53.7984 48.617C54.3236 48.9818 54.6936 49.225 54.9881 49.4153C55.0582 49.4606 55.1249 49.5035 55.189 49.5447C55.3912 49.6747 55.5678 49.7883 55.7441 49.9095L55.4663 50.3221L55.7441 49.9095C56.1816 50.2105 57.3225 51.0522 57.4176 51.1224L57.4216 51.1254L57.4353 51.1358L57.4393 51.1388C57.5336 51.2113 58.7287 52.1313 59.3636 52.67C59.2287 52.4744 59.0862 52.2658 58.8875 51.9476C58.4996 51.3265 57.8374 50.4827 56.6669 49.4354C56.159 48.981 55.9602 48.8007 55.8021 48.6573C55.583 48.4585 55.4421 48.3307 54.6648 47.6424C54.6653 47.6428 54.662 47.64 54.6528 47.6323L54.6187 47.6046C54.59 47.5816 54.5521 47.5515 54.5054 47.5148C54.4122 47.4416 54.2874 47.3447 54.1389 47.2302C53.8421 47.0015 53.4536 46.7048 53.0408 46.3921C52.2122 45.7647 51.2957 45.0807 50.8231 44.7501C49.8594 44.0759 48.3827 43.0748 47.4211 42.5258L47.6628 42.0906L47.421 42.5258L47.407 42.5178C46.4056 41.9461 44.6837 40.9645 43.7456 40.5808C42.7595 40.1775 40.6382 39.3325 39.8402 39.0726C39.6866 39.0226 39.5488 38.9768 39.4178 38.9334C38.8451 38.7434 38.404 38.597 37.3601 38.3284L37.2567 38.3018L37.3699 37.8341L37.2567 38.3018C36.0994 38.0039 35.4187 37.829 34.6388 37.7001C34.5791 37.6914 34.5222 37.6824 34.4685 37.673L34.4644 37.6723L34.4644 37.6722C34.4639 37.6722 34.4634 37.6721 34.463 37.672L34.468 37.6408C34.2917 37.5409 34.185 37.3396 34.2146 37.1281C34.2442 36.9169 34.4013 36.7567 34.5972 36.7143L34.6018 36.6811L34.6116 36.6826L34.6117 36.6826C34.6676 36.6913 34.7229 36.7001 34.7778 36.7091C35.6713 36.8381 37.5134 36.912 39.038 36.7122C39.7062 36.6246 40.5132 36.7047 41.2459 36.8298C41.9879 36.9564 42.6957 37.1367 43.1815 37.2729C43.3566 37.322 43.5794 37.2643 43.7668 37.0779C43.8344 37.0107 43.9067 36.9367 43.9834 36.8583C44.3561 36.4772 44.8288 35.994 45.3269 35.6993L45.358 35.6809L45.3581 35.6809L45.3638 35.6774C45.9072 35.3556 46.6765 34.9 47.9282 35.0214C49.0905 35.1341 50.5264 35.4996 51.502 35.8303L51.3484 36.3052L51.502 35.8303C52.0162 36.0046 52.6217 36.3041 53.1688 36.5749C53.7396 36.8574 54.2404 37.1051 54.6069 37.2245C54.9624 37.3403 55.5436 37.4338 56.1486 37.4948C56.7467 37.5552 57.3194 37.5792 57.6393 37.5702L57.66 38.0713L57.6394 37.5702C57.6728 37.5692 57.706 37.5683 57.7389 37.5674C58.3912 37.5496 58.9493 37.5343 59.7844 37.3258C60.0108 37.2692 60.2516 37.2134 60.4927 37.1575L60.5313 37.1485C60.787 37.0892 61.0432 37.0296 61.2928 36.9668C61.7981 36.8395 62.2461 36.7064 62.5751 36.5548C63.3115 36.2153 63.902 35.9366 64.6959 35.3678C64.695 35.3645 64.6936 35.3604 64.6916 35.3557C64.6829 35.335 64.668 35.3169 64.6528 35.306C64.6402 35.297 64.6286 35.2931 64.6134 35.2934C64.2289 35.2995 63.8189 35.2828 63.4295 35.2217C62.0698 35.0084 58.5487 33.9943 55.583 32.4354C52.6631 30.9007 49.1641 28.9485 47.9219 28.1672L48.1822 27.7432L47.9219 28.1672C47.377 27.8246 46.434 27.4983 45.3766 27.1809C45.0362 27.0787 44.6843 26.9775 44.3375 26.8779C43.6463 26.6792 42.9757 26.4864 42.4577 26.3031C40.9713 25.7772 38.9152 25.3667 37.4001 25.4206C37.0748 25.4322 36.6672 25.4434 36.2124 25.4558C35.5217 25.4748 34.722 25.4967 33.9361 25.5275C33.2914 25.5528 32.6716 25.5837 32.1563 25.6229C31.6281 25.6631 31.2474 25.7096 31.0579 25.7578L30.93 25.2737L31.0579 25.7578C30.9309 25.7901 30.7851 25.8262 30.6247 25.8659C30.1724 25.9778 29.6048 26.1182 29.0212 26.2824C28.2251 26.5065 27.4473 26.7622 26.9357 27.0259C26.7684 27.1121 26.5886 27.2035 26.4005 27.2991C25.2929 27.8619 23.897 28.5714 23.064 29.2396C22.5633 29.6413 21.972 30.1644 21.3733 30.6963C21.3422 30.724 21.311 30.7516 21.2799 30.7793C20.7172 31.2794 20.152 31.7816 19.6732 32.1721C19.1652 32.5864 18.525 33.06 17.8391 33.4542C17.1594 33.845 16.4018 34.1771 15.6644 34.275C14.8857 34.3783 13.9738 34.1448 13.1695 33.7373C12.3603 33.3273 11.5883 32.7054 11.1133 31.9488L11.534 31.6852L11.1133 31.9487C10.278 30.6181 8.9043 28.0995 8.34389 26.1744C8.21152 25.7196 8.08042 25.2738 7.95792 24.86C7.82982 24.4272 7.3005 24.3984 7.12106 24.7572C6.71222 25.5746 6.34266 26.3894 6.22231 26.8544C5.91152 28.0552 5.67662 29.2575 5.59282 29.7643L5.59282 29.7644C5.50739 30.281 5.38953 31.0297 5.30333 31.8975L4.80714 31.841L5.30333 31.8975C5.21716 32.7649 5.15694 34.2501 5.20993 35.0976C5.265 35.9782 5.40564 37.6099 5.58524 38.5899C5.76899 39.5925 6.09299 41.1255 6.42977 42.338C6.47593 42.5042 6.52434 42.6804 6.57486 42.8642C6.90347 44.06 7.32099 45.5794 7.78707 46.7836C8.33878 48.209 9.07395 50.0366 9.42912 50.7546C9.50692 50.9119 9.61877 51.1412 9.75128 51.4129C10.2642 52.4646 11.0868 54.1511 11.4421 54.7502C11.7941 55.3438 12.3962 56.2823 12.8898 57.0516C13.0335 57.2756 13.1681 57.4854 13.2845 57.668C13.4972 58.0016 13.7814 58.4044 14.039 58.7586C14.1987 58.9783 14.5159 59.0257 14.7388 58.844C15.4545 58.2605 16.4975 57.4222 17.0335 57.0512C17.1409 56.9769 17.24 56.9075 17.3351 56.8409C17.9946 56.3789 18.4572 56.0548 20.098 55.2114C21.9433 54.2629 23.1904 53.6682 23.9181 53.4014C24.6349 53.1385 26.9328 52.4724 28.6012 52.3822C29.0778 52.3565 29.4161 52.3307 29.7018 52.3089C30.3524 52.2592 30.7299 52.2304 31.8454 52.2706C33.4527 52.3284 34.823 52.5124 36.321 52.9495C37.769 53.3719 39.6931 53.9947 40.7345 54.4923C40.902 54.5724 41.0628 54.6482 41.2193 54.722C41.9833 55.0821 42.6446 55.394 43.4911 55.916C43.5479 55.951 43.6064 55.987 43.6663 56.0239C44.641 56.624 46.0022 57.4621 47.1438 58.409C47.4797 58.6876 47.7184 58.8761 47.9233 59.038C48.4228 59.4325 48.7216 59.6685 49.7384 60.6645C49.7677 60.6932 49.7932 60.713 49.8142 60.7267C49.8069 60.6974 49.793 60.6589 49.767 60.6115C49.4612 60.053 49.1759 59.5461 48.9876 59.2414C48.9167 59.1268 48.8427 59.0066 48.7666 58.8829C48.5315 58.5012 48.2766 58.0871 48.035 57.709C47.7058 57.1938 47.4333 56.797 47.283 56.6351C47.1383 56.4792 46.8719 56.1723 46.5772 55.8329C46.4746 55.7146 46.3685 55.5925 46.263 55.4714C45.8415 54.9876 45.4323 54.5254 45.224 54.3232C44.9952 54.1011 44.4564 53.5726 43.9617 53.083C43.7143 52.8381 43.4769 52.6021 43.2944 52.4185C43.1281 52.2512 42.9725 52.0933 42.9229 52.0309C42.8152 51.8956 42.7268 51.708 42.7434 51.4923C42.7612 51.2612 42.8989 51.061 43.1113 50.9665L43.1114 50.9665C43.1004 50.9714 43.495 50.7086 43.9983 50.7604M50.344 52.8373C50.344 52.8373 50.344 52.8373 50.344 52.8373L50.142 53.2929L50.344 52.8373ZM50.344 52.8373C50.2487 52.7936 50.0913 52.7204 49.8846 52.6243C49.791 52.5807 49.6873 52.5325 49.5747 52.4802C49.2147 52.313 48.7666 52.1053 48.2749 51.8797C48.2644 51.8749 48.2538 51.8704 48.243 51.8664C47.7925 51.6959 47.7508 51.6744 47.7259 51.6629C47.6572 51.631 47.6022 51.6093 47.2163 51.4706L47.2163 51.4706C46.9443 51.3728 46.8987 51.3543 46.8521 51.3389C46.7927 51.3193 46.7318 51.3047 46.1988 51.1378L46.0563 51.6163M46.0563 51.6163L46.1987 51.1378C45.358 50.8745 44.5582 50.8079 44.1592 50.7747C44.0946 50.7693 44.0404 50.7648 43.9983 50.7604M46.0563 51.6163C46.6017 51.7871 46.6564 51.7997 46.7094 51.8173C46.7504 51.831 46.7903 51.8477 47.0541 51.9425M46.0563 51.6163L47.0541 51.9425M43.9983 50.7604C43.9983 50.7604 43.9983 50.7604 43.9983 50.7604L43.9542 51.2592L43.9983 50.7604ZM47.0541 51.9425C47.456 52.0869 47.4796 52.0979 47.5243 52.1186C47.5674 52.1387 47.6301 52.1678 48.0729 52.3353L47.0541 51.9425ZM43.5897 44.7369C43.5918 44.7381 43.5962 44.7404 43.6023 44.744C43.5975 44.7412 43.593 44.7387 43.5888 44.7364L43.5897 44.7369Z" fill="white" stroke="#121212" stroke-linejoin="round"/>
<path d="M20.541 36.4824C20.541 36.4824 22.2868 34.6507 23.1064 34.0307C23.9261 33.4106 24.7659 33.0535 26.3237 33.0766C28.0863 33.1027 28.9069 33.5892 30.1679 32.922C29.8926 33.424 28.9004 34.4272 28.2667 35.0273C27.4896 35.7142 26.8422 36.3402 26.0059 36.7292C25.4091 37.0068 25.3824 36.8156 24.3919 36.616C23.963 36.5296 23.0623 36.2553 22.5074 36.2363C21.58 36.2047 20.7943 36.4224 20.6121 36.4641L20.541 36.4824Z" fill="#6A4389" style="mix-blend-mode:darken"/>
<path d="M20.541 36.4824C20.541 36.4824 22.2868 34.6507 23.1064 34.0307C23.9261 33.4106 24.7659 33.0535 26.3237 33.0766C28.0863 33.1027 28.9069 33.5892 30.1679 32.922C29.8926 33.424 28.9004 34.4272 28.2667 35.0273C27.4896 35.7142 26.8422 36.3402 26.0059 36.7292C25.4091 37.0068 25.3824 36.8156 24.3919 36.616C23.963 36.5296 23.0623 36.2553 22.5074 36.2363C21.58 36.2047 20.7943 36.4224 20.6121 36.4641L20.541 36.4824Z" stroke="#121212"/>
</svg>
