<svg width="121" height="57" viewBox="0 0 121 57" fill="none" xmlns="http://www.w3.org/2000/svg">
<g filter="url(#filter0_d_412_767)">
<rect x="48.3229" y="21.3229" width="24.3542" height="14.3542" rx="7.17708" fill="white" stroke="#D9D9D9" stroke-width="2.64583"/>
<path fill-rule="evenodd" clip-rule="evenodd" d="M60.6932 32.1529C59.774 32.8812 58.5816 33.3209 57.2787 33.3209C54.3714 33.3209 52.0146 31.1318 52.0146 28.4313C52.0146 25.7308 54.3714 23.5417 57.2787 23.5417C58.5816 23.5417 59.774 23.9814 60.6932 24.7097C61.6124 23.9814 62.8047 23.5417 64.1076 23.5417C67.0149 23.5417 69.3717 25.7308 69.3717 28.4313C69.3717 31.1318 67.0149 33.3209 64.1076 33.3209C62.8047 33.3209 61.6124 32.8812 60.6932 32.1529Z" fill="#ED0006"/>
<path fill-rule="evenodd" clip-rule="evenodd" d="M60.6931 32.1529C61.825 31.256 62.5426 29.9215 62.5426 28.4313C62.5426 26.9411 61.825 25.6066 60.6931 24.7098C61.6123 23.9814 62.8047 23.5417 64.1076 23.5417C67.0149 23.5417 69.3717 25.7308 69.3717 28.4313C69.3717 31.1318 67.0149 33.3209 64.1076 33.3209C62.8047 33.3209 61.6123 32.8812 60.6931 32.1529Z" fill="#F9A000"/>
<path fill-rule="evenodd" clip-rule="evenodd" d="M60.693 32.1528C61.8249 31.256 62.5426 29.9215 62.5426 28.4313C62.5426 26.9411 61.8249 25.6066 60.693 24.7097C59.5612 25.6066 58.8435 26.9411 58.8435 28.4313C58.8435 29.9215 59.5612 31.256 60.693 32.1528Z" fill="#FF5E00"/>
</g>
<g filter="url(#filter1_d_412_767)">
<rect x="76.3229" y="21.3229" width="23.3542" height="14.3542" rx="7.17708" fill="white" stroke="#D9D9D9" stroke-width="2.64583"/>
<path fill-rule="evenodd" clip-rule="evenodd" d="M82.4285 28.1935C82.4285 30.9362 84.7742 33.1729 87.6785 33.1729C88.035 33.1729 88.3914 33.1432 88.801 33.109C89.2578 33.0708 89.7806 33.0272 90.4431 33.0131C91.4485 33.0131 92.5376 33.3593 93.7384 34.3712C93.8501 34.4777 94.0176 34.3445 93.9059 34.2114C92.7051 32.8001 91.616 32.5338 90.5269 32.2942C89.1865 32.0013 88.4883 31.309 88.0136 30.5101C87.9298 30.3504 87.874 30.377 87.874 30.59C87.846 30.9095 87.874 31.2024 87.9298 31.4954H87.7623C85.8633 31.4954 84.2995 30.0042 84.2995 28.1935C84.2995 26.3828 85.8633 24.8917 87.7623 24.8917C89.6612 24.8917 91.2251 26.3828 91.2251 28.1935C91.2251 28.3 91.2251 28.4332 91.1971 28.5663C90.9179 28.513 90.4431 28.513 90.0801 28.5397C89.9405 28.5397 89.9405 28.5929 90.0522 28.6195C91.1692 28.8326 91.9511 29.4983 92.1466 30.7231C92.1466 30.7764 92.1745 30.7764 92.2024 30.7498C92.6493 30.0042 92.9285 29.1255 92.9285 28.1935C92.9285 25.4242 90.5828 23.1875 87.6785 23.1875C84.7742 23.1875 82.4285 25.4508 82.4285 28.1935ZM91.4764 30.2438C91.6719 30.3237 91.7556 30.59 91.7556 30.7231C91.7836 30.9362 91.7277 31.0427 91.6439 31.0427C91.5602 31.0427 91.4485 30.9628 91.3368 30.7764C91.2251 30.59 91.1692 30.4036 91.2251 30.2971C91.3088 30.2438 91.3926 30.2172 91.4764 30.2438ZM90.3316 31.0693C90.4433 31.0693 90.5829 31.1226 90.7225 31.2291C90.9459 31.4155 91.0297 31.6285 90.918 31.7883C90.8621 31.8682 90.7225 31.9214 90.6108 31.9214C90.4712 31.9214 90.3316 31.8682 90.2478 31.7883C90.0244 31.6019 89.9685 31.3356 90.1082 31.1758C90.1361 31.1226 90.2199 31.0693 90.3316 31.0693Z" fill="#F28A1A"/>
</g>
<g filter="url(#filter2_d_412_767)">
<rect x="21.3229" y="21.3229" width="23.3542" height="14.3542" rx="7.17708" fill="white" stroke="#D9D9D9" stroke-width="2.64583"/>
<path fill-rule="evenodd" clip-rule="evenodd" d="M27.893 31.5163H26.3179L25.1367 27.2196C25.0807 27.022 24.9616 26.8472 24.7865 26.7649C24.3496 26.5579 23.8681 26.3932 23.3428 26.3102V26.1447H25.8801C26.2303 26.1447 26.493 26.3932 26.5367 26.6818L27.1496 29.7811L28.7239 26.1447H30.2552L27.893 31.5163ZM31.131 31.5163H29.6434L30.8683 26.1447H32.3559L31.131 31.5163ZM34.28 27.6328C34.3238 27.3435 34.5865 27.1781 34.8929 27.1781C35.3744 27.1366 35.8989 27.2196 36.3367 27.4259L36.5993 26.2694C36.1616 26.1039 35.68 26.0209 35.2431 26.0209C33.7993 26.0209 32.7487 26.7649 32.7487 27.7975C32.7487 28.5831 33.4929 28.9956 34.0182 29.2441C34.5865 29.4919 34.8053 29.6573 34.7616 29.9051C34.7616 30.2767 34.3238 30.4421 33.8869 30.4421C33.3616 30.4421 32.8363 30.3183 32.3555 30.1113L32.0929 31.2685C32.6182 31.4748 33.1865 31.5578 33.7118 31.5578C35.3306 31.5987 36.3367 30.8553 36.3367 29.7396C36.3367 28.3346 34.28 28.2523 34.28 27.6328V27.6328ZM41.5427 31.5163L40.3616 26.1447H39.0929C38.8302 26.1447 38.5676 26.3102 38.4801 26.5579L36.2929 31.5163H37.8242L38.1299 30.7314H40.0114L40.1865 31.5163H41.5427ZM39.3119 27.5913L39.7489 29.6157H38.524L39.3119 27.5913Z" fill="#172B85"/>
</g>
<defs>
<filter id="filter0_d_412_767" x="27" y="0" width="67" height="57" filterUnits="userSpaceOnUse" color-interpolation-filters="sRGB">
<feFlood flood-opacity="0" result="BackgroundImageFix"/>
<feColorMatrix in="SourceAlpha" type="matrix" values="0 0 0 0 0 0 0 0 0 0 0 0 0 0 0 0 0 0 127 0" result="hardAlpha"/>
<feOffset/>
<feGaussianBlur stdDeviation="10"/>
<feComposite in2="hardAlpha" operator="out"/>
<feColorMatrix type="matrix" values="0 0 0 0 0 0 0 0 0 0 0 0 0 0 0 0 0 0 0.07 0"/>
<feBlend mode="normal" in2="BackgroundImageFix" result="effect1_dropShadow_412_767"/>
<feBlend mode="normal" in="SourceGraphic" in2="effect1_dropShadow_412_767" result="shape"/>
</filter>
<filter id="filter1_d_412_767" x="55" y="0" width="66" height="57" filterUnits="userSpaceOnUse" color-interpolation-filters="sRGB">
<feFlood flood-opacity="0" result="BackgroundImageFix"/>
<feColorMatrix in="SourceAlpha" type="matrix" values="0 0 0 0 0 0 0 0 0 0 0 0 0 0 0 0 0 0 127 0" result="hardAlpha"/>
<feOffset/>
<feGaussianBlur stdDeviation="10"/>
<feComposite in2="hardAlpha" operator="out"/>
<feColorMatrix type="matrix" values="0 0 0 0 0 0 0 0 0 0 0 0 0 0 0 0 0 0 0.07 0"/>
<feBlend mode="normal" in2="BackgroundImageFix" result="effect1_dropShadow_412_767"/>
<feBlend mode="normal" in="SourceGraphic" in2="effect1_dropShadow_412_767" result="shape"/>
</filter>
<filter id="filter2_d_412_767" x="0" y="0" width="66" height="57" filterUnits="userSpaceOnUse" color-interpolation-filters="sRGB">
<feFlood flood-opacity="0" result="BackgroundImageFix"/>
<feColorMatrix in="SourceAlpha" type="matrix" values="0 0 0 0 0 0 0 0 0 0 0 0 0 0 0 0 0 0 127 0" result="hardAlpha"/>
<feOffset/>
<feGaussianBlur stdDeviation="10"/>
<feComposite in2="hardAlpha" operator="out"/>
<feColorMatrix type="matrix" values="0 0 0 0 0 0 0 0 0 0 0 0 0 0 0 0 0 0 0.07 0"/>
<feBlend mode="normal" in2="BackgroundImageFix" result="effect1_dropShadow_412_767"/>
<feBlend mode="normal" in="SourceGraphic" in2="effect1_dropShadow_412_767" result="shape"/>
</filter>
</defs>
</svg>
