<svg width="144" height="104" viewBox="0 0 144 104" fill="none" xmlns="http://www.w3.org/2000/svg">
<path d="M9.3561 26.4648L9.3561 26.4648C9.25058 27.6271 9.11107 29.3053 9.05894 31.2403L7.56287 31.1874L9.05894 31.2403C9.00682 33.1742 9.10792 36.4687 9.35313 38.3188C9.61118 40.2658 10.1719 43.8519 10.7123 45.9768C11.2693 48.1674 12.2144 51.507 13.1355 54.1287C13.263 54.4918 13.3968 54.876 13.5363 55.2764C14.4425 57.8785 15.5858 61.1612 16.7841 63.7356C18.2153 66.8104 20.1006 70.7242 20.9788 72.2384C21.1768 72.5799 21.4607 73.0757 21.796 73.6614C23.083 75.9092 25.1281 79.4811 25.9879 80.7336C26.8459 81.9834 28.3018 83.9517 29.5004 85.572C29.8507 86.0457 30.1791 86.4896 30.4641 86.8771C31.0538 87.6789 31.8661 88.67 32.5455 89.4762C32.5982 89.5387 32.65 89.6 32.7007 89.6598C33.0959 89.2747 33.5665 88.8179 34.0671 88.3363C35.4143 87.0404 37.0312 85.513 37.9598 84.7429C38.1822 84.5585 38.3877 84.3861 38.5849 84.2206C39.9617 83.0657 40.9348 82.2494 44.4101 80.0594C48.2912 77.6137 50.9438 76.0491 52.5184 75.3102C54.0609 74.5863 59.0211 72.6653 62.7121 72.1512C63.7331 72.009 64.4629 71.8906 65.083 71.7901C66.5085 71.5588 67.3541 71.4217 69.8228 71.3057C73.3721 71.139 76.4326 71.2987 79.8176 72.0058L79.5296 73.4449L79.8176 72.0058C83.0466 72.6804 87.3816 73.7199 89.7723 74.6507C90.1475 74.7968 90.5086 74.9351 90.8609 75.0702C92.5886 75.7323 94.1071 76.3142 96.0619 77.3326C96.1928 77.4008 96.3275 77.4709 96.4657 77.5428C98.6866 78.6977 101.817 80.3258 104.486 82.2418C105.254 82.7929 105.802 83.1664 106.274 83.4885C107.097 84.0497 107.692 84.4553 108.824 85.3737C108.536 84.9383 108.28 84.5604 108.072 84.2704C107.899 84.027 107.717 83.772 107.531 83.51C106.958 82.7045 106.339 81.8342 105.754 81.0405C104.948 79.9462 104.312 79.146 103.991 78.8435C103.645 78.518 103.006 77.8756 102.307 77.1721C102.065 76.9293 101.816 76.6791 101.57 76.4323C100.568 75.428 99.6155 74.4893 99.1451 74.0915C98.6088 73.6381 97.3475 72.56 96.189 71.5609C95.6096 71.0612 95.053 70.5787 94.624 70.2024C94.2472 69.872 93.8569 69.5278 93.7189 69.3764C93.4142 69.0421 93.1379 68.5524 93.1411 67.9536C93.1445 67.3139 93.4785 66.716 94.0581 66.3947C93.952 66.4535 94.9184 65.6963 96.1744 65.7226M9.3561 26.4648L96.1556 67.2237M9.3561 26.4648C9.45894 25.3318 9.78259 22.6245 10.2717 19.9073C10.4863 18.7154 11.3541 16.4167 12.2458 14.2738C12.3137 14.1106 12.3812 13.9495 12.448 13.7911C12.9133 15.0407 13.4616 16.5227 14.0201 18.0522C15.5646 22.2824 18.9863 27.6686 21.0273 30.4856L22.2375 29.6102L21.0273 30.4856C22.2374 32.1558 24.0904 33.4402 25.9773 34.2268C27.8476 35.0064 29.9702 35.3869 31.7693 34.9895C33.4225 34.6243 35.0878 33.7546 36.5546 32.7765C38.0374 31.7877 39.4067 30.6276 40.4778 29.5879C41.7724 28.3313 43.0232 27.2272 44.2293 26.173C44.3498 26.0677 44.47 25.9627 44.5899 25.858C45.6612 24.9225 46.7065 24.0098 47.6818 23.0782C49.8051 21.05 53.2836 17.9733 55.3478 16.777C58.6856 14.8427 61.7263 13.4749 63.8855 12.6571C69.7657 10.43 73.7587 10.0535 77.5772 10.0535C81.0889 10.0535 85.5779 10.2045 88.7847 11.0692C92.1866 11.9864 98.3786 14.0558 101.017 15.4607C103.87 16.98 111.835 20.6883 118.458 23.5689C125.226 26.5125 133.127 28.1365 136.182 28.3661C136.783 28.4114 137.404 28.4082 138.014 28.374M9.3561 26.4648L138.014 28.374M96.1744 65.7226L96.1556 67.2237M96.1744 65.7226C96.1744 65.7226 96.1744 65.7226 96.1743 65.7226L96.1556 67.2237M96.1744 65.7226C96.2616 65.7244 96.3758 65.7245 96.5137 65.7246C97.3837 65.7251 99.1976 65.7262 101.129 66.1703L101.129 66.1703C101.945 66.3578 102.195 66.4116 102.353 66.4456C102.421 66.4602 102.472 66.4712 102.544 66.4875C102.635 66.5085 102.715 66.531 102.884 66.5786C103.005 66.6128 103.172 66.66 103.423 66.729L103.423 66.729C104.28 66.9648 104.426 67.0087 104.604 67.0755L104.611 67.0782C104.655 67.0952 104.78 67.1431 105.736 67.4236C105.753 67.4287 105.77 67.4341 105.788 67.4399C105.804 67.4453 105.82 67.4509 105.836 67.4568C106.946 67.8691 107.959 68.2494 108.772 68.5557C109.028 68.6518 109.262 68.7402 109.474 68.82C109.94 68.9957 110.294 69.1291 110.508 69.2086M96.1556 67.2237C96.2624 67.226 96.3937 67.2262 96.5464 67.2266C97.4378 67.2285 99.0588 67.232 100.806 67.6336C102.024 67.9138 102.146 67.9318 102.264 67.9614C102.356 67.9842 102.446 68.014 103.037 68.1767C103.938 68.4246 103.992 68.4447 104.092 68.4826C104.19 68.5192 104.331 68.5725 105.325 68.8642C106.777 69.4031 108.061 69.8873 108.952 70.223C109.42 70.3996 109.78 70.5352 109.997 70.6159M110.508 69.2086C110.508 69.2086 110.508 69.2086 110.508 69.2086L109.997 70.6159M110.508 69.2086L109.997 70.6159M110.508 69.2086C111.181 69.4587 113.499 70.4269 114.413 70.8365C114.717 70.9726 115.162 71.175 115.648 71.3965C116.097 71.6009 116.581 71.8214 117.023 72.0209M109.997 70.6159C110.628 70.8501 112.913 71.8041 113.811 72.2064C114.089 72.3307 114.509 72.522 114.978 72.7354C116.025 73.2124 117.316 73.8001 117.805 73.9997C118.261 74.1856 119.119 74.5921 119.947 75.0009C119.932 74.9853 119.918 74.9696 119.903 74.954C119.275 74.2905 118.66 73.6499 118.152 73.1314C117.622 72.5909 117.21 72.1832 117.023 72.0209M117.023 72.0209C117.016 72.0148 117.009 72.009 117.003 72.0035C116.577 71.6432 115.63 70.8272 114.713 70.0363L114.685 70.0126C113.77 69.2234 112.891 68.4658 112.559 68.1854C111.919 67.6452 108.962 65.4324 107.547 64.3794C106.62 63.6888 104.911 62.5286 103.606 61.643C102.983 61.2201 102.452 60.8598 102.143 60.6432L102.971 59.4482L102.143 60.6431C101.498 60.1917 99.615 59.0567 98.2565 58.2379C97.8645 58.0016 97.5161 57.7916 97.2538 57.6319C96.8135 57.364 96.1314 56.936 95.4539 56.5109C95.2562 56.3868 95.0588 56.263 94.868 56.1434C94.4409 55.8759 94.0451 55.629 93.739 55.4415C93.5497 55.3256 93.428 55.2534 93.3604 55.2133C93.2975 55.176 93.2814 55.1665 93.3013 55.1753C93.1774 55.1201 92.7275 54.9111 92.4786 54.3828C92.1292 53.6413 92.4559 52.9888 92.7253 52.6869C92.9496 52.4355 93.2048 52.3123 93.3191 52.2614C93.4631 52.1974 93.6045 52.1545 93.7245 52.1244C94.1852 52.0092 94.7938 51.9711 95.4621 52.0147C95.5762 52.0222 95.7214 52.0304 95.8926 52.0402C97.2702 52.1184 100.329 52.2921 102.363 52.9132C103.417 53.2348 105.147 53.7903 106.797 54.3606C108.4 54.9149 110.066 55.5301 110.896 55.9677C111.358 56.2109 111.951 56.4814 112.674 56.8107C112.99 56.9547 113.331 57.1099 113.696 57.279C114.854 57.8153 116.18 58.4581 117.465 59.2209C118.665 59.9335 119.507 60.4045 120.177 60.7723C120.335 60.8588 120.486 60.9411 120.632 61.0206C121.095 61.2736 121.507 61.4983 121.918 61.7394L121.185 63.0033L121.918 61.7394C122.454 62.0548 123.432 62.6628 124.257 63.1803C124.673 63.4415 125.057 63.6836 125.337 63.8604L125.67 64.071L125.761 64.1289L125.785 64.1441L125.791 64.148L125.793 64.149L125.793 64.1493L125.793 64.1493L124.999 65.4159M117.023 72.0209C117.597 72.2799 118.1 72.5034 118.36 72.6096C118.904 72.8313 119.922 73.3169 120.845 73.7761C119.612 72.4761 118.368 71.2019 117.965 70.8601C117.539 70.5001 116.578 69.6714 115.644 68.8666C114.737 68.085 113.857 67.326 113.519 67.0407C112.833 66.4615 109.821 64.2087 108.435 63.1769C107.483 62.4679 105.687 61.2491 104.371 60.3551C103.771 59.9481 103.271 59.6084 102.994 59.4148C102.301 58.9296 100.326 57.7389 98.9668 56.92C98.5924 56.6944 98.2649 56.497 98.0239 56.3504C97.5935 56.0884 96.9252 55.6691 96.2498 55.2453C96.1462 55.1803 96.0425 55.1152 95.9394 55.0505C95.8899 55.0476 95.8415 55.0447 95.7944 55.0419C95.6057 55.0308 95.4366 55.0208 95.2919 55.0113M128.236 65.794C127.289 64.5713 125.797 62.9981 123.4 61.1355C122.214 60.2133 121.751 59.8488 121.384 59.5594C120.877 59.1592 120.552 58.9029 118.746 57.5143C118.75 57.518 118.728 57.5009 118.655 57.4504C118.591 57.4058 118.505 57.3468 118.398 57.2743C118.184 57.1295 117.897 56.9375 117.555 56.7104C116.872 56.2565 115.977 55.6683 115.027 55.0488C113.117 53.8039 111.013 52.4543 109.937 51.8101C107.725 50.4863 104.356 48.5387 102.188 47.503C99.9025 46.4108 95.9905 44.5437 93.904 43.8695C91.6811 43.1512 86.9294 41.6652 85.1635 41.2374C84.8182 41.1538 84.5086 41.077 84.2151 41.0042C82.9368 40.687 81.9622 40.4452 79.6539 40.0412L79.4725 40.0094C76.6732 39.5194 75.1431 39.2515 73.2657 39.1168C72.308 39.048 71.8165 38.9863 71.5228 38.9165C71.3492 38.9072 71.1997 38.8778 71.0986 38.8526C71.0257 38.8344 70.8358 38.7847 70.6349 38.6697L70.631 38.6675C70.5638 38.6291 70.2457 38.4476 70.0353 38.0573C69.9035 37.8127 69.8002 37.4556 69.8805 37.0448C69.9579 36.6488 70.1712 36.3816 70.3345 36.2307C70.6098 35.9762 70.9075 35.8958 70.9787 35.8766L70.9816 35.8758C71.0983 35.8442 71.201 35.8302 71.2663 35.8231C71.401 35.8084 71.5401 35.8059 71.6661 35.8073C71.9263 35.8103 72.287 35.8326 72.7777 35.8788C74.5969 36.0506 79.6162 36.1369 83.0339 35.3877C85.1344 34.9273 87.9053 35.1702 89.9966 35.472C91.0738 35.6274 92.0313 35.8082 92.7196 35.9501C92.7532 35.957 92.7861 35.9638 92.8185 35.9706C92.9409 35.7994 93.075 35.6217 93.2066 35.4664C93.3369 35.3125 93.4784 35.1406 93.63 34.9566C94.3826 34.0425 95.381 32.8299 96.4696 32.0502C96.4972 32.0304 96.5251 32.0104 96.5534 31.9901C97.6954 31.1706 99.4007 29.9471 102.295 29.9903C104.896 30.0291 108.126 30.5866 110.331 31.1492L109.973 32.6002L110.331 31.1492C111.513 31.4508 112.908 32.017 114.136 32.515L114.145 32.5188C115.45 33.0481 116.548 33.4921 117.33 33.6814L128.236 65.794ZM128.236 65.794C128.057 65.671 127.88 65.5503 127.708 65.434C127.194 65.0845 126.722 64.7677 126.378 64.5382C126.206 64.4235 126.067 64.3304 125.97 64.266L125.858 64.1916L125.828 64.1721L125.821 64.167L125.819 64.1657L125.818 64.1653L125.818 64.1652L124.999 65.4159M128.236 65.794L95.312 54.6577L95.292 55.0113C95.2919 55.0113 95.2919 55.0113 95.2919 55.0113M124.999 65.4159L125.818 64.1652L125.793 64.1494L124.999 65.4159ZM95.2919 55.0113L95.312 54.6577C95.2395 54.6124 95.1684 54.5681 95.0991 54.5249C95.0532 54.5962 95.0068 54.6541 94.967 54.6987C94.781 54.9072 94.59 54.9918 94.5554 55.0072L94.5537 55.0079C94.5106 55.0271 94.4816 55.036 94.4734 55.0382C94.5383 55.022 94.8152 54.9802 95.2919 55.0113ZM95.3078 53.5088C95.3307 53.5101 95.3537 53.5115 95.377 53.513C95.5066 53.5215 95.6644 53.5306 95.8453 53.5411C96.0115 53.5508 96.1973 53.5616 96.3987 53.574L95.3078 53.5088ZM95.3078 53.5088C95.2858 53.3736 95.2449 53.2423 95.1869 53.1192C94.9934 52.7086 94.6783 52.5206 94.5512 52.457M95.3078 53.5088L94.5512 52.457M94.5512 52.457C94.529 52.4459 94.5126 52.4386 94.5035 52.4346L94.5007 52.4334C94.5166 52.4404 94.5334 52.4484 94.5512 52.457ZM138.014 28.374C136.728 29.395 135.649 30.0229 134.332 30.776C133.672 31.1537 132.744 31.5217 131.663 31.8959C131.132 32.0799 130.585 32.2583 130.035 32.4371L129.951 32.4643C129.434 32.6325 128.913 32.8018 128.424 32.9702C126.675 33.5719 125.497 33.7036 124.077 33.8624C124.006 33.8703 123.935 33.8783 123.863 33.8864L123.863 33.8864C123.19 33.9622 121.954 34.0135 120.649 33.9889C119.322 33.9639 118.077 33.8623 117.33 33.6814L138.014 28.374ZM95.539 69.0176C95.5345 69.0202 95.53 69.0227 95.5254 69.0253C95.53 69.0227 95.5345 69.0202 95.539 69.0176ZM122.749 76.0174C122.782 75.9858 122.816 75.9566 122.849 75.9297C123.292 76.4178 123.615 76.7864 123.72 76.9332C123.875 77.1488 123.789 77.1505 123.572 77.0394C123.37 76.9359 123.054 76.7345 122.713 76.5172C122.636 76.4684 122.558 76.4188 122.48 76.3694C122.546 76.248 122.634 76.1281 122.749 76.0174ZM114.646 91.8321C114.646 91.8321 113.716 90.3063 112.592 88.5043L111.46 89.5127C113.692 91.3043 114.646 91.8321 114.646 91.8321Z" fill="url(#paint0_linear_378_796)" stroke="#5E5E5E" stroke-width="3" stroke-linejoin="round"/>
<path d="M41.9983 39.9734C41.9983 39.9734 45.5272 35.5789 47.2215 34.0493C48.9159 32.5198 50.6956 31.5715 54.1036 31.3373C57.9599 31.0724 59.8295 32.0043 62.481 30.2891C61.9579 31.4563 59.9463 33.8698 58.6552 35.3208C57.0642 36.9911 55.7472 38.5023 53.9805 39.5209C52.7196 40.2479 52.6312 39.8274 50.4353 39.5649C49.4844 39.4513 47.473 39.0063 46.2574 39.0656C44.2255 39.1653 42.5424 39.7934 42.1507 39.9196L41.9983 39.9734Z" fill="#7233A3" style="mix-blend-mode:darken"/>
<path d="M41.9983 39.9734C41.9983 39.9734 45.5272 35.5789 47.2215 34.0493C48.9159 32.5198 50.6956 31.5715 54.1036 31.3373C57.9599 31.0724 59.8295 32.0043 62.481 30.2891C61.9579 31.4563 59.9463 33.8698 58.6552 35.3208C57.0642 36.9911 55.7472 38.5023 53.9805 39.5209C52.7196 40.2479 52.6312 39.8274 50.4353 39.5649C49.4844 39.4513 47.473 39.0063 46.2574 39.0656C44.2255 39.1653 42.5424 39.7934 42.1507 39.9196L41.9983 39.9734Z" stroke="#5D5D5D" stroke-width="3"/>
<defs>
<linearGradient id="paint0_linear_378_796" x1="77.3528" y1="7.85393" x2="66.8097" y2="95.9436" gradientUnits="userSpaceOnUse">
<stop stop-color="white"/>
<stop offset="1" stop-color="white"/>
</linearGradient>
</defs>
</svg>
