<svg width="146" height="104" viewBox="0 0 146 104" fill="none" xmlns="http://www.w3.org/2000/svg">
<g filter="url(#filter0_d_378_796)">
<path d="M11.5551 9.81572C11.5551 9.81572 8.29542 16.8662 7.79809 19.629C7.30076 22.3918 6.97146 25.1427 6.86491 26.3166C6.75834 27.4905 6.61555 29.2053 6.56215 31.1874C6.50874 33.1694 6.60971 36.5491 6.86886 38.5044C7.12801 40.4597 7.69792 44.1199 8.26149 46.3362C8.82507 48.5525 9.78266 51.9384 10.7236 54.6168C11.6645 57.2951 13.0054 61.3043 14.4282 64.361C15.851 67.4178 17.7664 71.3994 18.6859 72.9848C19.6053 74.5701 22.6292 79.9352 23.7567 81.5775C24.8841 83.2199 27.0201 86.0733 28.2615 87.7614C29.5029 89.4494 31.6176 91.8513 31.6176 91.8513C31.6176 91.8513 36.1648 87.3603 37.9222 85.9029C39.6796 84.4455 40.3245 83.785 44.2167 81.3323C48.1089 78.8796 50.686 77.3648 52.1644 76.6709C53.6429 75.9771 58.45 74.1234 61.9317 73.6385C65.4134 73.1536 65.4541 72.9678 68.9066 72.8056C72.359 72.6434 75.2895 72.7998 78.5247 73.4756C81.7598 74.1515 85.981 75.1698 88.2409 76.0497C90.5008 76.9295 92.1201 77.486 94.3805 78.6636C96.6409 79.8413 99.8919 81.5003 102.621 83.4598C105.35 85.4193 105.265 85.1234 108.572 87.9458C112.165 91.012 113.647 91.8322 113.647 91.8322C113.647 91.8322 109.793 85.5082 108.29 83.4034C106.891 81.4444 104.897 78.5843 104.013 77.7527C103.128 76.9212 100.169 73.8457 99.1072 72.9475C98.045 72.0493 94.0781 68.649 93.8229 68.369C93.5677 68.089 93.6026 67.8155 93.793 67.71C93.9833 67.6046 94.4262 67.2085 95.1568 67.2238C95.8874 67.239 97.7609 67.1633 99.8068 67.6336C101.966 68.1302 100.681 67.8033 102.038 68.1767C103.81 68.6642 102.304 68.2708 104.327 68.8643C106.542 69.6866 108.368 70.3818 108.998 70.616C109.629 70.8502 111.914 71.8041 112.813 72.2064C113.711 72.6088 116.098 73.7108 116.806 73.9998C117.622 74.3321 119.719 75.3689 120.641 75.8647C121.562 76.3605 123.175 77.5648 122.721 76.9333C122.268 76.3017 117.804 71.5699 116.966 70.8602C116.128 70.1505 113.206 67.6199 112.52 67.0407C111.834 66.4615 108.822 64.2088 107.436 63.177C106.05 62.1452 102.879 60.0338 101.995 59.4149C101.112 58.7959 98.1405 57.0291 97.0251 56.3504C95.9098 55.6717 93.1972 53.9359 92.9022 53.8044C92.6072 53.6729 93.233 53.4384 94.3782 53.5131C95.5234 53.5879 98.8656 53.7163 100.939 54.3492C103.012 54.9822 107.791 56.5485 109.208 57.2954C110.626 58.0423 113.275 59.0649 115.71 60.511C118.145 61.957 119.141 62.429 120.169 63.0331C121.197 63.6373 124 65.416 124 65.416C124 65.416 127.417 67.677 128.755 68.7032C132.086 71.1516 132.809 71.5827 133.181 71.7747C132.854 71.1782 132.198 69.928 131.183 68.519C130.167 67.1099 129.796 66.7714 128.78 65.3623C127.764 63.9533 126.107 62.1229 123.314 59.9521C120.521 57.7813 121.758 58.7132 118.653 56.326C118.208 55.9842 111.909 51.8457 109.699 50.5228C107.488 49.1998 104.064 47.2185 101.825 46.1488C99.5866 45.079 95.5614 43.1541 93.3545 42.4409C91.1475 41.7278 86.3374 40.222 84.5054 39.7782C82.6733 39.3345 81.7978 39.0693 78.9012 38.5622C76.0045 38.0552 74.3699 37.7633 72.3616 37.6192C70.3534 37.4751 70.8976 37.3879 70.6623 37.4158C70.427 37.4437 69.7535 37.1948 71.6507 37.3737C73.5479 37.5528 78.7387 37.65 82.367 36.8547C85.9953 36.0593 92.5043 37.6581 92.5043 37.6581C92.5043 37.6581 92.9841 36.8798 93.3537 36.4435C94.2327 35.4058 95.2365 34.071 96.349 33.2741C97.4616 32.4771 98.8372 31.4551 101.286 31.4917C103.735 31.5282 106.843 32.0606 108.974 32.6041C111.104 33.1478 114.158 34.697 115.99 35.1407C117.822 35.5844 121.524 35.5496 123.044 35.3785C124.563 35.2076 125.916 35.0808 127.922 34.3908C129.928 33.7008 132.508 32.9833 134.084 32.0815C135.661 31.1798 136.985 30.4082 138.723 28.9163C140.46 27.4245 141.78 26.043 141.78 26.043C141.78 26.043 138.164 27.0855 135.283 26.8689C132.401 26.6523 124.665 25.0709 118.047 22.1924C111.429 19.3139 103.51 15.6255 100.713 14.1362C97.9161 12.6469 91.5862 10.5423 88.1642 9.61954C84.7421 8.69682 80.0686 8.55213 76.566 8.55213C72.5961 8.55214 68.4204 8.9517 62.3467 11.2521C60.1139 12.0978 57 13.5 53.5907 15.4758C51.3518 16.7733 47.754 19.9722 45.6442 21.9875C43.5344 24.0028 41.0804 25.9345 38.4318 28.5053C36.3934 30.4838 33.2329 32.9054 30.4363 33.5232C27.6397 34.141 23.2537 32.3914 21.2387 29.6103C19.2237 26.8291 15.9001 21.5782 14.4281 17.5467C12.9562 13.5153 11.5551 9.81572 11.5551 9.81572Z" fill="url(#paint0_linear_378_796)"/>
<path d="M124 65.416L124.53 64.5716L124.53 64.5715L124.529 64.5713L124.528 64.5703L124.522 64.5664L124.498 64.5513L124.407 64.4935L124.074 64.2832C123.795 64.1066 123.411 63.8648 122.995 63.6039C122.169 63.0855 121.198 62.4816 120.669 62.1707L120.184 63.0065L120.669 62.1707C120.266 61.934 119.864 61.7145 119.402 61.4626C119.255 61.3825 119.102 61.2991 118.941 61.2108C118.267 60.8408 117.42 60.367 116.214 59.651C114.952 58.9014 113.644 58.2672 112.49 57.733C112.136 57.5689 111.801 57.4164 111.488 57.2737C110.757 56.9405 110.143 56.6606 109.668 56.4103C108.878 55.9941 107.251 55.3912 105.638 54.8336C103.995 54.2654 102.27 53.7118 101.223 53.3919C99.2539 52.7909 96.2697 52.6201 94.8784 52.5406C94.7037 52.5306 94.5542 52.522 94.4349 52.5142L94.4349 52.5142C93.7986 52.4727 93.2453 52.5114 92.8505 52.6101C92.7486 52.6356 92.6362 52.6703 92.5261 52.7192C92.4358 52.7594 92.2555 52.8482 92.1001 53.0223C91.9147 53.2301 91.6953 53.6717 91.9312 54.1723C92.1002 54.5308 92.4077 54.6761 92.5024 54.7184C92.4995 54.7171 92.6503 54.8021 92.9981 55.0151C93.3066 55.2041 93.7044 55.4522 94.1315 55.7197C94.3238 55.8402 94.5222 55.9647 94.7206 56.0892C95.3973 56.5138 96.0748 56.9389 96.5117 57.2048C96.7668 57.36 97.1081 57.5658 97.4943 57.7985C98.8532 58.6176 100.767 59.7711 101.428 60.2338L101.995 59.4149L101.428 60.2338C101.726 60.4427 102.247 60.7962 102.862 61.2139C104.171 62.1025 105.909 63.2819 106.844 63.9786C108.249 65.0246 111.225 67.2507 111.88 67.8039C112.214 68.0858 113.093 68.8433 114.005 69.6295L114.038 69.6581C114.957 70.4499 115.901 71.264 116.325 71.6225C116.594 71.8507 117.361 72.6228 118.265 73.5626C117.83 73.3571 117.443 73.1816 117.176 73.073C116.706 72.8812 115.463 72.3153 114.426 71.8429C113.945 71.6241 113.509 71.4253 113.214 71.2932C112.305 70.886 109.998 69.9226 109.339 69.6778C109.124 69.5979 108.768 69.4638 108.301 69.2878C108.09 69.2081 107.855 69.1198 107.601 69.0241C106.788 68.7179 105.776 68.338 104.667 67.926C104.645 67.9178 104.623 67.9105 104.6 67.9038C103.635 67.6205 103.503 67.5704 103.441 67.5471L103.433 67.544C103.282 67.4871 103.162 67.45 102.296 67.2116L102.295 67.2116C102.019 67.1357 101.848 67.0872 101.73 67.0539C101.581 67.0118 101.519 66.994 101.438 66.9755C101.381 66.9627 101.335 66.9526 101.271 66.9388C101.109 66.904 100.837 66.8454 100.023 66.6581C98.153 66.2283 96.4039 66.2263 95.5257 66.2253C95.3827 66.2251 95.2629 66.225 95.1694 66.223C94.0885 66.2004 93.2966 66.8372 93.3039 66.8332C92.8857 67.0649 92.6443 67.4952 92.6419 67.9604C92.6395 68.3985 92.8421 68.7711 93.0877 69.0406C93.201 69.1649 93.5598 69.4827 93.9524 69.827C94.3799 70.2019 94.9353 70.6834 95.5143 71.1828C96.6721 72.1813 97.9321 73.2582 98.4666 73.7102C98.9572 74.1251 99.9273 75.082 100.923 76.0799C101.174 76.3309 101.425 76.5838 101.668 76.8285C102.365 77.529 102.993 78.1609 103.332 78.48C103.694 78.8202 104.357 79.6613 105.156 80.7455C105.744 81.543 106.367 82.4186 106.94 83.2249C107.126 83.486 107.306 83.7398 107.479 83.9814C108.07 84.8084 109.048 86.3274 110.012 87.8576C109.76 87.6471 109.494 87.4235 109.216 87.186C106.842 85.1596 106.156 84.6918 105.004 83.9066C104.53 83.584 103.978 83.2078 103.199 82.6478C100.561 80.7539 97.4596 79.1411 95.2345 77.9839C95.0981 77.913 94.965 77.8438 94.8356 77.7763C92.9082 76.7722 91.4184 76.2012 89.6927 75.5397C89.339 75.4041 88.9753 75.2647 88.596 75.1171C86.2489 74.2033 81.9518 73.1708 78.7208 72.4958C75.3857 71.7991 72.3685 71.6405 68.8515 71.8057C66.4119 71.9203 65.5958 72.0527 64.1838 72.2819C63.5628 72.3827 62.8265 72.5021 61.7861 72.647C58.1649 73.1514 53.2557 75.05 51.7346 75.7638C50.192 76.4877 47.5645 78.0357 43.6798 80.4837C40.2314 82.6568 39.2745 83.4596 37.9077 84.6064C37.7104 84.7719 37.5045 84.9446 37.2814 85.1296C36.3694 85.8859 34.7661 87.3999 33.4159 88.6988C32.7433 89.3459 32.1247 89.948 31.6711 90.3917C31.5186 90.2135 31.3479 90.0129 31.1662 89.7973C30.4853 88.9893 29.6641 87.9878 29.064 87.1719C28.7814 86.7876 28.4549 86.3462 28.1059 85.8744C26.9067 84.2533 25.4419 82.273 24.5783 81.0149L23.7567 81.5775L24.5783 81.0149C23.705 79.7428 21.6381 76.1326 20.3527 73.8875C20.0215 73.309 19.7422 72.8211 19.5486 72.4872C18.6567 70.9493 16.7614 67.0129 15.333 63.9441C14.1228 61.3443 12.9699 58.0337 12.0647 55.4342C11.9256 55.0348 11.7924 54.6521 11.6656 54.2914C10.738 51.6508 9.7887 48.2958 9.22948 46.0966C8.68139 43.9413 8.1176 40.3305 7.85919 38.3807C7.60933 36.4955 7.50828 33.1727 7.56082 31.2227L6.5628 31.1874L7.56082 31.2227C7.61338 29.272 7.75398 27.5816 7.85985 26.4155L7.85985 26.4154C7.96392 25.2688 8.28946 22.547 8.78131 19.8146C9.00724 18.5595 9.89891 16.2093 10.7857 14.078C11.0269 13.4983 11.2635 12.9446 11.4795 12.4471C11.4878 12.4692 11.4961 12.4914 11.5044 12.5138C12.0381 13.9411 12.7554 15.8712 13.4902 17.8837C15.0106 22.0477 18.3996 27.3888 20.4319 30.1939L21.2387 29.6103L20.4319 30.1939C21.5745 31.7709 23.3432 33.0047 25.1672 33.765C26.98 34.5207 28.9936 34.8687 30.6591 34.5008C32.2273 34.1543 33.834 33.3213 35.2766 32.3592C36.73 31.39 38.0761 30.25 39.1299 29.2271C40.4344 27.9609 41.6935 26.8496 42.9003 25.7947C43.0208 25.6895 43.1408 25.5847 43.2603 25.4803C44.3331 24.5435 45.3699 23.6382 46.3367 22.7147C48.4555 20.6908 51.9738 17.5734 54.0963 16.3433C57.4579 14.3952 60.523 13.0159 62.7067 12.1888C68.6514 9.93725 72.7054 9.55312 76.5743 9.55312C80.083 9.55312 84.6334 9.70195 87.912 10.586C91.3206 11.5051 97.5586 13.5862 100.25 15.0193L100.713 14.1362L100.25 15.0193C103.084 16.5285 111.034 20.2302 117.655 23.1101C124.373 26.032 132.219 27.6418 135.216 27.8671C136.324 27.9504 137.51 27.8628 138.567 27.7199C138.405 27.8627 138.239 28.0078 138.069 28.154C136.405 29.5828 135.147 30.3169 133.584 31.2112C132.881 31.6133 131.916 31.9936 130.831 32.3692C130.295 32.5549 129.743 32.7347 129.194 32.9133L129.112 32.94C128.593 33.1086 128.076 33.2768 127.591 33.4438C125.79 34.0634 124.565 34.2003 123.142 34.3594C123.07 34.3674 122.997 34.3756 122.924 34.3838L123.044 35.3785L122.924 34.3838C122.222 34.4628 120.963 34.5142 119.645 34.4894C118.312 34.4642 117.021 34.3624 116.217 34.1679C115.391 33.9678 114.252 33.5057 112.962 32.9825C111.723 32.4797 110.358 31.9264 109.213 31.6342L108.974 32.601L109.213 31.6342C107.032 31.078 103.843 30.5288 101.293 30.4908C98.563 30.4501 96.9697 31.593 95.8419 32.402C95.8155 32.4209 95.7894 32.4397 95.7635 32.4582C94.7338 33.1958 93.7884 34.3426 93.033 35.259C92.8768 35.4484 92.7288 35.628 92.5897 35.7921C92.4011 36.0148 92.2019 36.2941 92.0424 36.5287C91.9173 36.5016 91.7774 36.4719 91.6241 36.4403C90.9429 36.3 89.9956 36.1211 88.9306 35.9674C86.8429 35.6661 84.1508 35.4372 82.1457 35.8768C78.6579 36.6413 73.5814 36.5514 71.7362 36.3772L71.7361 36.3772C71.2509 36.3314 70.906 36.3106 70.6658 36.3078C70.5485 36.3065 70.4319 36.3091 70.3257 36.3207C70.274 36.3263 70.1993 36.3367 70.1168 36.3591L70.1153 36.3595C70.0644 36.3732 69.862 36.428 69.6761 36.5999C69.5664 36.7012 69.4237 36.8802 69.372 37.145C69.3183 37.4196 69.3873 37.6585 69.4756 37.8224C69.6171 38.0849 69.8318 38.2075 69.8788 38.2343L69.8812 38.2357C70.021 38.3157 70.1571 38.3522 70.2168 38.3671C70.3075 38.3897 70.4417 38.4148 70.5912 38.4185C70.5979 38.4203 70.6047 38.422 70.6114 38.4237C70.853 38.4845 71.3028 38.5462 72.2985 38.6177L72.3106 38.4262L72.2985 38.6177C74.2015 38.7542 75.7551 39.0262 78.5388 39.5135L78.7372 39.5482C81.0631 39.9554 82.0522 40.2008 83.3339 40.5188C83.6269 40.5915 83.9352 40.668 84.2783 40.751C86.0662 41.1841 90.8374 42.6768 93.055 43.3933C95.1816 44.0805 99.1314 45.9669 101.402 47.0516C103.593 48.0987 106.98 50.0575 109.192 51.381C110.278 52.031 112.389 53.3859 114.298 54.63C115.25 55.2501 116.145 55.8392 116.83 56.294C117.172 56.5215 117.461 56.7145 117.676 56.8605C117.784 56.9336 117.872 56.9938 117.939 57.04C117.972 57.0631 117.998 57.0818 118.018 57.0962L118.042 57.113L118.046 57.1162L118.049 57.1183C119.855 58.5074 120.184 58.7664 120.695 59.169C121.063 59.4592 121.526 59.8241 122.705 60.7411C125.433 62.8613 127.02 64.6238 127.972 65.944C128.493 66.6674 128.851 67.1189 129.2 67.5587L129.201 67.5596C129.345 67.7404 129.487 67.9192 129.639 68.1159C129.545 68.047 129.449 67.9762 129.35 67.9037C128.653 67.3698 127.445 66.536 126.432 65.8476C125.918 65.4991 125.447 65.1829 125.105 64.954C125.058 64.9231 125.015 64.8938 124.973 64.8662C124.861 64.7915 124.768 64.7293 124.697 64.6824L124.586 64.6083L124.556 64.5889L124.549 64.5839L124.547 64.5826L124.546 64.5823L124.546 64.5822L124 65.416ZM124 65.416L124.53 64.5716L124.546 64.5822L124 65.416ZM116.806 73.9998C117.52 74.2906 119.215 75.121 120.245 75.6561L116.806 73.9998ZM116.806 73.9998C116.317 73.8001 115.026 73.2124 113.979 72.7355C113.51 72.522 113.09 72.3308 112.813 72.2064C111.914 71.8041 109.629 70.8502 108.998 70.616C108.781 70.5352 108.421 70.3997 107.953 70.223C107.062 69.8873 105.778 69.4031 104.327 68.8643L116.806 73.9998ZM70.2745 38.2961C70.2745 38.2961 70.3053 38.3109 70.3359 38.3254C70.3291 38.3224 70.3229 38.3194 70.3171 38.3166C70.2863 38.3018 70.2745 38.2961 70.2745 38.2961ZM93.3038 52.8912C93.3079 52.893 93.3158 52.8965 93.3268 52.9019C93.3182 52.8977 93.3099 52.8939 93.302 52.8904L93.3038 52.8912ZM121.906 76.6395C122.172 76.8079 122.41 76.9557 122.573 77.0395C122.79 77.1505 122.876 77.1489 122.721 76.9333C122.645 76.8269 122.455 76.6042 122.187 76.3039C122.157 76.3265 122.127 76.3517 122.098 76.3798C122.014 76.4612 121.951 76.5501 121.906 76.6395Z" stroke="#5E5E5E" stroke-width="2" stroke-linejoin="round"/>
</g>
<path d="M40.9998 39.9734C40.9998 39.9734 44.5286 35.5789 46.223 34.0494C47.9173 32.5198 49.6971 31.5715 53.1051 31.3374C56.9614 31.0724 58.8309 32.0044 61.4825 30.2891C60.9593 31.4563 58.9477 33.8698 57.6566 35.3209C56.0657 36.9911 54.7487 38.5024 52.982 39.521C51.721 40.248 51.6327 39.8275 49.4367 39.565C48.4859 39.4514 46.4745 39.0063 45.2589 39.0656C43.227 39.1654 41.5439 39.7935 41.1522 39.9196L40.9998 39.9734Z" fill="#7233A3" style="mix-blend-mode:darken"/>
<path d="M40.9998 39.9734C40.9998 39.9734 44.5286 35.5789 46.223 34.0494C47.9173 32.5198 49.6971 31.5715 53.1051 31.3374C56.9614 31.0724 58.8309 32.0044 61.4825 30.2891C60.9593 31.4563 58.9477 33.8698 57.6566 35.3209C56.0657 36.9911 54.7487 38.5024 52.982 39.521C51.721 40.248 51.6327 39.8275 49.4367 39.565C48.4859 39.4514 46.4745 39.0063 45.2589 39.0656C43.227 39.1654 41.5439 39.7935 41.1522 39.9196L40.9998 39.9734Z" stroke="#5D5D5D" stroke-width="2"/>
<defs>
<filter id="filter0_d_378_796" x="2.54834" y="8.55212" width="143.232" height="91.2992" filterUnits="userSpaceOnUse" color-interpolation-filters="sRGB">
<feFlood flood-opacity="0" result="BackgroundImageFix"/>
<feColorMatrix in="SourceAlpha" type="matrix" values="0 0 0 0 0 0 0 0 0 0 0 0 0 0 0 0 0 0 127 0" result="hardAlpha"/>
<feOffset dy="4"/>
<feGaussianBlur stdDeviation="2"/>
<feComposite in2="hardAlpha" operator="out"/>
<feColorMatrix type="matrix" values="0 0 0 0 0 0 0 0 0 0 0 0 0 0 0 0 0 0 0.85 0"/>
<feBlend mode="darken" in2="BackgroundImageFix" result="effect1_dropShadow_378_796"/>
<feBlend mode="normal" in="SourceGraphic" in2="effect1_dropShadow_378_796" result="shape"/>
</filter>
<linearGradient id="paint0_linear_378_796" x1="76.354" y1="7.85399" x2="65.811" y2="95.9437" gradientUnits="userSpaceOnUse">
<stop stop-color="white"/>
<stop offset="1" stop-color="white"/>
</linearGradient>
</defs>
</svg>
