<svg width="144" height="104" viewBox="0 0 144 104" fill="none" xmlns="http://www.w3.org/2000/svg">
<path d="M12.5539 9.81566C12.5539 9.81566 9.29419 16.8662 8.79687 19.629C8.29954 22.3918 7.97024 25.1426 7.86369 26.3165C7.75712 27.4904 7.61433 29.2052 7.56093 31.1873C7.50752 33.1694 7.60849 36.549 7.86764 38.5043C8.12679 40.4597 8.6967 44.1199 9.26027 46.3361C9.82385 48.5524 10.7814 51.9384 11.7224 54.6167C12.6633 57.2951 14.0041 61.3042 15.4269 64.361C16.8498 67.4177 18.7652 71.3993 19.6846 72.9847C20.604 74.57 23.628 79.9352 24.7554 81.5775C25.8829 83.2198 28.0189 86.0733 29.2603 87.7613C30.5017 89.4493 32.6164 91.8512 32.6164 91.8512C32.6164 91.8512 37.1636 87.3602 38.921 85.9028C40.6784 84.4454 41.3233 83.7849 45.2155 81.3322C49.1076 78.8795 51.6847 77.3647 53.1632 76.6709C54.6417 75.9771 59.4488 74.1233 62.9305 73.6384C66.4122 73.1535 66.4529 72.9677 69.9054 72.8055C73.3578 72.6434 76.2883 72.7998 79.5234 73.4756C82.7586 74.1514 86.9797 75.1698 89.2397 76.0496C91.4996 76.9295 93.1188 77.4859 95.3792 78.6636C97.6396 79.8412 100.891 81.5003 103.62 83.4598C106.349 85.4193 106.264 85.1234 109.571 87.9457C113.164 91.012 114.646 91.8321 114.646 91.8321C114.646 91.8321 110.792 85.5081 109.289 83.4034C107.89 81.4444 105.896 78.5842 105.011 77.7527C104.127 76.9211 101.168 73.8456 100.106 72.9474C99.0438 72.0492 95.0769 68.6489 94.8217 68.3689C94.5665 68.0889 94.6014 67.8155 94.7918 67.71C94.9821 67.6045 95.425 67.2084 96.1556 67.2237C96.8862 67.239 98.7597 67.1632 100.806 67.6336C102.965 68.1301 101.68 67.8033 103.037 68.1767C104.809 68.6642 103.303 68.2708 105.325 68.8642C107.54 69.6866 109.366 70.3817 109.997 70.6159C110.628 70.8501 112.913 71.8041 113.811 72.2064C114.71 72.6087 117.096 73.7107 117.805 73.9997C118.621 74.3321 120.718 75.3688 121.64 75.8647C122.561 76.3605 124.174 77.5648 123.72 76.9332C123.266 76.3016 118.803 71.5698 117.965 70.8601C117.127 70.1505 114.205 67.6199 113.519 67.0407C112.833 66.4615 109.821 64.2087 108.435 63.1769C107.049 62.1451 103.878 60.0337 102.994 59.4148C102.11 58.7959 99.1393 57.0291 98.0239 56.3504C96.9086 55.6717 94.196 53.9359 93.901 53.8043C93.606 53.6728 94.2318 53.4383 95.377 53.513C96.5222 53.5878 99.8644 53.7163 101.937 54.3492C104.01 54.9821 108.79 56.5484 110.207 57.2953C111.625 58.0423 114.274 59.0649 116.709 60.5109C119.144 61.957 120.139 62.4289 121.168 63.0331C122.196 63.6372 124.999 65.4159 124.999 65.4159C124.999 65.4159 128.415 67.677 129.754 68.7031C133.084 71.1516 133.808 71.5827 134.18 71.7747C133.853 71.1782 133.197 69.928 132.181 68.5189C131.165 67.1099 130.795 66.7713 129.779 65.3623C128.763 63.9532 127.105 62.1228 124.312 59.952C121.519 57.7812 122.756 58.7131 119.652 56.326C119.207 55.9841 112.908 51.8457 110.697 50.5227C108.487 49.1998 105.063 47.2185 102.824 46.1487C100.585 45.079 96.5602 43.154 94.3532 42.4408C92.1462 41.7277 87.3362 40.2219 85.5042 39.7781C83.6721 39.3344 82.7966 39.0692 79.8999 38.5622C77.0032 38.0552 75.3687 37.7633 73.3604 37.6192C71.3522 37.475 71.8964 37.3878 71.6611 37.4158C71.4258 37.4437 70.7523 37.1947 72.6495 37.3737C74.5466 37.5528 79.7375 37.65 83.3658 36.8546C86.994 36.0593 93.5031 37.6581 93.5031 37.6581C93.5031 37.6581 93.9828 36.8798 94.3525 36.4434C95.2315 35.4057 96.2353 34.0709 97.3478 33.274C98.4603 32.4771 99.836 31.4551 102.285 31.4916C104.734 31.5281 107.842 32.0605 109.972 32.6041C112.103 33.1477 115.157 34.6969 116.989 35.1407C118.821 35.5844 122.523 35.5495 124.043 35.3785C125.562 35.2075 126.915 35.0808 128.921 34.3908C130.926 33.7007 133.507 32.9832 135.083 32.0815C136.66 31.1797 137.984 30.4081 139.721 28.9163C141.459 27.4244 142.779 26.043 142.779 26.043C142.779 26.043 139.163 27.0854 136.281 26.8689C133.4 26.6523 125.664 25.0708 119.046 22.1923C112.427 19.3138 104.508 15.6255 101.712 14.1362C98.9149 12.6468 92.585 10.5422 89.1629 9.61948C85.7409 8.69676 81.0674 8.55207 77.5648 8.55207C73.5949 8.55207 69.4192 8.95164 63.3455 11.2521C61.1127 12.0977 57.9988 13.4999 54.5895 15.4757C52.3505 16.7733 48.7528 19.9721 46.643 21.9874C44.5332 24.0027 42.0791 25.9345 39.4305 28.5053C37.3922 30.4838 34.2316 32.9054 31.4351 33.5231C28.6385 34.1409 24.2525 32.3913 22.2375 29.6102C20.2225 26.8291 16.8989 21.5781 15.4269 17.5467C13.9549 13.5152 12.5539 9.81566 12.5539 9.81566Z" fill="url(#paint0_linear_378_796)"/>
<path d="M41.9983 39.9734C41.9983 39.9734 45.5272 35.5789 47.2215 34.0493C48.9159 32.5198 50.6956 31.5715 54.1036 31.3373C57.9599 31.0724 59.8295 32.0043 62.481 30.2891C61.9579 31.4563 59.9463 33.8698 58.6552 35.3208C57.0642 36.9911 55.7472 38.5023 53.9805 39.5209C52.7196 40.2479 52.6312 39.8274 50.4353 39.5649C49.4844 39.4513 47.473 39.0063 46.2574 39.0656C44.2255 39.1653 42.5424 39.7934 42.1507 39.9196L41.9983 39.9734Z" fill="#7233A3" style="mix-blend-mode:darken"/>
<path d="M41.9983 39.9734C41.9983 39.9734 45.5272 35.5789 47.2215 34.0493C48.9159 32.5198 50.6956 31.5715 54.1036 31.3373C57.9599 31.0724 59.8295 32.0043 62.481 30.2891C61.9579 31.4563 59.9463 33.8698 58.6552 35.3208C57.0642 36.9911 55.7472 38.5023 53.9805 39.5209C52.7196 40.2479 52.6312 39.8274 50.4353 39.5649C49.4844 39.4513 47.473 39.0063 46.2574 39.0656C44.2255 39.1653 42.5424 39.7934 42.1507 39.9196L41.9983 39.9734Z" stroke="#5D5D5D" stroke-width="2"/>
<defs>
<linearGradient id="paint0_linear_378_796" x1="77.3528" y1="7.85393" x2="66.8097" y2="95.9436" gradientUnits="userSpaceOnUse">
<stop stop-color="white"/>
<stop offset="1" stop-color="white"/>
</linearGradient>
</defs>
</svg>
