<svg width="143" height="104" viewBox="0 0 143 104" fill="none" xmlns="http://www.w3.org/2000/svg">
<path d="M124.001 65.416L124.53 64.5716L124.53 64.5715L124.53 64.5713L124.528 64.5703L124.522 64.5664L124.498 64.5513L124.407 64.4935L124.074 64.2832C123.795 64.1066 123.411 63.8648 122.996 63.6039C122.169 63.0855 121.198 62.4816 120.669 62.1707L120.185 63.0065L120.669 62.1707C120.266 61.934 119.864 61.7145 119.402 61.4626C119.255 61.3825 119.102 61.2991 118.942 61.2108C118.268 60.8408 117.42 60.367 116.214 59.651C114.952 58.9014 113.644 58.2672 112.491 57.733C112.136 57.5689 111.802 57.4164 111.488 57.2737C110.757 56.9405 110.143 56.6606 109.668 56.4103C108.878 55.9941 107.251 55.3912 105.639 54.8336C103.995 54.2654 102.27 53.7118 101.223 53.3919C99.2541 52.7909 96.2699 52.6201 94.8786 52.5406C94.704 52.5306 94.5545 52.522 94.4352 52.5142L94.4351 52.5142C93.7988 52.4727 93.2455 52.5114 92.8508 52.6101C92.7489 52.6356 92.6364 52.6703 92.5263 52.7192C92.436 52.7594 92.2558 52.8482 92.1004 53.0223C91.9149 53.2301 91.6956 53.6717 91.9314 54.1723C92.1004 54.5308 92.4079 54.6761 92.5026 54.7184C92.4998 54.7171 92.6505 54.8021 92.9984 55.0151C93.3068 55.2041 93.7046 55.4522 94.1318 55.7197C94.324 55.8402 94.5224 55.9647 94.7208 56.0892C95.3976 56.5138 96.075 56.9389 96.512 57.2048C96.767 57.36 97.1084 57.5658 97.4945 57.7985C98.8535 58.6176 100.767 59.7711 101.428 60.2338L101.996 59.4149L101.428 60.2338C101.726 60.4427 102.247 60.7962 102.862 61.2139C104.172 62.1025 105.909 63.2819 106.845 63.9786C108.249 65.0246 111.225 67.2507 111.88 67.8039C112.214 68.0858 113.093 68.8433 114.005 69.6295L114.038 69.6581C114.957 70.4499 115.902 71.264 116.325 71.6225C116.594 71.8507 117.361 72.6228 118.265 73.5626C117.83 73.3571 117.443 73.1816 117.177 73.073C116.706 72.8812 115.463 72.3153 114.426 71.8429C113.946 71.6241 113.509 71.4253 113.214 71.2932C112.305 70.886 109.998 69.9226 109.339 69.6778C109.124 69.5979 108.768 69.4638 108.301 69.2878C108.09 69.2081 107.856 69.1198 107.602 69.0241C106.789 68.7179 105.777 68.338 104.667 67.926C104.645 67.9178 104.623 67.9105 104.6 67.9038C103.635 67.6205 103.503 67.5704 103.441 67.5471L103.433 67.544C103.282 67.4871 103.162 67.45 102.296 67.2116L102.296 67.2116C102.02 67.1357 101.848 67.0872 101.731 67.0539C101.582 67.0118 101.519 66.994 101.438 66.9755C101.382 66.9627 101.335 66.9526 101.271 66.9388C101.109 66.904 100.837 66.8454 100.023 66.6581C98.1532 66.2283 96.4041 66.2263 95.526 66.2253C95.383 66.2251 95.2631 66.225 95.1696 66.223C94.0887 66.2004 93.2968 66.8372 93.3041 66.8332C92.886 67.0649 92.6446 67.4952 92.6421 67.9604C92.6398 68.3985 92.8423 68.7711 93.088 69.0406C93.2012 69.1649 93.5601 69.4827 93.9527 69.827C94.3801 70.2019 94.9356 70.6834 95.5146 71.1828C96.6723 72.1813 97.9323 73.2582 98.4668 73.7102C98.9575 74.1251 99.9276 75.082 100.923 76.0799C101.174 76.3309 101.425 76.5838 101.668 76.8285C102.365 77.529 102.993 78.1609 103.332 78.48C103.694 78.8202 104.358 79.6613 105.157 80.7455C105.744 81.543 106.367 82.4186 106.94 83.2249C107.126 83.486 107.307 83.7398 107.479 83.9814C108.07 84.8084 109.048 86.3274 110.012 87.8576C109.76 87.6471 109.495 87.4235 109.216 87.186C106.842 85.1596 106.156 84.6918 105.004 83.9066C104.531 83.584 103.979 83.2078 103.199 82.6478C100.561 80.7539 97.4598 79.1411 95.2347 77.9839C95.0983 77.913 94.9653 77.8438 94.8358 77.7763C92.9084 76.7722 91.4187 76.2012 89.6929 75.5397C89.3392 75.4041 88.9756 75.2647 88.5962 75.1171C86.2491 74.2033 81.952 73.1708 78.721 72.4958C75.386 71.7991 72.3688 71.6405 68.8518 71.8057C66.4122 71.9203 65.596 72.0527 64.184 72.2819C63.563 72.3827 62.8267 72.5021 61.7864 72.647C58.1651 73.1514 53.256 75.05 51.7348 75.7638C50.1922 76.4877 47.5648 78.0357 43.68 80.4837C40.2316 82.6568 39.2748 83.4596 37.9079 84.6064C37.7106 84.7719 37.5048 84.9446 37.2817 85.1296C36.3697 85.8859 34.7664 87.3999 33.4161 88.6988C32.7435 89.3459 32.125 89.948 31.6713 90.3917C31.5188 90.2135 31.3482 90.0129 31.1664 89.7973C30.4855 88.9893 29.6643 87.9878 29.0643 87.1719C28.7817 86.7876 28.4551 86.3462 28.1062 85.8744C26.907 84.2533 25.4422 82.273 24.5785 81.0149L23.7569 81.5775L24.5785 81.0149C23.7052 79.7428 21.6383 76.1326 20.353 73.8875C20.0218 73.309 19.7425 72.8211 19.5488 72.4872C18.6569 70.9493 16.7616 67.0129 15.3332 63.9441C14.1231 61.3443 12.9702 58.0337 12.065 55.4342C11.9259 55.0348 11.7926 54.6521 11.6659 54.2914C10.7382 51.6508 9.78895 48.2958 9.22973 46.0966C8.68164 43.9413 8.11785 40.3305 7.85943 38.3807C7.60958 36.4955 7.50852 33.1727 7.56107 31.2227L6.56304 31.1874L7.56107 31.2227C7.61362 29.272 7.75422 27.5816 7.86009 26.4155L7.86009 26.4154C7.96417 25.2688 8.2897 22.547 8.78155 19.8146C9.00748 18.5595 9.89915 16.2093 10.7859 14.078C11.0271 13.4983 11.2637 12.9446 11.4797 12.4471C11.488 12.4692 11.4963 12.4914 11.5047 12.5138C12.0384 13.9411 12.7557 15.8712 13.4905 17.8837C15.0109 22.0477 18.3998 27.3888 20.4322 30.1939L21.239 29.6103L20.4322 30.1939C21.5747 31.7709 23.3435 33.0047 25.1674 33.765C26.9802 34.5207 28.9939 34.8687 30.6593 34.5008C32.2276 34.1543 33.8342 33.3213 35.2769 32.3592C36.7303 31.39 38.0764 30.25 39.1302 29.2271C40.4347 27.9609 41.6938 26.8496 42.9006 25.7947C43.021 25.6895 43.141 25.5847 43.2606 25.4803C44.3334 24.5435 45.3702 23.6382 46.337 22.7147C48.4558 20.6908 51.974 17.5734 54.0965 16.3433C57.4581 14.3952 60.5232 13.0159 62.707 12.1888C68.6516 9.93725 72.7056 9.55312 76.5745 9.55312C80.0832 9.55312 84.6337 9.70195 87.9123 10.586C91.3208 11.5051 97.5588 13.5862 100.25 15.0193L100.713 14.1362L100.25 15.0193C103.084 16.5285 111.034 20.2302 117.656 23.1101C124.374 26.032 132.219 27.6418 135.216 27.8671C136.324 27.9504 137.51 27.8628 138.567 27.7199C138.406 27.8627 138.239 28.0078 138.069 28.154C136.405 29.5828 135.148 30.3169 133.584 31.2112C132.881 31.6133 131.916 31.9936 130.831 32.3692C130.295 32.5549 129.743 32.7347 129.194 32.9133L129.112 32.94C128.593 33.1086 128.076 33.2768 127.591 33.4438C125.79 34.0634 124.565 34.2003 123.142 34.3594C123.07 34.3674 122.998 34.3756 122.924 34.3838L123.044 35.3785L122.924 34.3838C122.222 34.4628 120.963 34.5142 119.645 34.4894C118.312 34.4642 117.021 34.3624 116.218 34.1679C115.391 33.9678 114.252 33.5057 112.962 32.9825C111.723 32.4797 110.358 31.9264 109.213 31.6342L108.975 32.601L109.213 31.6342C107.033 31.078 103.843 30.5288 101.293 30.4908C98.5633 30.4501 96.9699 31.593 95.8421 32.402C95.8158 32.4209 95.7896 32.4397 95.7638 32.4582C94.734 33.1958 93.7887 34.3426 93.0332 35.259C92.8771 35.4484 92.729 35.628 92.59 35.7921C92.4014 36.0148 92.2022 36.2941 92.0426 36.5287C91.9176 36.5016 91.7776 36.4719 91.6243 36.4403C90.9432 36.3 89.9958 36.1211 88.9309 35.9674C86.8431 35.6661 84.1511 35.4372 82.146 35.8768C78.6581 36.6413 73.5816 36.5514 71.7364 36.3772L71.7364 36.3772C71.2512 36.3314 70.9062 36.3106 70.666 36.3078C70.5487 36.3065 70.4321 36.3091 70.326 36.3207C70.2743 36.3263 70.1995 36.3367 70.117 36.3591L70.1156 36.3595C70.0646 36.3732 69.8623 36.428 69.6763 36.5999C69.5667 36.7012 69.424 36.8802 69.3722 37.145C69.3186 37.4196 69.3875 37.6585 69.4759 37.8224C69.6173 38.0849 69.8321 38.2075 69.879 38.2343L69.8814 38.2357C70.0212 38.3157 70.1573 38.3522 70.217 38.3671C70.3078 38.3897 70.4419 38.4148 70.5914 38.4185C70.5982 38.4203 70.6049 38.422 70.6117 38.4237C70.8532 38.4845 71.303 38.5462 72.2987 38.6177L72.3108 38.4262L72.2988 38.6177C74.2018 38.7542 75.7554 39.0262 78.539 39.5135L78.7374 39.5482C81.0634 39.9554 82.0525 40.2008 83.3342 40.5188C83.6272 40.5915 83.9355 40.668 84.2785 40.751C86.0665 41.1841 90.8376 42.6768 93.0552 43.3933C95.1818 44.0805 99.1316 45.9669 101.402 47.0516C103.593 48.0987 106.98 50.0575 109.192 51.381C110.278 52.031 112.39 53.3859 114.298 54.63C115.25 55.2501 116.145 55.8392 116.83 56.294C117.173 56.5215 117.461 56.7145 117.676 56.8605C117.784 56.9336 117.872 56.9938 117.939 57.04C117.972 57.0631 117.999 57.0818 118.019 57.0962L118.042 57.113L118.046 57.1162L118.049 57.1183C119.856 58.5074 120.184 58.7664 120.695 59.169C121.063 59.4592 121.526 59.8241 122.706 60.7411C125.434 62.8613 127.02 64.6238 127.972 65.944C128.493 66.6674 128.852 67.1189 129.201 67.5587L129.201 67.5596C129.345 67.7404 129.487 67.9192 129.639 68.1159C129.545 68.047 129.449 67.9762 129.35 67.9037C128.653 67.3698 127.446 66.536 126.432 65.8476C125.919 65.4991 125.448 65.1829 125.105 64.954C125.059 64.9231 125.015 64.8938 124.973 64.8662C124.861 64.7915 124.768 64.7293 124.697 64.6824L124.586 64.6083L124.557 64.5889L124.549 64.5839L124.547 64.5826L124.547 64.5823L124.546 64.5822L124.001 65.416ZM124.001 65.416L124.53 64.5716L124.546 64.5822L124.001 65.416ZM116.807 73.9998C117.52 74.2906 119.216 75.121 120.246 75.6561L116.807 73.9998ZM116.807 73.9998C116.317 73.8001 115.026 73.2124 113.979 72.7355C113.51 72.522 113.091 72.3308 112.813 72.2064C111.915 71.8041 109.629 70.8502 108.999 70.616C108.781 70.5352 108.422 70.3997 107.953 70.223C107.063 69.8873 105.778 69.4031 104.327 68.8643L116.807 73.9998ZM70.2748 38.2961C70.2748 38.2961 70.3055 38.3109 70.3361 38.3254C70.3294 38.3224 70.3231 38.3194 70.3173 38.3166C70.2865 38.3018 70.2748 38.2961 70.2748 38.2961ZM93.3041 52.8912C93.3081 52.893 93.3161 52.8965 93.3271 52.9019C93.3184 52.8977 93.3101 52.8939 93.3023 52.8904L93.3041 52.8912ZM121.906 76.6395C122.172 76.8079 122.41 76.9557 122.574 77.0395C122.791 77.1505 122.877 77.1489 122.722 76.9333C122.645 76.8269 122.455 76.6042 122.187 76.3039C122.157 76.3265 122.128 76.3517 122.098 76.3798C122.014 76.4612 121.951 76.5501 121.906 76.6395Z" fill="url(#paint0_linear_378_796)" stroke="#5E5E5E" stroke-width="2" stroke-linejoin="round"/>
<path d="M40.9998 39.9734C40.9998 39.9734 44.5286 35.5789 46.223 34.0494C47.9173 32.5198 49.6971 31.5715 53.1051 31.3374C56.9614 31.0724 58.8309 32.0044 61.4825 30.2891C60.9593 31.4563 58.9477 33.8698 57.6566 35.3209C56.0657 36.9911 54.7487 38.5024 52.982 39.521C51.721 40.248 51.6327 39.8275 49.4367 39.565C48.4859 39.4514 46.4745 39.0063 45.2589 39.0656C43.227 39.1654 41.5439 39.7935 41.1522 39.9196L40.9998 39.9734Z" fill="#7233A3" style="mix-blend-mode:darken"/>
<path d="M40.9998 39.9734C40.9998 39.9734 44.5286 35.5789 46.223 34.0494C47.9173 32.5198 49.6971 31.5715 53.1051 31.3374C56.9614 31.0724 58.8309 32.0044 61.4825 30.2891C60.9593 31.4563 58.9477 33.8698 57.6566 35.3209C56.0657 36.9911 54.7487 38.5024 52.982 39.521C51.721 40.248 51.6327 39.8275 49.4367 39.565C48.4859 39.4514 46.4745 39.0063 45.2589 39.0656C43.227 39.1654 41.5439 39.7935 41.1522 39.9196L40.9998 39.9734Z" stroke="#5D5D5D" stroke-width="2"/>
<defs>
<linearGradient id="paint0_linear_378_796" x1="76.3542" y1="7.85399" x2="65.8112" y2="95.9437" gradientUnits="userSpaceOnUse">
<stop stop-color="white"/>
<stop offset="1" stop-color="white"/>
</linearGradient>
</defs>
</svg>
