<?xml version="1.0" encoding="UTF-8" standalone="no"?>
<svg
   width="144"
   height="104"
   viewBox="0 0 144 104"
   fill="none"
   version="1.1"
   id="svg15"
   sodipodi:docname="logossss.svg"
   inkscape:version="1.2 (dc2aedaf03, 2022-05-15)"
   xmlns:inkscape="http://www.inkscape.org/namespaces/inkscape"
   xmlns:sodipodi="http://sodipodi.sourceforge.net/DTD/sodipodi-0.dtd"
   xmlns="http://www.w3.org/2000/svg"
   xmlns:svg="http://www.w3.org/2000/svg">
  <sodipodi:namedview
     id="namedview17"
     pagecolor="#ffffff"
     bordercolor="#000000"
     borderopacity="0.25"
     inkscape:showpageshadow="2"
     inkscape:pageopacity="0.0"
     inkscape:pagecheckerboard="0"
     inkscape:deskcolor="#d1d1d1"
     showgrid="false"
     inkscape:zoom="4"
     inkscape:cx="97.375"
     inkscape:cy="75"
     inkscape:window-width="1680"
     inkscape:window-height="987"
     inkscape:window-x="-8"
     inkscape:window-y="-8"
     inkscape:window-maximized="1"
     inkscape:current-layer="svg15" />
  <defs
     id="defs13">
    <linearGradient
       id="paint0_linear_378_796"
       x1="77.3528"
       y1="7.85393"
       x2="66.8097"
       y2="95.9436"
       gradientUnits="userSpaceOnUse">
      <stop
         stop-color="white"
         id="stop8" />
      <stop
         offset="1"
         stop-color="white"
         id="stop10" />
    </linearGradient>
    <filter
       style="color-interpolation-filters:sRGB;"
       inkscape:label="Drop Shadow"
       id="filter3988"
       x="-0.078389413"
       y="-0.13106712"
       width="1.1747964"
       height="1.326545">
      <feFlood
         flood-opacity="0.85098"
         flood-color="rgb(0,0,0)"
         result="flood"
         id="feFlood3978" />
      <feComposite
         in="flood"
         in2="SourceGraphic"
         operator="in"
         result="composite1"
         id="feComposite3980" />
      <feGaussianBlur
         in="composite1"
         stdDeviation="4"
         result="blur"
         id="feGaussianBlur3982" />
      <feOffset
         dx="0.155763"
         dy="4"
         result="offset"
         id="feOffset3984" />
      <feComposite
         in="SourceGraphic"
         in2="offset"
         operator="over"
         result="composite2"
         id="feComposite3986" />
    </filter>
  </defs>
  <rect
     style="opacity:0.38764;fill:none;stroke-width:2.56;stroke-opacity:0.294118;stroke-dasharray:none"
     id="rect357"
     width="143.92744"
     height="104.44068"
     x="0.071892135"
     y="0.0017213821" />
  <g
     id="g249"
     transform="translate(-2.9390343,3.8120729)"
     style="stroke:#000000;stroke-opacity:1;stroke-width:2;stroke-dasharray:none">
    <path
       d="m 12.5539,9.81566 c 0,0 -3.25971,7.05054 -3.75703,9.81334 -0.49733,2.7628 -0.82663,5.5136 -0.93318,6.6875 -0.10657,1.1739 -0.24936,2.8887 -0.30276,4.8708 -0.05341,1.9821 0.04756,5.3617 0.30671,7.317 0.25915,1.9554 0.82906,5.6156 1.39263,7.8318 0.56358,2.2163 1.52113,5.6023 2.46213,8.2806 0.9409,2.6784 2.2817,6.6875 3.7045,9.7443 1.4229,3.0567 3.3383,7.0383 4.2577,8.6237 0.9194,1.5853 3.9434,6.9505 5.0708,8.5928 1.1275,1.6423 3.2635,4.4958 4.5049,6.1838 1.2414,1.688 3.3561,4.0899 3.3561,4.0899 0,0 4.5472,-4.491 6.3046,-5.9484 1.7574,-1.4574 2.4023,-2.1179 6.2945,-4.5706 3.8921,-2.4527 6.4692,-3.9675 7.9477,-4.6613 1.4785,-0.6938 6.2856,-2.5476 9.7673,-3.0325 3.4817,-0.4849 3.5224,-0.6707 6.9749,-0.8329 3.4524,-0.1621 6.3829,-0.0057 9.618,0.6701 3.2352,0.6758 7.4563,1.6942 9.7163,2.574 2.2599,0.8799 3.8791,1.4363 6.1395,2.614 2.2604,1.1776 5.5118,2.8367 8.2408,4.7962 2.729,1.9595 2.644,1.6636 5.951,4.4859 3.593,3.0663 5.075,3.8864 5.075,3.8864 0,0 -3.854,-6.324 -5.357,-8.4287 -1.399,-1.959 -3.393,-4.8192 -4.278,-5.6507 -0.884,-0.8316 -3.843,-3.9071 -4.905,-4.8053 -1.0622,-0.8982 -5.0291,-4.2985 -5.2843,-4.5785 -0.2552,-0.28 -0.2203,-0.5534 -0.0299,-0.6589 0.1903,-0.1055 0.6332,-0.5016 1.3638,-0.4863 0.7306,0.0153 2.6041,-0.0605 4.6504,0.4099 2.159,0.4965 0.874,0.1697 2.231,0.5431 1.772,0.4875 0.266,0.0941 2.288,0.6875 2.215,0.8224 4.041,1.5175 4.672,1.7517 0.631,0.2342 2.916,1.1882 3.814,1.5905 0.899,0.4023 3.285,1.5043 3.994,1.7933 0.816,0.3324 2.913,1.3691 3.835,1.865 0.921,0.4958 2.534,1.7001 2.08,1.0685 -0.454,-0.6316 -4.917,-5.3634 -5.755,-6.0731 -0.838,-0.7096 -3.76,-3.2402 -4.446,-3.8194 -0.686,-0.5792 -3.698,-2.832 -5.084,-3.8638 -1.386,-1.0318 -4.557,-3.1432 -5.441,-3.7621 -0.884,-0.6189 -3.8547,-2.3857 -4.9701,-3.0644 -1.1153,-0.6787 -3.8279,-2.4145 -4.1229,-2.5461 -0.295,-0.1315 0.3308,-0.366 1.476,-0.2913 1.1452,0.0748 4.4874,0.2033 6.56,0.8362 2.073,0.6329 6.853,2.1992 8.27,2.9461 1.418,0.747 4.067,1.7696 6.502,3.2156 2.435,1.4461 3.43,1.918 4.459,2.5222 1.028,0.6041 3.831,2.3828 3.831,2.3828 0,0 3.416,2.2611 4.755,3.2872 3.33,2.4485 4.054,2.8796 4.426,3.0716 -0.327,-0.5965 -0.983,-1.8467 -1.999,-3.2558 -1.016,-1.409 -1.386,-1.7476 -2.402,-3.1566 -1.016,-1.4091 -2.674,-3.2395 -5.467,-5.4103 -2.793,-2.1708 -1.556,-1.2389 -4.66,-3.626 -0.445,-0.3419 -6.744,-4.4803 -8.955,-5.8033 -2.21,-1.3229 -5.634,-3.3042 -7.873,-4.374 -2.239,-1.0697 -6.2638,-2.9947 -8.4708,-3.7079 -2.207,-0.7131 -7.017,-2.2189 -8.849,-2.6627 -1.8321,-0.4437 -2.7076,-0.7089 -5.6043,-1.2159 -2.8967,-0.507 -4.5312,-0.7989 -6.5395,-0.943 -2.0082,-0.1442 -1.464,-0.2314 -1.6993,-0.2034 -0.2353,0.0279 -0.9088,-0.2211 0.9884,-0.0421 1.8971,0.1791 7.088,0.2763 10.7163,-0.5191 3.6282,-0.7953 10.1373,0.8035 10.1373,0.8035 0,0 0.4797,-0.7783 0.8494,-1.2147 0.879,-1.0377 1.8828,-2.3725 2.9953,-3.1694 1.1125,-0.7969 2.4882,-1.8189 4.9372,-1.7824 2.449,0.0365 5.557,0.5689 7.687,1.1125 2.131,0.5436 5.185,2.0928 7.017,2.5366 1.832,0.4437 5.534,0.4088 7.054,0.2378 1.519,-0.171 2.872,-0.2977 4.878,-0.9877 2.005,-0.6901 4.586,-1.4076 6.162,-2.3093 1.577,-0.9018 2.901,-1.6734 4.638,-3.1652 1.738,-1.4919 3.058,-2.8733 3.058,-2.8733 0,0 -3.616,1.0424 -6.498,0.8259 -2.881,-0.2166 -10.617,-1.7981 -17.235,-4.6766 -6.619,-2.8785 -14.538,-6.5668 -17.334,-8.0561 -2.7971,-1.4894 -9.127,-3.594 -12.5491,-4.51672 -3.422,-0.92272 -8.0955,-1.06741 -11.5981,-1.06741 -3.9699,0 -8.1456,0.39957 -14.2193,2.70003 -2.2328,0.8456 -5.3467,2.2478 -8.756,4.2236 -2.239,1.2976 -5.8367,4.4964 -7.9465,6.5117 -2.1098,2.0153 -4.5639,3.9471 -7.2125,6.5179 -2.0383,1.9785 -5.1989,4.4001 -7.9954,5.0178 -2.7966,0.6178 -7.1826,-1.1318 -9.1976,-3.9129 -2.015,-2.7811 -5.3386,-8.0321 -6.8106,-12.0635 -1.472,-4.0315 -2.873,-7.73104 -2.873,-7.73104 z"
       fill="url(#paint0_linear_378_796)"
       id="path2"
       style="fill:url(#paint0_linear_378_796);stroke:#666666;stroke-opacity:1;stroke-width:2;stroke-dasharray:none;stroke-dashoffset:0;filter:url(#filter3988)" />
    <path
       d="m 41.9983,39.9734 c 0,0 3.5289,-4.3945 5.2232,-5.9241 1.6944,-1.5295 3.4741,-2.4778 6.8821,-2.712 3.8563,-0.2649 5.7259,0.667 8.3774,-1.0482 -0.5231,1.1672 -2.5347,3.5807 -3.8258,5.0317 -1.591,1.6703 -2.908,3.1815 -4.6747,4.2001 -1.2609,0.727 -1.3493,0.3065 -3.5452,0.044 -0.9509,-0.1136 -2.9623,-0.5586 -4.1779,-0.4993 -2.0319,0.0997 -3.715,0.7278 -4.1067,0.854 z"
       fill="#7233a3"
       style="mix-blend-mode:darken;stroke:#000000;stroke-opacity:1;stroke-width:2;stroke-dasharray:none"
       id="path4" />
    <path
       d="m 41.9983,39.9734 c 0,0 3.5289,-4.3945 5.2232,-5.9241 1.6944,-1.5295 3.4741,-2.4778 6.8821,-2.712 3.8563,-0.2649 5.7259,0.667 8.3774,-1.0482 -0.5231,1.1672 -2.5347,3.5807 -3.8258,5.0317 -1.591,1.6703 -2.908,3.1815 -4.6747,4.2001 -1.2609,0.727 -1.3493,0.3065 -3.5452,0.044 -0.9509,-0.1136 -2.9623,-0.5586 -4.1779,-0.4993 -2.0319,0.0997 -3.715,0.7278 -4.1067,0.854 z"
       stroke="#5d5d5d"
       stroke-width="2"
       id="path6"
       style="stroke:#666666;stroke-opacity:1;stroke-width:2;stroke-dasharray:none;stroke-dashoffset:0" />
  </g>
</svg>
