<svg width="22" height="22" viewBox="0 0 22 22" fill="none" xmlns="http://www.w3.org/2000/svg">
<path d="M1.51239 9.5752C7.41795 6.6822 11.3559 4.77495 13.3263 3.85347C18.9521 1.22244 20.1211 0.765399 20.883 0.750146C21.0506 0.746988 21.4253 0.793685 21.668 1.01513C21.873 1.20211 21.9294 1.45469 21.9563 1.63197C21.9833 1.80925 22.0169 2.2131 21.9902 2.52865C21.6854 6.13033 20.3662 14.8707 19.6951 18.9046C19.4111 20.6115 18.852 21.1838 18.3107 21.2398C17.1343 21.3616 16.2409 20.3657 15.1015 19.5259C13.3186 18.2118 12.3113 17.3937 10.5807 16.1114C8.58058 14.6294 9.87715 13.8149 11.017 12.4837C11.3153 12.1354 16.4986 6.83434 16.5989 6.35346C16.6115 6.29331 16.6231 6.06913 16.5046 5.95075C16.3862 5.83237 16.2114 5.87285 16.0852 5.90505C15.9064 5.95068 13.0581 8.06747 7.54035 12.2554C6.73187 12.8796 5.99958 13.1838 5.34347 13.1678C4.62016 13.1503 3.2288 12.708 2.19447 12.3299C0.925826 11.8663 -0.0824702 11.6211 0.0053297 10.8336C0.0510613 10.4235 0.553413 10.004 1.51239 9.5752Z" fill="white"/>
</svg>
