<svg width="24" height="22" viewBox="0 0 24 22" fill="none" xmlns="http://www.w3.org/2000/svg">
<g clip-path="url(#clip0_409_877)">
<path fill-rule="evenodd" clip-rule="evenodd" d="M1.68707 1.54648C0 3.09295 0 5.58195 0 10.56V11.44C0 16.4181 0 18.907 1.68707 20.4535C3.37413 22 6.0894 22 11.52 22H12.48C17.9106 22 20.6259 22 22.313 20.4535C24 18.907 24 16.4181 24 11.44V10.56C24 5.58195 24 3.09295 22.313 1.54648C20.6259 0 17.9106 0 12.48 0H11.52C6.0894 0 3.37413 0 1.68707 1.54648ZM4.05006 6.69171C4.18006 12.4117 7.30005 15.8492 12.7701 15.8492H13.0801V12.5767C15.0901 12.76 16.61 14.1075 17.22 15.8492H20.06C19.28 13.2459 17.23 11.8067 15.95 11.2567C17.23 10.5784 19.0299 8.92838 19.4599 6.69171H16.8799C16.3199 8.50671 14.6601 10.1567 13.0801 10.3125V6.69171H10.5V13.035C8.9 12.6684 6.88005 10.89 6.79005 6.69171H4.05006Z" fill="white"/>
</g>
<defs>
<clipPath id="clip0_409_877">
<rect width="24" height="22" fill="white"/>
</clipPath>
</defs>
</svg>
