<svg width="22" height="22" viewBox="0 0 22 22" fill="none" xmlns="http://www.w3.org/2000/svg">
<path fill-rule="evenodd" clip-rule="evenodd" d="M18.7 3.76505C16.6375 1.84318 13.8875 0.818176 11 0.818176C4.95 0.818176 0 5.43068 0 11.0682C0 12.8619 0.550008 14.6557 1.51251 16.1932L0 21.3182L5.77502 19.9088C7.42502 20.6776 9.2125 21.1901 11 21.1901C17.05 21.1901 22 16.5776 22 10.9401C22 8.24943 20.7625 5.68693 18.7 3.76505ZM11 19.5244C9.35 19.5244 7.70001 19.1401 6.32501 18.3713L6.04999 18.2432L2.61249 19.1401L3.57501 16.0651L3.29999 15.6807C2.33749 14.2713 1.92499 12.7338 1.92499 11.1963C1.92499 6.5838 6.05 2.74005 11 2.74005C13.475 2.74005 15.675 3.63693 17.4625 5.17443C19.25 6.84005 20.075 8.89005 20.075 11.1963C20.075 15.6807 16.0875 19.5244 11 19.5244ZM15.95 13.1182C15.675 12.9901 14.3 12.3494 14.025 12.3494C13.75 12.2213 13.6125 12.2213 13.475 12.4776C13.3375 12.7338 12.7875 13.2463 12.65 13.5026C12.5125 13.6307 12.375 13.6307 12.1 13.6307C11.825 13.5026 11 13.2463 9.90002 12.3494C9.07502 11.7088 8.52501 10.8119 8.38751 10.5557C8.25001 10.2994 8.38752 10.1713 8.52502 10.0432C8.66252 9.91505 8.8 9.78693 8.9375 9.6588C9.075 9.53068 9.07502 9.40255 9.21252 9.27443C9.35002 9.1463 9.21252 9.01818 9.21252 8.89005C9.21252 8.76193 8.66251 7.48068 8.38751 6.96818C8.25001 6.5838 7.97502 6.5838 7.83752 6.5838C7.70002 6.5838 7.56248 6.5838 7.28748 6.5838C7.14998 6.5838 6.87498 6.5838 6.59998 6.84005C6.32498 7.0963 5.63751 7.73693 5.63751 9.01818C5.63751 10.2994 6.59999 11.4526 6.73749 11.7088C6.87499 11.8369 8.66248 14.5276 11.4125 15.5526C13.75 16.4494 14.1625 16.1932 14.7125 16.1932C15.2625 16.1932 16.3625 15.5526 16.5 15.0401C16.775 14.3994 16.775 13.8869 16.6375 13.8869C16.5 13.2463 16.225 13.2463 15.95 13.1182Z" fill="white"/>
</svg>
